<svg width="2844" height="2604" viewBox="0 0 2844 2604" fill="none" xmlns="http://www.w3.org/2000/svg">
<path d="M1787.2 76L1985.1 267L2184 1343.7H318.301L1787.2 76Z" fill="#FFCF2D"/>
<path d="M1986.8 265.5L1788.3 73.9001L1821.5 39.4001C1870.4 -11.3999 1958.5 -5.59991 2009.3 43.2001C2060.1 92.1001 2069 180.2 2020.1 231L1986.8 265.5Z" fill="white" stroke="#FFCF2D" stroke-width="6" stroke-miterlimit="10" stroke-linecap="round"/>
<path d="M2020 231L1821.4 39.4001" stroke="#FFCF2D" stroke-width="6" stroke-miterlimit="10" stroke-linecap="round"/>
<path d="M2020.2 51.9L2042.4 34.9C2072.2 12.1 2115 18.1 2137.3 48.4L2682.9 712.6L2403.6 1335.5" stroke="#3FB1B5" stroke-width="6" stroke-miterlimit="10" stroke-linecap="round"/>
<path d="M2674 746.5C2690.9 746.5 2704.6 732.8 2704.6 715.9C2704.6 699 2690.9 685.3 2674 685.3C2657.1 685.3 2643.4 699 2643.4 715.9C2643.4 732.8 2657.1 746.5 2674 746.5Z" fill="white" stroke="#FFCF2D" stroke-width="6" stroke-miterlimit="10" stroke-linecap="round"/>
<path d="M2326 1265.9H2475.1C2518 1265.9 2552.7 1300.7 2552.7 1343.5V1345.7H2248.3V1343.5C2248.4 1300.7 2283.1 1265.9 2326 1265.9Z" fill="white" stroke="#FFCF2D" stroke-width="6" stroke-miterlimit="10" stroke-linecap="round"/>
<path d="M1603.7 1118.6H659.798C624.298 1118.6 595.598 1089.9 595.598 1054.4V394.2C595.598 358.7 624.298 330 659.798 330H1603.7C1639.2 330 1667.9 358.7 1667.9 394.2V1054.3C1668 1089.8 1639.2 1118.6 1603.7 1118.6Z" fill="white" stroke="#3FB1B5" stroke-width="6" stroke-miterlimit="10" stroke-linecap="round"/>
<path d="M1604.3 1057.2H669.498C655.598 1057.2 644.398 1045.9 644.398 1032.1V400.5C644.398 386.6 655.698 375.4 669.498 375.4H1604.3C1618.2 375.4 1629.4 386.7 1629.4 400.5V1032C1629.5 1045.9 1618.2 1057.2 1604.3 1057.2Z" fill="#66B0F0" stroke="#66B0F0" stroke-width="6" stroke-miterlimit="10" stroke-linejoin="round"/>
<path d="M702.998 434.4H688.198C683.398 434.4 679.398 430.5 679.398 425.6V410.8C679.398 406 683.298 402 688.198 402H702.998C707.798 402 711.798 405.9 711.798 410.8V425.6C711.698 430.5 707.798 434.4 702.998 434.4Z" stroke="white" stroke-width="6" stroke-miterlimit="10" stroke-linecap="round"/>
<path d="M770.299 434.4H755.499C750.699 434.4 746.699 430.5 746.699 425.6V410.8C746.699 406 750.599 402 755.499 402H770.299C775.099 402 779.099 405.9 779.099 410.8V425.6C779.099 430.5 775.099 434.4 770.299 434.4Z" stroke="white" stroke-width="6" stroke-miterlimit="10" stroke-linecap="round"/>
<path d="M837.6 434.4H822.8C818 434.4 814 430.5 814 425.6V410.8C814 406 817.9 402 822.8 402H837.6C842.4 402 846.4 405.9 846.4 410.8V425.6C846.4 430.5 842.5 434.4 837.6 434.4Z" stroke="white" stroke-width="6" stroke-miterlimit="10" stroke-linecap="round"/>
<path d="M1331 1343.7H964.598L1036.5 1118.6H1259L1331 1343.7Z" fill="white" stroke="#3FB1B5" stroke-width="6" stroke-miterlimit="10" stroke-linecap="round"/>
<path d="M993.398 1253.6L1036.5 1118.6H1259L993.398 1253.6Z" fill="#3FB1B5"/>
<path d="M1549.9 582.5H1371.8C1355.1 582.5 1341.6 569 1341.6 552.3V437.3C1341.6 420.6 1355.1 407.1 1371.8 407.1H1549.9C1566.6 407.1 1580.1 420.6 1580.1 437.3V552.3C1580.1 569 1566.6 582.5 1549.9 582.5Z" stroke="white" stroke-width="6" stroke-miterlimit="10" stroke-linecap="round"/>
<path d="M1392.5 448.1H1528.4" stroke="white" stroke-width="6" stroke-miterlimit="10" stroke-linecap="round"/>
<path d="M1392.5 479.1H1528.4" stroke="white" stroke-width="6" stroke-miterlimit="10" stroke-linecap="round"/>
<path d="M1392.5 510.1H1528.4" stroke="white" stroke-width="6" stroke-miterlimit="10" stroke-linecap="round"/>
<path d="M1392.5 541.1H1528.4" stroke="white" stroke-width="6" stroke-miterlimit="10" stroke-linecap="round"/>
<path d="M1599.1 1057.2H891.199L849.699 1116.7C802.799 1183.9 703.699 1184.9 655.499 1118.6L402.699 770.9C413.299 784.1 461.799 769.4 507.999 739C554.899 708.1 585.199 669.2 575.699 654.8L750.999 878.2L804.699 783.4C819.399 758.3 843.799 740.3 872.199 733.7L1054.9 695H1212.4L1386 733.3C1416.2 740.2 1441.8 759.9 1456.3 787.2L1599.1 1057.2Z" fill="white" stroke="#3FB1B5" stroke-width="6" stroke-miterlimit="10"/>
<path d="M1404.8 1053.1L1354.5 953.8" stroke="#3FB1B5" stroke-width="6" stroke-miterlimit="10" stroke-linecap="round"/>
<path d="M887.199 1062.4L936.999 964.1" stroke="#3FB1B5" stroke-width="6" stroke-miterlimit="10" stroke-linecap="round"/>
<path d="M682.801 791.5L796.901 937.4" stroke="#3FB1B5" stroke-width="6" stroke-miterlimit="10" stroke-linecap="round"/>
<path d="M1153.3 743L1195.3 794.1L1289.3 714.3" stroke="#3FB1B5" stroke-width="6" stroke-miterlimit="10" stroke-linecap="round"/>
<path d="M1121.2 744L1080.4 796.1L977.098 714.3" stroke="#3FB1B5" stroke-width="6" stroke-miterlimit="10" stroke-linecap="round"/>
<path d="M610.498 699.5C619.998 714 589.598 753.4 542.398 784.7C495.998 815.5 446.798 830.3 436.098 817" stroke="#3FB1B5" stroke-width="6" stroke-miterlimit="10" stroke-linecap="round"/>
<path d="M579.101 724.8C585.342 724.8 590.401 719.741 590.401 713.5C590.401 707.259 585.342 702.2 579.101 702.2C572.86 702.2 567.801 707.259 567.801 713.5C567.801 719.741 572.86 724.8 579.101 724.8Z" stroke="#3FB1B5" stroke-width="6" stroke-miterlimit="10" stroke-linecap="round"/>
<path d="M1137.1 795.8C1143.34 795.8 1148.4 790.741 1148.4 784.5C1148.4 778.259 1143.34 773.2 1137.1 773.2C1130.86 773.2 1125.8 778.259 1125.8 784.5C1125.8 790.741 1130.86 795.8 1137.1 795.8Z" stroke="#3FB1B5" stroke-width="6" stroke-miterlimit="10" stroke-linecap="round"/>
<path d="M1137.1 886.8C1143.34 886.8 1148.4 881.741 1148.4 875.5C1148.4 869.259 1143.34 864.2 1137.1 864.2C1130.86 864.2 1125.8 869.259 1125.8 875.5C1125.8 881.741 1130.86 886.8 1137.1 886.8Z" stroke="#3FB1B5" stroke-width="6" stroke-miterlimit="10" stroke-linecap="round"/>
<path d="M846.098 1121.5L891.198 1057.2V1121.5H846.098Z" fill="#3FB1B5"/>
<path d="M506.899 736C460.699 766.4 412.199 781.1 401.599 767.9C401.399 767.7 401.299 767.5 401.099 767.2C398.899 763.9 399.099 759.4 401.099 753.9C407.999 735.8 436.499 707.8 472.699 684C501.499 665 529.899 651.8 549.599 647.7C560.999 645.4 569.499 646.1 573.599 650.5L574.599 651.7C583.999 666.1 553.799 705.1 506.899 736Z" fill="#FE5244"/>
<path d="M506.898 736C480.598 753.3 453.498 765.6 433.098 770.4L341.798 641.6C329.098 623.6 333.298 598.7 351.398 586L433.598 528.2L386.998 448.9C380.198 437.4 384.098 422.5 395.698 415.8C399.498 413.6 403.598 412.6 407.698 412.6C415.598 412.6 423.398 416.5 427.998 423.7L573.698 650.3L574.698 651.9C583.998 666.1 553.798 705.1 506.898 736Z" fill="#E57281"/>
<path d="M433.398 529.1L484.298 608C488.998 615.4 486.898 625.2 479.498 630L468.198 637.4C460.798 642.3 450.798 640.2 445.998 632.8L397.898 560.8" stroke="#9A3B82" stroke-width="6" stroke-miterlimit="10" stroke-linecap="round"/>
<path d="M445.799 632.6C450.699 640.1 448.499 650.2 440.999 655L430.699 661.5C423.299 666.2 413.499 664.1 408.699 656.8" stroke="#9A3B82" stroke-width="6" stroke-miterlimit="10" stroke-linecap="round"/>
<path d="M361.4 586.2L408.5 656.2C413.4 663.7 411.3 673.8 403.6 678.6L394 683.9C386.8 688.5 377.3 686.6 372.3 679.6L345 641.1" stroke="#9A3B82" stroke-width="6" stroke-miterlimit="10" stroke-linecap="round"/>
<path d="M539.7 597.5L515.8 560.4C507.9 548.1 491.4 544.7 479.3 552.9L420 593.1C420 593.1 437.2 624 479 599.5L493 621.8C464.4 639.9 456.2 678 474.8 706.3L539.7 597.5Z" fill="#E57281"/>
<path d="M536.6 598.5L512.7 561.4C504.8 549.1 488.3 545.7 476.2 553.9L420 593.1C420 593.1 437.2 624 479 599.5L493 621.8C464.4 639.9 456.2 678 474.8 706.3" stroke="#9A3B82" stroke-width="6" stroke-miterlimit="10" stroke-linecap="round"/>
<path d="M506.898 736C480.598 753.3 453.498 765.6 433.098 770.4L410.398 738.4C423.098 721.8 445.798 701.8 472.698 684.1C501.498 665.1 529.898 651.9 549.598 647.8C560.998 645.5 569.498 646.2 573.598 650.6L574.598 651.8C574.698 652 574.798 652.1 574.898 652.3C574.998 652.4 574.998 652.5 575.098 652.7C575.198 652.9 575.298 653 575.398 653.2C582.198 668.5 552.298 706 506.898 736Z" fill="#9A3B82"/>
<path d="M1212.3 607V694.9C1212.3 720.4 1176.9 741 1133.4 741C1089.8 741 1054.5 720.4 1054.5 694.9V607H1212.3Z" fill="#E57281"/>
<path d="M1077.6 727.5C1063.3 719.2 1054.4 707.6 1054.4 694.9V607H1212.3V631.4C1212.3 656.7 1196.9 679.4 1173.5 688.9L1077.6 727.5Z" fill="#9A3B82"/>
<path d="M1256.3 601.8V603.3C1256.3 618.5 1244 630.8 1228.8 630.8H1210.7C1204.6 655.4 1182.4 673.7 1155.8 673.7H1111C1084.5 673.7 1062.2 655.5 1056.2 630.8H1038.1C1022.9 630.8 1010.6 618.5 1010.6 603.3V601.8C1010.6 586.6 1022.9 574.3 1038.1 574.3H1054.5V552.6C1054.5 529.4 1071.6 510.2 1093.9 507C1098.8 515.2 1113.6 534.8 1143.8 533.7C1158 533.2 1171.2 530.5 1182.1 527.3C1195.2 523.5 1208.3 531.5 1211.6 544C1212.1 546.8 1212.4 549.6 1212.4 552.5V574.2H1228.8C1243.9 574.2 1256.3 586.6 1256.3 601.8Z" fill="#E57281"/>
<path d="M1224.9 574.2H1212.3V550.1C1212.3 548 1212 545.9 1211.5 544C1208.2 531.5 1195.1 523.5 1182 527.3C1171.1 530.5 1158 533.2 1143.7 533.7C1113.5 534.8 1098.7 515.2 1093.8 507C1071.5 510.2 1054.4 529.4 1054.4 552.6V574.3H1038.7C1038.7 574.3 1020.7 509.2 1034.2 490.8C1047.5 472.7 1063.5 480.6 1063.5 480.6C1063.5 480.6 1053.9 426.4 1107.5 427.4C1161 428.4 1230.6 490.5 1235.7 501.9C1243.7 519.4 1224.9 574.2 1224.9 574.2Z" fill="#9A3B82"/>
<path d="M1218.4 606.9C1218.4 596.2 1227.1 587.6 1237.7 587.6" stroke="#9A3B82" stroke-width="5" stroke-miterlimit="10" stroke-linecap="round"/>
<path d="M1048.6 606.9C1048.6 596.2 1039.9 587.6 1029.3 587.6" stroke="#9A3B82" stroke-width="5" stroke-miterlimit="10" stroke-linecap="round"/>
<path d="M1187.1 552.6C1187.1 552.6 1172.9 542.2 1154.8 549.7" stroke="#9A3B82" stroke-width="5" stroke-miterlimit="10" stroke-linecap="round"/>
<path d="M1078.7 552.6C1078.7 552.6 1092.9 542.2 1111 549.7" stroke="#9A3B82" stroke-width="5" stroke-miterlimit="10" stroke-linecap="round"/>
<path d="M1158.3 626.4C1158.3 626.4 1150.6 643 1127 634.3" stroke="#9A3B82" stroke-width="5" stroke-miterlimit="10" stroke-linecap="round"/>
<path d="M1125.89 617.8C1131.99 618.2 1141.29 617.8 1141.29 617.8" stroke="#9A3B82" stroke-width="5" stroke-miterlimit="10" stroke-linecap="round"/>
<path d="M1171 594.3C1173.76 594.3 1176 590.539 1176 585.9C1176 581.261 1173.76 577.5 1171 577.5C1168.23 577.5 1166 581.261 1166 585.9C1166 590.539 1168.23 594.3 1171 594.3Z" fill="#9A3B82"/>
<path d="M1099.3 594.3C1102.06 594.3 1104.3 590.539 1104.3 585.9C1104.3 581.261 1102.06 577.5 1099.3 577.5C1096.54 577.5 1094.3 581.261 1094.3 585.9C1094.3 590.539 1096.54 594.3 1099.3 594.3Z" fill="#9A3B82"/>
<path d="M1111.2 614.2H1079.7C1073.6 614.2 1068.7 609.3 1068.7 603.2V571.7C1068.7 565.6 1073.6 560.7 1079.7 560.7H1111.2C1117.3 560.7 1122.2 565.6 1122.2 571.7V603.2C1122.3 609.2 1117.3 614.2 1111.2 614.2Z" stroke="white" stroke-width="5" stroke-miterlimit="10"/>
<path d="M1188.3 614.2H1156.8C1150.7 614.2 1145.8 609.3 1145.8 603.2V571.7C1145.8 565.6 1150.7 560.7 1156.8 560.7H1188.3C1194.4 560.7 1199.3 565.6 1199.3 571.7V603.2C1199.3 609.2 1194.4 614.2 1188.3 614.2Z" stroke="white" stroke-width="5" stroke-miterlimit="10"/>
<path d="M1122.3 581.5H1145.8" stroke="white" stroke-width="5" stroke-miterlimit="10"/>
<path d="M2658.4 1345.7H3.69922" stroke="#3FB1B5" stroke-width="6" stroke-miterlimit="10" stroke-linecap="round"/>
<path d="M858.399 1363.2V2597.8H788.699V2362.8C788.699 2340.9 770.899 2323.1 748.999 2323.1H250.099C228.199 2323.1 210.399 2340.9 210.399 2362.8V2597.8H140.699V1363.2H858.399Z" fill="white" stroke="#3FB1B5" stroke-width="6" stroke-miterlimit="10" stroke-linecap="round"/>
<path d="M860.499 1363.2V1690.8L140.699 2283.5L140.799 1363.2H860.499Z" fill="#D0F0E4"/>
<path d="M788.7 1457.2V1681.1C788.7 1701.9 771.9 1718.7 751.1 1718.7H248.1C227.3 1718.7 210.5 1701.9 210.5 1681.1V1457.2C210.5 1436.4 227.3 1419.6 248.1 1419.6H751.1C771.9 1419.6 788.7 1436.4 788.7 1457.2Z" stroke="#3FB1B5" stroke-width="6" stroke-miterlimit="10" stroke-linecap="round"/>
<path d="M627.498 1888.3H379.898L369.598 1817.4H617.298L627.498 1888.3Z" fill="#FFCF2D"/>
<path d="M759.6 1776.5C728.7 1776.5 703.7 1801.5 703.7 1832.4V1888.3H493V1832.4C493 1801.5 518 1776.5 548.9 1776.5H759.6Z" fill="white" stroke="#3FB1B5" stroke-width="6" stroke-miterlimit="10" stroke-linecap="round"/>
<path d="M812.1 1817.4H601.4C594.9 1793.8 573.2 1776.5 547.5 1776.5H758.2C783.9 1776.5 805.5 1793.8 812.1 1817.4Z" fill="white" stroke="#3FB1B5" stroke-width="6" stroke-miterlimit="10" stroke-linecap="round"/>
<path d="M788.7 1925.9V2149.8C788.7 2170.6 771.9 2187.4 751.1 2187.4H248.1C227.3 2187.4 210.5 2170.6 210.5 2149.8V1925.9C210.5 1905.1 227.3 1888.3 248.1 1888.3H751.1C771.9 1888.3 788.7 1905.1 788.7 1925.9Z" stroke="#3FB1B5" stroke-width="6" stroke-miterlimit="10" stroke-linecap="round"/>
<path d="M396.598 1564.7C396.598 1546.9 410.998 1532.4 428.898 1532.4H570.398C588.198 1532.4 602.698 1546.8 602.698 1564.7" stroke="#3FB1B5" stroke-width="6" stroke-miterlimit="10" stroke-linecap="round"/>
<path d="M396.598 2033.4C396.598 2015.6 410.998 2001.1 428.898 2001.1H570.398C588.198 2001.1 602.698 2015.5 602.698 2033.4" stroke="#3FB1B5" stroke-width="6" stroke-miterlimit="10" stroke-linecap="round"/>
<path d="M2552.7 1363.2H2478.4V2600.5H2552.7V1363.2Z" fill="white" stroke="#3FB1B5" stroke-width="6" stroke-miterlimit="10" stroke-linecap="round"/>
<path d="M1290 2600.5H2840.6" stroke="#3FB1B5" stroke-width="6" stroke-miterlimit="10" stroke-linecap="round"/>
<path d="M351.699 1176H306.799C306.799 1176 242.699 908.9 186.399 900.2C130.099 891.5 127.199 994.3 127.199 994.3C127.199 994.3 128.199 838 268.899 859.4C409.699 880.8 351.699 1176 351.699 1176Z" fill="white" stroke="#3FB1B5" stroke-width="6" stroke-miterlimit="10" stroke-linecap="round"/>
<path d="M197.898 866.2C197.898 866.2 326.198 818.8 331.998 1172" stroke="#3FB1B5" stroke-width="6" stroke-miterlimit="10" stroke-linecap="round"/>
<path d="M473.998 1172H263.098V1343.7H473.998V1172Z" fill="#FE5244"/>
<path d="M518.399 1257.9C504.999 1263.7 488.999 1263 474.099 1256.5C463.099 1251.7 452.699 1243.8 444.299 1233C432.699 1218 424.899 1197.5 424.899 1172C424.899 1110.2 375.699 1071.4 355.499 1153.2C354.099 1158.9 352.799 1165.1 351.699 1172V1171.8V1171.4C351.699 1171.2 351.699 1170.9 351.799 1170.6V1170.2C352.199 1165.1 353.699 1150 358.299 1131.8C361.699 1118.3 366.799 1103.3 374.399 1089.4C378.199 1082.5 382.599 1075.9 387.799 1070C401.199 1054.6 419.599 1043.8 444.699 1043.8C490.899 1043.8 524.699 1098.2 537.599 1152.4C548.899 1199.5 544.299 1246.6 518.399 1257.9Z" fill="white" stroke="#3FB1B5" stroke-width="6" stroke-miterlimit="10" stroke-linecap="round"/>
<path d="M387.898 1070C387.898 1070 480.498 1004.1 507.698 1259.8" stroke="#3FB1B5" stroke-width="6" stroke-miterlimit="10" stroke-linecap="round"/>
<path d="M124.198 994.3C124.198 1010.8 122.298 1073.9 182.498 1076.8C242.698 1079.7 248.698 988.8 248.698 988.8C248.698 988.8 219.098 908.4 186.398 900.2C131.098 886.3 124.198 994.3 124.198 994.3Z" fill="#3FB1B5"/>
<path d="M424.899 1172H351.699C368.599 1066.1 424.899 1105.9 424.899 1172Z" fill="#3FB1B5"/>
<path opacity="0.4" d="M1668 394.2V1054.3C1668 1089.8 1639.2 1118.5 1603.8 1118.5H848.299C800.899 1183.8 703.199 1184.1 655.399 1118.5L655.299 1118.4C636.299 1117.1 619.499 1107.4 608.699 1093.1L626.099 1078.1L1070.1 694.9L1492.9 330H1603.8C1639.2 330 1668 358.8 1668 394.2Z" fill="white"/>
<path opacity="0.4" d="M518.398 1260.9C505.098 1266.9 488.998 1266 474.098 1259.5V1343.7H318.398L444.398 1235L474.198 1209.3L496.898 1189.7L540.798 1152.4C553.598 1207 546.498 1248 518.398 1260.9Z" fill="white"/>
<path d="M1844.3 1705.2V2261.8H1715.7L1633.8 2033.1L1516.5 1705.2H1844.3Z" fill="#A0505A"/>
<path d="M1516.5 1705.2H1844.3V1883.9L1555.5 1814.1L1516.5 1705.2Z" fill="#73325A"/>
<path d="M1844.3 2033.1V2261.8H1715.7L1633.8 2033.1C1633.8 2033.1 1700.1 2069.7 1844.3 2033.1Z" stroke="white" stroke-width="6" stroke-miterlimit="10" stroke-linecap="round"/>
<path d="M1700.7 2086.8C1708.76 2086.8 1715.3 2080.26 1715.3 2072.2C1715.3 2064.14 1708.76 2057.6 1700.7 2057.6C1692.64 2057.6 1686.1 2064.14 1686.1 2072.2C1686.1 2080.26 1692.64 2086.8 1700.7 2086.8Z" stroke="white" stroke-width="6" stroke-miterlimit="10" stroke-linecap="round"/>
<path d="M1770.3 2133.9C1778.36 2133.9 1784.9 2127.36 1784.9 2119.3C1784.9 2111.24 1778.36 2104.7 1770.3 2104.7C1762.24 2104.7 1755.7 2111.24 1755.7 2119.3C1755.7 2127.36 1762.24 2133.9 1770.3 2133.9Z" stroke="white" stroke-width="6" stroke-miterlimit="10" stroke-linecap="round"/>
<path d="M1822.1 2081.6C1830.16 2081.6 1836.7 2075.06 1836.7 2067C1836.7 2058.94 1830.16 2052.4 1822.1 2052.4C1814.04 2052.4 1807.5 2058.94 1807.5 2067C1807.5 2075.06 1814.04 2081.6 1822.1 2081.6Z" stroke="white" stroke-width="6" stroke-miterlimit="10" stroke-linecap="round"/>
<path d="M1801.6 2188.7C1809.66 2188.7 1816.2 2182.16 1816.2 2174.1C1816.2 2166.04 1809.66 2159.5 1801.6 2159.5C1793.54 2159.5 1787 2166.04 1787 2174.1C1787 2182.16 1793.54 2188.7 1801.6 2188.7Z" stroke="white" stroke-width="6" stroke-miterlimit="10" stroke-linecap="round"/>
<path d="M1715.3 2162.1C1723.36 2162.1 1729.9 2155.56 1729.9 2147.5C1729.9 2139.44 1723.36 2132.9 1715.3 2132.9C1707.24 2132.9 1700.7 2139.44 1700.7 2147.5C1700.7 2155.56 1707.24 2162.1 1715.3 2162.1Z" stroke="white" stroke-width="6" stroke-miterlimit="10" stroke-linecap="round"/>
<path d="M1739.1 2242.1C1747.16 2242.1 1753.7 2235.56 1753.7 2227.5C1753.7 2219.44 1747.16 2212.9 1739.1 2212.9C1731.04 2212.9 1724.5 2219.44 1724.5 2227.5C1724.5 2235.56 1731.04 2242.1 1739.1 2242.1Z" stroke="white" stroke-width="6" stroke-miterlimit="10" stroke-linecap="round"/>
<path d="M1905.1 2365.6L1816.9 2548.7C1804.4 2578.2 1775.5 2597.4 1743.4 2597.4H1630.9C1602.1 2597.4 1584.6 2568.2 1595.6 2541.6L1708.7 2268.8C1715 2252.2 1726.1 2238.4 1740 2228.7C1754 2219 1770.8 2213.5 1788.5 2213.5C1813.1 2213.5 1837.5 2230.2 1853.7 2248.7L1892.9 2291C1911 2311.6 1915.7 2340.5 1905.1 2365.6Z" fill="#66B0F0"/>
<path d="M1905.1 2365.6L1816.9 2548.7C1804.4 2578.2 1775.5 2597.4 1743.4 2597.4H1623.8C1612.7 2597.4 1606.4 2590.5 1602.7 2581H1629.3C1661.4 2581 1690.3 2561.8 1702.8 2532.3L1804.5 2320.2C1814 2300.4 1834.1 2287.7 1856.1 2287.7C1884.8 2287.7 1906.6 2308.7 1910.6 2335.3C1911 2345.5 1909.2 2355.8 1905.1 2365.6Z" fill="white" stroke="#66B0F0" stroke-width="6" stroke-miterlimit="10" stroke-linejoin="round"/>
<path d="M1884.8 2282.2C1874.2 2276.4 1861.4 2272.2 1850.2 2272.2C1828.7 2272.2 1808.8 2284.7 1799.5 2304.1L1694.2 2523.7C1680.8 2555.4 1649.8 2575.9 1615.3 2575.9H1595.9C1594.9 2574 1594.2 2572 1593.5 2569.9H1615.3C1647.4 2569.9 1676.2 2550.8 1688.7 2521.3L1688.8 2521.2L1794.2 2301.5C1804.5 2280 1826.5 2266.2 1850.3 2266.2C1857.9 2266.2 1867 2268.7 1874.8 2271.4L1884.8 2282.2Z" fill="white"/>
<path d="M1516.5 1705.2L1491.4 2033.1L1480.2 2180C1480.2 2180 1407.1 2261.4 1323.9 2211.2L1285.4 2033.2L1197.3 1625.9C1173.5 1515.8 1248.7 1408.7 1360.4 1393.8L1516.5 1705.2Z" fill="#A0505A"/>
<path d="M1491.4 2033.1L1480.2 2184C1480.2 2184 1407.1 2265.4 1323.9 2215.2L1285.4 2033.2C1382.1 2062.2 1491.4 2033.1 1491.4 2033.1Z" stroke="white" stroke-width="6" stroke-miterlimit="10" stroke-linecap="round"/>
<path d="M1376.5 2123.8C1384.57 2123.8 1391.1 2117.26 1391.1 2109.2C1391.1 2101.14 1384.57 2094.6 1376.5 2094.6C1368.44 2094.6 1361.9 2101.14 1361.9 2109.2C1361.9 2117.26 1368.44 2123.8 1376.5 2123.8Z" stroke="white" stroke-width="6" stroke-miterlimit="10" stroke-linecap="round"/>
<path d="M1469.3 2101.4C1477.37 2101.4 1483.9 2094.86 1483.9 2086.8C1483.9 2078.74 1477.37 2072.2 1469.3 2072.2C1461.24 2072.2 1454.7 2078.74 1454.7 2086.8C1454.7 2094.86 1461.24 2101.4 1469.3 2101.4Z" stroke="white" stroke-width="6" stroke-miterlimit="10" stroke-linecap="round"/>
<path d="M1320.5 2081.6C1328.57 2081.6 1335.1 2075.06 1335.1 2067C1335.1 2058.94 1328.57 2052.4 1320.5 2052.4C1312.44 2052.4 1305.9 2058.94 1305.9 2067C1305.9 2075.06 1312.44 2081.6 1320.5 2081.6Z" stroke="white" stroke-width="6" stroke-miterlimit="10" stroke-linecap="round"/>
<path d="M1361.9 2203.3C1369.96 2203.3 1376.5 2196.76 1376.5 2188.7C1376.5 2180.64 1369.96 2174.1 1361.9 2174.1C1353.84 2174.1 1347.3 2180.64 1347.3 2188.7C1347.3 2196.76 1353.84 2203.3 1361.9 2203.3Z" stroke="white" stroke-width="6" stroke-miterlimit="10" stroke-linecap="round"/>
<path d="M1430 2174.1C1438.07 2174.1 1444.6 2167.56 1444.6 2159.5C1444.6 2151.44 1438.07 2144.9 1430 2144.9C1421.94 2144.9 1415.4 2151.44 1415.4 2159.5C1415.4 2167.56 1421.94 2174.1 1430 2174.1Z" stroke="white" stroke-width="6" stroke-miterlimit="10" stroke-linecap="round"/>
<path d="M1576.6 2215L1480.2 2600.5H1449.8C1448.4 2600.5 1447.1 2600.4 1445.7 2600.3C1422.7 2598.2 1403.3 2578.8 1398.4 2555.9L1323.8 2211C1407 2261.3 1480.2 2179.9 1480.2 2179.9L1576.6 2215Z" fill="#66B0F0"/>
<path d="M1581.5 2412.8C1601.8 2305.6 1607.4 2223.7 1572.4 2217.1C1537.4 2210.5 1475.1 2281.6 1454.8 2388.8C1434.5 2496 1445.1 2590.8 1480.1 2597.4C1515.1 2604.1 1561.2 2520.1 1581.5 2412.8Z" fill="white" stroke="#66B0F0" stroke-width="6" stroke-miterlimit="10" stroke-linejoin="round"/>
<path d="M1440.8 2387.1C1430.3 2442.7 1427.2 2496.4 1432.2 2538.4C1435.8 2568.6 1443.4 2590.1 1453.8 2600.5H1449.8C1448.4 2600.5 1447.1 2600.4 1445.7 2600.3C1436.3 2587.9 1429.6 2567.1 1426.2 2539.1C1421.1 2496.6 1424.2 2442.2 1434.9 2386C1445 2332.8 1465.4 2282.9 1492.5 2245.4C1508.7 2223 1525.7 2207.3 1541.2 2200.2L1550.2 2203.2C1514.5 2213.8 1460.3 2284.2 1440.8 2387.1Z" fill="white"/>
<path d="M1360.4 1393.7L1816.6 1346.7L2272.6 1474.6L2268.7 1535.2C2262.5 1630.8 2180.1 1705.2 2084.3 1705.2H1516.6L1360.4 1393.7Z" fill="#FE5244"/>
<path d="M2246.6 1470.2C2246.6 1557 2160 1663.2 2064.2 1663.2H1496.5" stroke="white" stroke-width="6" stroke-miterlimit="10" stroke-linecap="round" stroke-linejoin="round"/>
<path d="M2192.5 1452.9C2178.3 1530.4 2102.5 1613.2 2019.5 1613.2H1473.5" stroke="white" stroke-width="6" stroke-miterlimit="10" stroke-linecap="round" stroke-linejoin="round"/>
<path d="M2131 1434.5C2107 1500.3 2041.9 1562.2 1971.4 1562.2H1444.5" stroke="white" stroke-width="6" stroke-miterlimit="10" stroke-linecap="round" stroke-linejoin="round"/>
<path d="M2083.7 1421.6C2052.2 1469.5 2000.5 1507.2 1945.4 1507.2H1418.5" stroke="white" stroke-width="6" stroke-miterlimit="10" stroke-linecap="round" stroke-linejoin="round"/>
<path d="M2030.9 1406.8C2000.6 1437.3 1961.4 1457.2 1920.4 1457.2H1393.5" stroke="white" stroke-width="6" stroke-miterlimit="10" stroke-linecap="round" stroke-linejoin="round"/>
<path d="M1962.2 1386.9C1940.8 1399 1917.4 1406.2 1893.4 1406.2H1366.5" stroke="white" stroke-width="6" stroke-miterlimit="10" stroke-linecap="round" stroke-linejoin="round"/>
<path d="M1515.5 1705.2L1359.4 1393.7" stroke="white" stroke-width="6" stroke-miterlimit="10" stroke-linecap="round" stroke-linejoin="round"/>
<path d="M2297.6 1057.2C2254.6 1069.4 2212.3 1065.8 2207.8 1052.7C2203.6 1040.2 2222.6 1018.8 2261.1 1004.6C2263 1003.9 2265 1003.2 2267 1002.5C2278.6 998.6 2290.2 996.1 2301.1 994.8C2333.4 990.7 2359.7 996.5 2363 1006.3C2367.5 1019.4 2343.1 1044.3 2297.6 1057.2Z" fill="white" stroke="#3FB1B5" stroke-width="6" stroke-miterlimit="10" stroke-linejoin="round"/>
<path d="M2270.4 1348.8H2253.9L2210.6 1056.5V1056.3L2209.5 1049C2211.6 1035.7 2232.4 1016.9 2269.1 1004.7C2287.4 998.6 2305.6 995.9 2321.1 995.6L2336.9 1038.9L2338.4 1043L2388.4 1180.1C2418.4 1262 2357.7 1348.8 2270.4 1348.8Z" fill="#A0505A"/>
<path d="M2337.9 1042C2327.4 1048.6 2313.8 1054.7 2297.6 1059.3C2260.4 1069.8 2222.7 1065.5 2210.6 1056.5V1056.3L2209.5 1049C2211.6 1035.7 2232.4 1016.9 2269.1 1004.7C2287.4 998.6 2305.6 995.9 2321.1 995.6L2337.9 1042Z" fill="#73325A"/>
<path d="M1734.8 1108.3L1682.3 1238.9C1656.4 1303.4 1593.8 1345.7 1524.2 1345.7H818.5V1281.1C818.5 1265.5 828.1 1251.5 842.7 1246L915.2 1218.5C921.8 1216 928.7 1214.7 935.7 1214.7H1018L1483.8 1167.7L1564.2 983.6L1734.8 1108.3Z" fill="#A0505A"/>
<path d="M894.5 1258.2L839.8 1278.9C828.8 1283.1 821.5 1293.6 821.5 1305.4" stroke="#73325A" stroke-width="6" stroke-miterlimit="10" stroke-linecap="round"/>
<path d="M894.5 1291.2L839.8 1311.9C828.8 1316.1 821.5 1326.6 821.5 1338.4" stroke="#73325A" stroke-width="6" stroke-miterlimit="10" stroke-linecap="round"/>
<path d="M894.501 1323L839.801 1342.7" stroke="#73325A" stroke-width="6" stroke-miterlimit="10" stroke-linecap="round"/>
<path d="M888.801 1229.6C888.801 1229.6 940.001 1098.9 956.401 1101.1C972.801 1103.3 911.001 1221.2 911.001 1221.2L888.801 1229.6Z" fill="#FE5244"/>
<path d="M1564.2 983.7L1552.4 1010.6L1703.5 1186.1L1734.8 1108.3L1564.2 983.7Z" fill="#73325A"/>
<path d="M2210.6 1056.6L2272.6 1474.6L1816.7 1346.7L1734.8 1108.2L1523.4 953.7L1597.6 865.3C1663.8 786.4 1761.5 740.8 1864.5 740.8H2011C2138.4 740.8 2255.7 810.4 2316.8 922.2L2364.3 1004.4C2364.3 1004.4 2350 983.4 2272.9 1004.5C2205 1023.2 2210.6 1056.6 2210.6 1056.6Z" fill="#3FB1B5"/>
<path d="M1734.8 1106.3L1758.5 1003.5" stroke="white" stroke-width="6" stroke-miterlimit="10" stroke-linecap="round" stroke-linejoin="round"/>
<path d="M2261.1 1377L2184 897.7" stroke="white" stroke-width="6" stroke-miterlimit="10" stroke-linecap="round" stroke-linejoin="round"/>
<path d="M1816.6 1344.8L2271.6 1474.6" stroke="white" stroke-width="6" stroke-miterlimit="10" stroke-linecap="round" stroke-linejoin="round"/>
<path d="M1841.2 674V741.2L1959.8 740.2V621.6L1841.2 674Z" fill="#A0505A"/>
<path d="M1969.4 600.9V602.7C1969.4 620.7 1955.8 635.3 1937.8 635.3H1930.8C1926.3 653.1 1886.3 673.9 1857.9 673.9H1824.8C1788.6 673.9 1760.9 641.4 1766.8 605.6L1768.4 595.9L1758.6 590.4C1753 587.2 1751.4 579.9 1755.3 574.7L1776.5 546.7L1781.1 519.1C1784.8 496.4 1799.7 477.9 1819.5 468.8C1827.3 556.7 1904.9 567.1 1925.4 568.3H1936.8C1954.8 568.3 1969.4 582.9 1969.4 600.9Z" fill="#A0505A"/>
<path d="M1916.9 609.5C1916.9 595.3 1928.4 583.8 1942.6 583.8" stroke="#73325A" stroke-width="6" stroke-miterlimit="10" stroke-linecap="round"/>
<path d="M1808.5 569.2C1811.32 569.2 1813.6 563.917 1813.6 557.4C1813.6 550.883 1811.32 545.6 1808.5 545.6C1805.68 545.6 1803.4 550.883 1803.4 557.4C1803.4 563.917 1805.68 569.2 1808.5 569.2Z" fill="#73325A"/>
<path d="M1800.7 520.9C1800.7 520.9 1814.8 519.5 1829.3 539.5" stroke="#73325A" stroke-width="6" stroke-miterlimit="10" stroke-linecap="round"/>
<path d="M1925.4 568.3H1936.8C1954.8 568.3 1969.4 582.9 1969.4 600.9V602.7C1969.4 620.7 1955.8 635.3 1937.8 635.3L1930.1 640.7C1897.7 661.5 1852.9 743.3 1863.9 801.2C1876.3 866.3 1933 880.8 1985.4 870.8C2037.8 860.8 2076 830.3 2063.6 765.1C2062.2 757.4 2059.9 749.7 2057 742.1C2057.9 742.4 2058.7 742.7 2059.6 743C2122.6 760.2 2196.6 762.2 2217 713C2237.4 663.8 2232.8 615.1 2171.5 589.7C2135.9 574.9 2087.5 575 2050 585.2C2068.9 519.5 2035.3 446.4 1973.6 439.1C1876.7 427.6 1821.1 467.6 1819.6 468.7C1819.5 480.3 1827.4 562.6 1925.4 568.3Z" fill="#73325A"/>
<path d="M2052.5 582.9C2044.6 608.6 2028.3 636.1 2001.8 654.8C2001.8 654.8 2048.6 685.7 2059.6 743.1" stroke="white" stroke-width="6" stroke-miterlimit="10" stroke-linecap="round" stroke-linejoin="round"/>
<path d="M2079.7 580.7H2053.2V554.2C2053.2 540.3 2064.4 529.1 2078.3 529.1H2079.7C2093.6 529.1 2104.8 540.3 2104.8 554.2V555.6C2104.9 569.4 2093.6 580.7 2079.7 580.7Z" stroke="#FE5244" stroke-width="6" stroke-miterlimit="10" stroke-linejoin="round"/>
<path d="M2070 607.9L2053 580.9L2080 563.9C2093.5 555.4 2111.4 559.4 2119.9 572.9L2121.5 575.4C2130 588.9 2126 606.8 2112.5 615.3L2110 616.9C2096.3 625.4 2078.5 621.4 2070 607.9Z" stroke="#FE5244" stroke-width="6" stroke-miterlimit="10" stroke-linejoin="round"/>
<path d="M1913.4 656.1L1932.3 638L1950.8 658.9C1959.9 669.4 1958.7 685.3 1948.2 694.3L1947.1 695.2C1936.6 704.3 1920.7 703.1 1911.7 692.6L1910.8 691.5C1901.7 681.1 1902.9 665.2 1913.4 656.1Z" stroke="#FE5244" stroke-width="6" stroke-miterlimit="10" stroke-linejoin="round"/>
<path d="M1941 669.1L1932.5 638.4L1963.2 629.9C1978.6 625.6 1994.5 634.6 1998.8 650L1999.6 652.9C2003.9 668.3 1994.9 684.2 1979.5 688.5L1976.6 689.3C1961.2 693.5 1945.3 684.4 1941 669.1Z" stroke="#FE5244" stroke-width="6" stroke-miterlimit="10" stroke-linejoin="round"/>
<path d="M1668.1 1782.1L1493.9 2597.4" stroke="#FFCF2D" stroke-width="6" stroke-miterlimit="10" stroke-linecap="round"/>
<path d="M2113.9 1782.1L2288.1 2597.4" stroke="#FFCF2D" stroke-width="6" stroke-miterlimit="10" stroke-linecap="round"/>
<path d="M1532.5 2416.4H2247.1" stroke="#FFCF2D" stroke-width="6" stroke-miterlimit="10" stroke-linecap="round"/>
<path d="M2251 1782.1H1530.9C1521.8 1782.1 1514.4 1774.7 1514.4 1765.6V1721.7C1514.4 1712.6 1521.8 1705.2 1530.9 1705.2H2251C2260.1 1705.2 2267.5 1712.6 2267.5 1721.7V1765.6C2267.5 1774.7 2260.1 1782.1 2251 1782.1Z" fill="white" stroke="#66B0F0" stroke-width="6" stroke-miterlimit="10" stroke-linejoin="round"/>
</svg>
