<svg width="1" height="1" viewBox="0 0 1 1" fill="none" xmlns="http://www.w3.org/2000/svg">
<path d="M0.39801 0.243935C0.39801 0.243935 0.493171 0.180435 0.574376 0.236698" stroke="#FFD274" stroke-width="0.00256223" stroke-miterlimit="2.28659" stroke-linecap="round" stroke-linejoin="round"/>
<path d="M0.410461 0.283551C0.43545 0.270048 0.503152 0.240451 0.565666 0.275211" stroke="#FFD274" stroke-width="0.00256223" stroke-miterlimit="2.28659" stroke-linecap="round" stroke-linejoin="round"/>
<path fill-rule="evenodd" clip-rule="evenodd" d="M0.572596 0.233162C0.57282 0.232194 0.573786 0.23159 0.574756 0.231815L0.578263 0.232626C0.57923 0.23285 0.579835 0.233818 0.579611 0.234786L0.55642 0.334987C0.556196 0.335955 0.555228 0.336558 0.554261 0.336335L0.550753 0.335523C0.549783 0.335298 0.549181 0.334331 0.549405 0.333363L0.572596 0.233162Z" fill="#A52929"/>
<path fill-rule="evenodd" clip-rule="evenodd" d="M0.400976 0.24018C0.400728 0.239218 0.399748 0.238638 0.398784 0.238886L0.395298 0.239785C0.394337 0.240033 0.393756 0.241015 0.394004 0.241977L0.419677 0.341571C0.419925 0.342534 0.420908 0.343113 0.421869 0.342865L0.425355 0.341966C0.426319 0.341718 0.426897 0.340736 0.426649 0.339774L0.400976 0.24018Z" fill="#A52929"/>
<path fill-rule="evenodd" clip-rule="evenodd" d="M0.29524 0.257433C0.29524 0.257433 0.299054 0.249985 0.304787 0.253437C0.304787 0.253437 0.307163 0.251749 0.308333 0.250918C0.308424 0.250853 0.308547 0.250854 0.308638 0.25092C0.308729 0.250986 0.308768 0.251103 0.308734 0.25121C0.308328 0.252505 0.307534 0.255038 0.307534 0.255038C0.307534 0.255038 0.312666 0.26799 0.3048 0.277445C0.302529 0.280176 0.288855 0.293959 0.275896 0.279764C0.275222 0.279025 0.274915 0.278022 0.27506 0.277031C0.275335 0.275111 0.276124 0.271903 0.278326 0.27003L0.282588 0.272501C0.280963 0.270713 0.279421 0.26886 0.278326 0.266662C0.278326 0.266662 0.275222 0.254088 0.284065 0.245204C0.284228 0.245043 0.284456 0.244969 0.284682 0.245004C0.284908 0.245039 0.285104 0.245179 0.285209 0.245382C0.286596 0.248066 0.291095 0.256189 0.29524 0.257433Z" fill="#69BAC9"/>
<path fill-rule="evenodd" clip-rule="evenodd" d="M0.27805 0.257867C0.279092 0.260054 0.281525 0.264573 0.284909 0.267178C0.28523 0.267424 0.285289 0.267884 0.285043 0.268204C0.284797 0.268524 0.284336 0.268584 0.284016 0.268338C0.281338 0.266277 0.279193 0.263027 0.277832 0.260595C0.27786 0.259626 0.277944 0.258744 0.27805 0.257867ZM0.279558 0.252017C0.280062 0.25335 0.282702 0.259943 0.286823 0.263487C0.287129 0.26375 0.287164 0.264213 0.286901 0.264519C0.286637 0.264825 0.286175 0.26486 0.285868 0.264597C0.282455 0.261662 0.279993 0.256751 0.278835 0.254101C0.27905 0.253355 0.279293 0.252661 0.279558 0.252017ZM0.282375 0.247192C0.282391 0.247224 0.282405 0.247258 0.282416 0.247292C0.282416 0.247292 0.284938 0.255036 0.289595 0.259164C0.289898 0.259432 0.289925 0.259895 0.289657 0.260197C0.28939 0.260499 0.288926 0.260528 0.288624 0.26026C0.284708 0.256789 0.282207 0.250904 0.281353 0.248657C0.281717 0.248091 0.282059 0.247609 0.282375 0.247192Z" fill="white"/>
<path fill-rule="evenodd" clip-rule="evenodd" d="M0.295227 0.257433L0.296024 0.256165C0.296024 0.256165 0.297564 0.2571 0.298871 0.257289C0.299271 0.257347 0.299549 0.257718 0.299491 0.258118C0.299434 0.258518 0.299062 0.258796 0.298662 0.258738C0.297235 0.258532 0.295227 0.257433 0.295227 0.257433Z" fill="black"/>
<path fill-rule="evenodd" clip-rule="evenodd" d="M0.278748 0.270264C0.278748 0.270264 0.282538 0.27591 0.288405 0.277102C0.288801 0.277182 0.289206 0.277147 0.289391 0.276788C0.289577 0.276429 0.289464 0.275919 0.289077 0.275801C0.284445 0.274394 0.282531 0.272432 0.282531 0.272432L0.278748 0.270264Z" fill="black"/>
<path fill-rule="evenodd" clip-rule="evenodd" d="M0.68297 0.323229C0.68297 0.323229 0.679156 0.315781 0.673424 0.319233C0.673424 0.319233 0.671047 0.317545 0.669878 0.316714C0.669786 0.316649 0.669663 0.316649 0.669572 0.316716C0.669481 0.316782 0.669443 0.316899 0.669476 0.317006C0.669882 0.318301 0.670677 0.320834 0.670677 0.320834C0.670677 0.320834 0.665545 0.333786 0.67341 0.343241C0.675681 0.345972 0.689356 0.359755 0.702315 0.34556C0.702989 0.34482 0.703296 0.343817 0.703151 0.342827C0.702876 0.340907 0.702087 0.337699 0.699884 0.335826L0.695622 0.338297C0.697248 0.336509 0.698789 0.334656 0.699884 0.332458C0.699884 0.332458 0.702988 0.319884 0.694145 0.311C0.693983 0.310839 0.693754 0.310764 0.693528 0.3108C0.693302 0.310835 0.693107 0.310975 0.693001 0.311178C0.691614 0.313862 0.687115 0.321985 0.68297 0.323229Z" fill="#69BAC9"/>
<path fill-rule="evenodd" clip-rule="evenodd" d="M0.700161 0.323663C0.699119 0.32585 0.696686 0.330369 0.693301 0.332974C0.692981 0.33322 0.692921 0.33368 0.693168 0.334C0.693414 0.33432 0.693874 0.33438 0.694194 0.334134C0.696872 0.332073 0.699018 0.328823 0.700378 0.326391C0.700351 0.325422 0.700266 0.32454 0.700161 0.323663ZM0.698653 0.317813C0.698149 0.319146 0.695509 0.325739 0.691388 0.329283C0.691081 0.329546 0.691046 0.330008 0.69131 0.330315C0.691573 0.330621 0.692036 0.330656 0.692342 0.330393C0.695755 0.327458 0.698217 0.322547 0.699376 0.319897C0.69916 0.319151 0.698918 0.318457 0.698653 0.317813ZM0.695835 0.312988C0.695819 0.31302 0.695806 0.313053 0.695794 0.313088C0.695794 0.313088 0.693273 0.320832 0.688615 0.32496C0.688313 0.325228 0.688285 0.325691 0.688553 0.325993C0.688821 0.326295 0.689284 0.326324 0.689586 0.326056C0.693502 0.322585 0.696003 0.3167 0.696857 0.314453C0.696493 0.313887 0.696151 0.313404 0.695835 0.312988Z" fill="white"/>
<path fill-rule="evenodd" clip-rule="evenodd" d="M0.682983 0.323229L0.682186 0.32196C0.682186 0.32196 0.680646 0.322896 0.67934 0.323085C0.678939 0.323143 0.678662 0.323514 0.678719 0.323914C0.678777 0.324314 0.679148 0.324592 0.679549 0.324534C0.680975 0.324328 0.682983 0.323229 0.682983 0.323229Z" fill="black"/>
<path fill-rule="evenodd" clip-rule="evenodd" d="M0.699463 0.33606C0.699463 0.33606 0.695672 0.341706 0.689805 0.342898C0.689409 0.342978 0.689005 0.342942 0.688819 0.342584C0.688633 0.342225 0.688747 0.341714 0.689133 0.341597C0.693766 0.34019 0.69568 0.338228 0.69568 0.338228L0.699463 0.33606Z" fill="black"/>
<path fill-rule="evenodd" clip-rule="evenodd" d="M0.235872 0.619538L0.236082 0.591614H0.238278L0.238068 0.620087C0.238068 0.620446 0.237893 0.620783 0.237598 0.620988C0.237598 0.620988 0.230775 0.625688 0.229092 0.632247C0.244042 0.625109 0.254049 0.622481 0.26781 0.621947C0.277049 0.621584 0.286216 0.623879 0.296031 0.627694L0.295137 0.59168L0.297333 0.591614L0.298276 0.629293C0.298286 0.629663 0.29811 0.630014 0.297806 0.630227C0.297503 0.630439 0.297113 0.630483 0.296769 0.630344C0.286676 0.626295 0.277328 0.62377 0.267896 0.624139C0.253864 0.624688 0.243826 0.627474 0.228143 0.635146C0.227789 0.635318 0.227369 0.635289 0.227043 0.635065C0.226717 0.634842 0.226535 0.634465 0.226566 0.63407C0.227148 0.62676 0.233999 0.620988 0.235872 0.619538Z" fill="#FF7867"/>
<path fill-rule="evenodd" clip-rule="evenodd" d="M0.51238 0.765453C0.511274 0.763027 0.507709 0.757851 0.496977 0.755827C0.496549 0.755746 0.496209 0.755417 0.496113 0.754992L0.487449 0.717064L0.489569 0.716431L0.498094 0.75381C0.513482 0.75698 0.515001 0.766357 0.515001 0.766357C0.515056 0.766676 0.514968 0.767005 0.514759 0.767254C0.51455 0.767503 0.514243 0.76765 0.513917 0.76765H0.438401C0.4379 0.76765 0.437464 0.767309 0.437336 0.766826L0.428833 0.734575L0.430843 0.733971L0.43925 0.765453H0.51238Z" fill="#FF7867"/>
<path fill-rule="evenodd" clip-rule="evenodd" d="M0.236045 0.591616H0.297327V0.481508L0.380201 0.536348L0.428799 0.734592L0.489535 0.716447L0.447686 0.488774L0.359015 0.430791C0.359015 0.430791 0.320133 0.410756 0.285615 0.392969C0.274574 0.38728 0.26136 0.387795 0.250794 0.394325C0.240229 0.400854 0.23386 0.412444 0.234011 0.424863C0.234827 0.491711 0.236045 0.591616 0.236045 0.591616Z" fill="#668DDB"/>
<path fill-rule="evenodd" clip-rule="evenodd" d="M0.395634 0.454712L0.397475 0.455914L0.388171 0.470747L0.393119 0.474694L0.403002 0.45953L0.40484 0.460732L0.394298 0.476906C0.39413 0.477165 0.393859 0.477341 0.393551 0.477391C0.393247 0.47744 0.392936 0.477358 0.392691 0.477165L0.386033 0.471853C0.385597 0.471505 0.385491 0.470884 0.385788 0.470411L0.395623 0.454729L0.395634 0.454712Z" fill="#3768BE"/>
<path fill-rule="evenodd" clip-rule="evenodd" d="M0.251708 0.395324C0.251336 0.395132 0.250887 0.39517 0.250551 0.39542C0.237894 0.404836 0.236943 0.415601 0.236943 0.415601C0.236906 0.416002 0.23709 0.416391 0.237425 0.416616C0.237759 0.41684 0.23819 0.416863 0.238547 0.416676C0.238806 0.416541 0.239186 0.41654 0.239636 0.416567C0.240267 0.416603 0.241003 0.416739 0.241787 0.416933C0.245699 0.4179 0.250735 0.420292 0.250735 0.420292C0.251 0.420417 0.251305 0.420432 0.251581 0.420332C0.251857 0.420232 0.252081 0.420025 0.252203 0.419759C0.255648 0.412278 0.263129 0.406609 0.263129 0.406609C0.263365 0.40643 0.263518 0.406163 0.263555 0.40587C0.263591 0.405576 0.263507 0.40528 0.263322 0.405048C0.258209 0.398661 0.251708 0.395324 0.251708 0.395324ZM0.251299 0.397607C0.242726 0.404206 0.240147 0.411366 0.239409 0.414362C0.240233 0.414371 0.241236 0.414535 0.242314 0.414801C0.245323 0.415545 0.248969 0.41709 0.250688 0.417857C0.2537 0.411991 0.258851 0.407311 0.260911 0.405581C0.257157 0.401202 0.25285 0.398501 0.251299 0.397607Z" fill="#3768BE"/>
<path fill-rule="evenodd" clip-rule="evenodd" d="M0.235928 0.581725L0.235901 0.579529H0.29733V0.581725H0.28166V0.591626H0.279464V0.581725H0.27673V0.591626H0.274534V0.581725H0.249178V0.591626H0.246982V0.581725H0.235928Z" fill="#3768BE"/>
<path fill-rule="evenodd" clip-rule="evenodd" d="M0.487724 0.706543L0.488123 0.708714L0.467965 0.714427L0.471007 0.721854L0.468888 0.722473L0.465839 0.715031L0.464159 0.715507L0.466776 0.723088L0.464667 0.723706L0.462043 0.716107L0.441036 0.722063L0.443544 0.729874L0.441435 0.730489L0.438921 0.722663L0.426732 0.726118L0.426208 0.723984L0.487724 0.706543Z" fill="#3768BE"/>
<path fill-rule="evenodd" clip-rule="evenodd" d="M0.445471 0.615113C0.445185 0.615167 0.444933 0.615336 0.444768 0.615577C0.444607 0.615819 0.444545 0.616115 0.4446 0.616401L0.44811 0.634395C0.448165 0.634684 0.448333 0.634937 0.448578 0.635098C0.448824 0.635263 0.449124 0.635321 0.449409 0.635263L0.466686 0.631694C0.466972 0.631635 0.467224 0.631467 0.467381 0.631222C0.467543 0.630976 0.467597 0.63068 0.467539 0.630394L0.463798 0.612686C0.463674 0.6121 0.463103 0.611723 0.462517 0.611837L0.445471 0.615113ZM0.446968 0.617064L0.450054 0.632887L0.46516 0.629768L0.461873 0.614197L0.446968 0.617064Z" fill="#3768BE"/>
<path fill-rule="evenodd" clip-rule="evenodd" d="M0.438477 0.477637C0.440614 0.489842 0.450519 0.527633 0.481731 0.522831C0.492422 0.521184 0.511324 0.511835 0.509999 0.47352C0.508586 0.432488 0.507774 0.403844 0.503495 0.372266C0.502836 0.367377 0.501116 0.362786 0.49904 0.360064C0.497093 0.357512 0.494758 0.358017 0.495662 0.361652C0.491398 0.356562 0.486698 0.356804 0.488122 0.360609C0.488122 0.360609 0.48228 0.358218 0.484421 0.363927C0.484421 0.363927 0.479428 0.362594 0.481225 0.367145C0.482807 0.371144 0.481837 0.38539 0.481079 0.386157C0.480054 0.387189 0.47956 0.382215 0.475779 0.379251C0.474593 0.378323 0.472536 0.377718 0.472583 0.382727C0.472583 0.382727 0.46934 0.435586 0.462741 0.469678L0.438477 0.477637Z" fill="#E0755E"/>
<path fill-rule="evenodd" clip-rule="evenodd" d="M0.48751 0.39383C0.486961 0.392694 0.486229 0.391612 0.485544 0.39071C0.484516 0.389355 0.483282 0.388228 0.481935 0.387195C0.481837 0.387118 0.48053 0.386214 0.48053 0.386214C0.480984 0.386473 0.48132 0.385785 0.481368 0.385254C0.481529 0.385363 0.482667 0.386067 0.482752 0.386133C0.48419 0.387238 0.485508 0.388449 0.48661 0.389901C0.487221 0.390705 0.487858 0.391643 0.488392 0.392637C0.490083 0.390666 0.492547 0.38925 0.495072 0.388992C0.495442 0.388955 0.495771 0.389222 0.495808 0.38959C0.495845 0.389958 0.495577 0.390287 0.495211 0.390324C0.492817 0.390568 0.490493 0.392016 0.489033 0.393974C0.48934 0.394717 0.489567 0.39547 0.489666 0.396206C0.489728 0.396678 0.489629 0.397905 0.489219 0.398582C0.489003 0.398933 0.488714 0.399161 0.488381 0.399246C0.488059 0.399328 0.48766 0.399292 0.487203 0.398968C0.486573 0.398524 0.486331 0.397816 0.486364 0.397025C0.486401 0.396094 0.486837 0.395045 0.487148 0.394456C0.487261 0.394244 0.487382 0.394035 0.48751 0.39383ZM0.488143 0.395463C0.487938 0.395922 0.487726 0.396526 0.4877 0.39708C0.487689 0.397394 0.487722 0.397698 0.487971 0.397874C0.487993 0.397889 0.488022 0.397904 0.488044 0.397916C0.488081 0.397859 0.488136 0.397763 0.488165 0.397691C0.488334 0.397242 0.488374 0.396641 0.488337 0.396383C0.488297 0.396079 0.488231 0.395771 0.488143 0.395463Z" fill="#A52929"/>
<path fill-rule="evenodd" clip-rule="evenodd" d="M0.484413 0.363919L0.48397 0.362244C0.48397 0.362244 0.48785 0.367963 0.489022 0.379765C0.489073 0.380267 0.488714 0.38072 0.488213 0.380774C0.487711 0.38083 0.487243 0.380468 0.487203 0.379965C0.486405 0.370141 0.483169 0.363517 0.482971 0.363742L0.484413 0.363919Z" fill="#A52929" fill-opacity="0.86"/>
<path fill-rule="evenodd" clip-rule="evenodd" d="M0.488161 0.358276C0.487733 0.358859 0.487824 0.359681 0.488106 0.360589L0.487305 0.360329C0.487305 0.360329 0.492136 0.369819 0.492345 0.37927C0.492356 0.379775 0.492773 0.380176 0.493278 0.380165C0.493783 0.380154 0.494186 0.379735 0.494175 0.37923C0.493926 0.36796 0.488161 0.358276 0.488161 0.358276Z" fill="#A52929" fill-opacity="0.86"/>
<path fill-rule="evenodd" clip-rule="evenodd" d="M0.495485 0.359645C0.495412 0.360015 0.495481 0.360717 0.495639 0.361647C0.495064 0.36076 0.494343 0.36009 0.49353 0.359558C0.49353 0.359558 0.497677 0.372496 0.498047 0.379295C0.498076 0.3798 0.498508 0.380187 0.49901 0.380159C0.499515 0.380132 0.499903 0.3797 0.499874 0.379196C0.499515 0.372622 0.495485 0.359645 0.495485 0.359645Z" fill="#A52929" fill-opacity="0.86"/>
<path fill-rule="evenodd" clip-rule="evenodd" d="M0.458252 0.471139C0.458252 0.471139 0.458461 0.47772 0.458713 0.485633C0.458739 0.48639 0.45935 0.486995 0.460108 0.487011C0.460862 0.487027 0.461499 0.486448 0.461557 0.485693C0.462198 0.477052 0.462743 0.469666 0.462743 0.469666L0.458252 0.471139Z" fill="#A52929"/>
<path fill-rule="evenodd" clip-rule="evenodd" d="M0.407959 0.382859L0.411396 0.377654C0.411396 0.377654 0.411231 0.377437 0.41096 0.377076C0.407443 0.372403 0.407311 0.366003 0.410635 0.361191C0.415338 0.354374 0.422955 0.346483 0.431894 0.349172C0.431894 0.349172 0.446078 0.354681 0.441484 0.368329L0.440902 0.37085C0.440902 0.37085 0.446136 0.373398 0.441484 0.377654C0.441484 0.377654 0.437813 0.38095 0.434851 0.378992L0.433193 0.395918C0.433193 0.395918 0.414266 0.399942 0.407959 0.382859Z" fill="#E0755E"/>
<path fill-rule="evenodd" clip-rule="evenodd" d="M0.411484 0.377625L0.4104 0.379323C0.4104 0.379323 0.411916 0.380587 0.412915 0.381197C0.415693 0.382898 0.419815 0.384353 0.425737 0.384179C0.426341 0.384161 0.426821 0.383655 0.426802 0.383049C0.426784 0.382443 0.426275 0.381966 0.425671 0.381984C0.420313 0.382142 0.416575 0.380862 0.414061 0.379323C0.413116 0.378747 0.411484 0.377625 0.411484 0.377625Z" fill="#A52929"/>
<path fill-rule="evenodd" clip-rule="evenodd" d="M0.440925 0.370898L0.441456 0.368675C0.441456 0.368675 0.440548 0.368425 0.439999 0.36841C0.438689 0.368375 0.43691 0.368837 0.434256 0.370641C0.433755 0.370982 0.433627 0.371666 0.433967 0.372167C0.434308 0.372668 0.434992 0.372798 0.435494 0.372457C0.437565 0.371046 0.438916 0.370578 0.439941 0.370605C0.440453 0.370619 0.440925 0.370898 0.440925 0.370898Z" fill="#A52929"/>
<path fill-rule="evenodd" clip-rule="evenodd" d="M0.432549 0.380083L0.434588 0.381641L0.434968 0.379016L0.434028 0.378461C0.433581 0.378052 0.432886 0.378084 0.432476 0.378532C0.432069 0.378979 0.432099 0.379674 0.432549 0.380083Z" fill="#A52929"/>
<path fill-rule="evenodd" clip-rule="evenodd" d="M0.42063 0.368647C0.419515 0.369365 0.418728 0.37086 0.419669 0.372021C0.420267 0.372757 0.421176 0.373047 0.422182 0.373028C0.423435 0.373005 0.424842 0.372493 0.4257 0.372098C0.426066 0.371928 0.426224 0.371493 0.426057 0.371127C0.425886 0.37076 0.425453 0.3706 0.425086 0.370769C0.42437 0.3711 0.4232 0.371546 0.422153 0.371565C0.421623 0.371575 0.421122 0.371487 0.420807 0.371099C0.420675 0.370939 0.420694 0.370757 0.420768 0.370592C0.420894 0.370304 0.421154 0.37005 0.42142 0.369877C0.421761 0.369658 0.421861 0.369205 0.421639 0.368865C0.42142 0.368526 0.420967 0.368428 0.42063 0.368647Z" fill="#A52929"/>
<path fill-rule="evenodd" clip-rule="evenodd" d="M0.425693 0.372068C0.427817 0.371086 0.427563 0.369078 0.426712 0.368295C0.426121 0.367753 0.425205 0.367522 0.424206 0.367557C0.422889 0.367604 0.42143 0.368095 0.420623 0.368617C0.420283 0.368836 0.420186 0.369289 0.420405 0.369628C0.420623 0.369968 0.421076 0.370065 0.421414 0.369847C0.422056 0.369433 0.423213 0.369057 0.424257 0.36902C0.424836 0.368999 0.425382 0.36906 0.425722 0.369373C0.42605 0.369674 0.425899 0.37036 0.42508 0.370739C0.42471 0.370909 0.424553 0.371344 0.42472 0.37171C0.42489 0.372077 0.425324 0.372237 0.425693 0.372068Z" fill="#A52929"/>
<path fill-rule="evenodd" clip-rule="evenodd" d="M0.373406 0.3765C0.373406 0.3765 0.385576 0.374499 0.407871 0.384022C0.408055 0.3841 0.408585 0.384354 0.408585 0.384354L0.408014 0.382813L0.40838 0.382237C0.40838 0.382237 0.408055 0.382124 0.407871 0.382046C0.38472 0.372149 0.372934 0.374355 0.372934 0.374355C0.372341 0.374485 0.371967 0.375072 0.372095 0.375663C0.372227 0.376255 0.372813 0.37663 0.373406 0.3765Z" fill="black"/>
<path fill-rule="evenodd" clip-rule="evenodd" d="M0.433379 0.393677L0.433167 0.395883C0.433167 0.395883 0.433419 0.395988 0.433558 0.396045C0.438877 0.39829 0.453935 0.406172 0.467511 0.427705C0.467746 0.42808 0.468218 0.428843 0.468218 0.428843L0.468602 0.425264C0.468602 0.425264 0.468386 0.425001 0.468218 0.424745C0.454224 0.403425 0.438968 0.395855 0.433917 0.393816C0.433789 0.393765 0.433379 0.393677 0.433379 0.393677Z" fill="black"/>
<path fill-rule="evenodd" clip-rule="evenodd" d="M0.361251 0.43075L0.368073 0.426874C0.368549 0.426497 0.368626 0.425806 0.368249 0.425331C0.367872 0.424857 0.367254 0.424309 0.366778 0.424686L0.359558 0.428824L0.361251 0.43075Z" fill="black"/>
<path fill-rule="evenodd" clip-rule="evenodd" d="M0.363303 0.407078L0.36912 0.437456L0.371704 0.439115L0.365456 0.406643C0.365336 0.406049 0.364756 0.405664 0.364162 0.405784C0.363568 0.405904 0.363183 0.406484 0.363303 0.407078Z" fill="black"/>
<path fill-rule="evenodd" clip-rule="evenodd" d="M0.430804 0.450332L0.435625 0.48089L0.439615 0.483495L0.432964 0.449936C0.432854 0.449339 0.432283 0.448944 0.431687 0.449054C0.43109 0.449164 0.430695 0.449737 0.430804 0.450332Z" fill="black"/>
<path fill-rule="evenodd" clip-rule="evenodd" d="M0.430054 0.477212L0.430994 0.449829C0.434746 0.460014 0.436459 0.471602 0.438377 0.482656C0.435562 0.48079 0.432832 0.479045 0.430054 0.477212Z" fill="black"/>
<path fill-rule="evenodd" clip-rule="evenodd" d="M0.406707 0.290955C0.358432 0.322545 0.336573 0.3387 0.297812 0.382221C0.288011 0.393201 0.285794 0.409006 0.292195 0.422259C0.293543 0.425018 0.295222 0.427886 0.297328 0.430815C0.297328 0.430815 0.297328 0.430815 0.297329 0.430815C0.308399 0.446206 0.329473 0.450438 0.345626 0.440515C0.35404 0.435346 0.361415 0.430815 0.361415 0.430815L0.340816 0.407595L0.417984 0.330885C0.417984 0.330885 0.424089 0.327088 0.42458 0.332311C0.42458 0.332311 0.429639 0.332131 0.4288 0.324322C0.4288 0.324322 0.433983 0.320647 0.430964 0.315161C0.430964 0.315161 0.434049 0.308635 0.4288 0.304151C0.4288 0.304151 0.429133 0.297911 0.422596 0.296008C0.422596 0.296008 0.415371 0.293595 0.408226 0.296008L0.406707 0.290955Z" fill="#E0755E"/>
<path fill-rule="evenodd" clip-rule="evenodd" d="M0.340508 0.407227L0.341965 0.40887L0.329533 0.420136C0.329084 0.420543 0.328389 0.420509 0.327982 0.42006C0.327575 0.419611 0.327609 0.418916 0.328058 0.418509L0.340508 0.407227Z" fill="#A52929"/>
<path fill-rule="evenodd" clip-rule="evenodd" d="M0.428819 0.324576C0.427479 0.32222 0.42491 0.321394 0.4223 0.321189C0.417743 0.320832 0.41297 0.322405 0.41297 0.322405C0.412391 0.322594 0.411773 0.32228 0.411582 0.321704C0.411392 0.321128 0.411707 0.320507 0.412282 0.320318C0.412282 0.320318 0.417497 0.31861 0.422472 0.319C0.425554 0.319241 0.428515 0.320286 0.430301 0.322819C0.42973 0.323462 0.428819 0.324303 0.428819 0.324303V0.324576ZM0.430828 0.315261C0.42223 0.308926 0.410839 0.31377 0.410839 0.31377C0.410279 0.314005 0.409635 0.313742 0.409401 0.313184C0.409167 0.312625 0.40943 0.311981 0.409986 0.311746C0.409986 0.311746 0.422153 0.306667 0.431619 0.313132C0.431484 0.313755 0.431213 0.314763 0.430828 0.315261ZM0.428819 0.304212C0.417937 0.299711 0.407285 0.305408 0.407285 0.305408C0.406751 0.305693 0.406085 0.305491 0.405799 0.304956C0.405514 0.304421 0.405715 0.303756 0.406249 0.30347C0.406249 0.30347 0.417073 0.297702 0.428486 0.301735C0.42861 0.302266 0.428899 0.303575 0.428819 0.304212ZM0.407644 0.294006C0.407809 0.294558 0.408153 0.295738 0.408262 0.296123L0.403295 0.298074C0.402732 0.298296 0.402091 0.298018 0.401872 0.297454C0.401648 0.29689 0.401926 0.296252 0.40249 0.296031L0.407644 0.294006Z" fill="#A52929"/>
<path fill-rule="evenodd" clip-rule="evenodd" d="M0.5504 0.330152C0.550268 0.331408 0.549697 0.332578 0.54879 0.333457C0.548094 0.334137 0.547256 0.334567 0.546513 0.333922C0.546004 0.333482 0.545246 0.330531 0.544972 0.329354C0.544972 0.329354 0.544093 0.32647 0.54614 0.323487C0.54614 0.323487 0.542084 0.320578 0.545858 0.316168C0.545858 0.316168 0.543471 0.311279 0.547626 0.308442C0.547626 0.308442 0.544796 0.303723 0.551916 0.299119C0.55402 0.297759 0.560305 0.292185 0.571926 0.299898L0.603888 0.321207L0.583244 0.353555C0.583244 0.353555 0.555806 0.327125 0.553478 0.326698C0.553478 0.326698 0.550876 0.325273 0.5504 0.330152Z" fill="#A52929"/>
<path fill-rule="evenodd" clip-rule="evenodd" d="M0.544861 0.321882C0.546482 0.320183 0.549341 0.317652 0.553097 0.317604C0.555534 0.317573 0.558111 0.318347 0.560926 0.321359C0.561409 0.321876 0.561559 0.322458 0.561043 0.322941C0.560527 0.323424 0.559714 0.323396 0.559231 0.32288C0.557068 0.320565 0.555 0.319714 0.553126 0.319738C0.550007 0.319778 0.547368 0.32217 0.546149 0.323539C0.545128 0.322838 0.545062 0.322456 0.544861 0.321882ZM0.545278 0.3139C0.545322 0.314977 0.545439 0.315198 0.545889 0.316117C0.545889 0.316117 0.548276 0.313526 0.550472 0.312649C0.553064 0.311615 0.556592 0.311476 0.561171 0.313694C0.561808 0.314002 0.562577 0.313735 0.562884 0.313099C0.563192 0.312463 0.562837 0.312031 0.5622 0.311723C0.556739 0.309079 0.552793 0.30968 0.549703 0.310913C0.547881 0.311641 0.545278 0.3139 0.545278 0.3139ZM0.547119 0.306549C0.547167 0.307651 0.547266 0.307345 0.547573 0.308425C0.547573 0.308425 0.547844 0.308265 0.547939 0.308189C0.550699 0.305992 0.556636 0.302642 0.563858 0.306214C0.564491 0.306527 0.56508 0.306412 0.565395 0.305779C0.56571 0.305145 0.565304 0.304811 0.564671 0.304498C0.557068 0.300739 0.551094 0.303788 0.547533 0.306258C0.547423 0.306332 0.547119 0.306549 0.547119 0.306549Z" fill="black"/>
<path fill-rule="evenodd" clip-rule="evenodd" d="M0.470847 0.422124C0.470847 0.422124 0.470082 0.375169 0.47767 0.37064C0.47767 0.37064 0.480294 0.370087 0.480887 0.374958C0.480887 0.374958 0.490276 0.360004 0.496235 0.35773C0.497168 0.357374 0.499965 0.356915 0.499269 0.360224C0.499269 0.360224 0.502845 0.359008 0.503295 0.363549C0.503295 0.363549 0.507373 0.363584 0.506747 0.367925C0.506747 0.367925 0.5107 0.369199 0.508497 0.373663C0.508497 0.373663 0.49924 0.389352 0.505561 0.423646L0.470847 0.422124Z" fill="#A52929"/>
<path fill-rule="evenodd" clip-rule="evenodd" d="M0.506759 0.36793C0.506975 0.367964 0.507766 0.368224 0.508293 0.369042C0.506829 0.370221 0.502535 0.374219 0.496547 0.384233C0.496287 0.384666 0.495723 0.384808 0.495291 0.384548C0.494856 0.384289 0.494717 0.383727 0.494977 0.383293C0.500544 0.373986 0.504823 0.369605 0.506759 0.36793ZM0.480321 0.372604C0.480577 0.373229 0.480782 0.37428 0.480895 0.374987C0.479168 0.377784 0.478366 0.380909 0.478366 0.380909C0.478238 0.381398 0.47774 0.381693 0.47725 0.381567C0.476763 0.381441 0.476466 0.380942 0.476591 0.380453C0.476591 0.380453 0.477693 0.376192 0.480068 0.372934C0.480108 0.372878 0.480269 0.372647 0.480321 0.372604ZM0.503194 0.363553C0.503439 0.363533 0.504431 0.363589 0.505207 0.364132C0.503308 0.365996 0.495943 0.373419 0.491569 0.380709C0.491309 0.381142 0.490749 0.381283 0.490313 0.381023C0.489882 0.380763 0.489739 0.380201 0.489999 0.379768C0.494021 0.37306 0.500518 0.36624 0.503194 0.363553ZM0.499281 0.360166C0.499603 0.360081 0.501133 0.359814 0.501756 0.360528C0.499117 0.362511 0.492447 0.368419 0.487297 0.378139C0.487059 0.378586 0.486507 0.378756 0.48606 0.37852C0.485614 0.378283 0.485442 0.377729 0.485679 0.377283C0.490255 0.368646 0.496002 0.362922 0.499281 0.360166Z" fill="black"/>
<path fill-rule="evenodd" clip-rule="evenodd" d="M0.588362 0.36846C0.588362 0.36846 0.573852 0.418782 0.510254 0.432462C0.510254 0.432462 0.514972 0.412906 0.541784 0.397641L0.541176 0.381335C0.541176 0.381335 0.532706 0.383978 0.532589 0.376155C0.532553 0.373958 0.534815 0.373036 0.536455 0.372293C0.536455 0.372293 0.540232 0.379789 0.54719 0.376722C0.549961 0.3755 0.555107 0.368468 0.556092 0.356954C0.556092 0.356954 0.560232 0.35855 0.560686 0.355225C0.560686 0.355225 0.563329 0.361803 0.565327 0.366787C0.566649 0.370072 0.565748 0.373832 0.563083 0.376163L0.564756 0.381553C0.564756 0.381553 0.577659 0.366467 0.588362 0.36846Z" fill="#A52929"/>
<path fill-rule="evenodd" clip-rule="evenodd" d="M0.557113 0.369998C0.556476 0.370284 0.555832 0.370719 0.555429 0.371234C0.554913 0.371895 0.554741 0.372674 0.555191 0.373505C0.555572 0.374202 0.556238 0.374588 0.557007 0.374715C0.558002 0.37488 0.559166 0.374582 0.559869 0.374111C0.560206 0.373886 0.560297 0.373432 0.56007 0.373096C0.559847 0.37276 0.559393 0.372669 0.559056 0.372894C0.558683 0.373144 0.558101 0.373309 0.557556 0.373298C0.55712 0.37329 0.556684 0.373185 0.556479 0.372806C0.556344 0.372559 0.556432 0.372332 0.556586 0.372135C0.556849 0.371794 0.557288 0.371523 0.557709 0.371334C0.558079 0.371169 0.558244 0.370735 0.558079 0.370367C0.557914 0.369998 0.557479 0.369833 0.557113 0.369998Z" fill="black"/>
<path fill-rule="evenodd" clip-rule="evenodd" d="M0.55983 0.374134C0.560189 0.373895 0.560709 0.373514 0.561068 0.373041C0.561536 0.372421 0.561748 0.371667 0.561324 0.370834C0.561049 0.3703 0.560526 0.36992 0.559852 0.369743C0.559029 0.369526 0.557967 0.369619 0.557074 0.37002C0.556704 0.370186 0.55654 0.370619 0.556704 0.370988C0.556869 0.371357 0.557305 0.371522 0.557671 0.371356C0.558253 0.371095 0.558945 0.371017 0.559479 0.371159C0.559713 0.37122 0.559926 0.371314 0.560021 0.3715C0.560149 0.371751 0.560043 0.371971 0.5599 0.372158C0.559647 0.372491 0.55927 0.372748 0.559018 0.372916C0.558681 0.373141 0.55859 0.373596 0.558817 0.373932C0.55904 0.374268 0.559494 0.374358 0.55983 0.374134Z" fill="black"/>
<path fill-rule="evenodd" clip-rule="evenodd" d="M0.563125 0.376221L0.563605 0.377774C0.561423 0.379802 0.557569 0.382571 0.552642 0.382777C0.552239 0.382794 0.551895 0.38248 0.551881 0.382076C0.551862 0.381673 0.552177 0.381331 0.55258 0.381314C0.55751 0.381108 0.561262 0.378089 0.563125 0.376221Z" fill="black"/>
<path fill-rule="evenodd" clip-rule="evenodd" d="M0.565648 0.384485L0.564758 0.38153C0.564758 0.38153 0.565278 0.381011 0.565886 0.380371L0.567042 0.384045C0.567163 0.384431 0.566951 0.384842 0.566563 0.384963C0.566179 0.385085 0.565769 0.38487 0.565648 0.384485Z" fill="black"/>
<path fill-rule="evenodd" clip-rule="evenodd" d="M0.534067 0.364663C0.530934 0.365942 0.527343 0.366292 0.524008 0.365888C0.516794 0.365015 0.510355 0.36058 0.505579 0.355297C0.502116 0.351468 0.499455 0.346923 0.494949 0.34418C0.488785 0.34043 0.482131 0.343096 0.47556 0.344107C0.464309 0.34584 0.451483 0.343458 0.445425 0.332724C0.4438 0.329851 0.44291 0.32662 0.442768 0.323325C0.442596 0.31939 0.443631 0.315413 0.445352 0.311894C0.450725 0.300898 0.463891 0.293473 0.475967 0.297493C0.481721 0.299407 0.486483 0.303622 0.490154 0.308341C0.493434 0.312557 0.495553 0.317406 0.497998 0.322116C0.499162 0.324356 0.500458 0.327406 0.502815 0.328646C0.505517 0.330065 0.508112 0.327661 0.509949 0.32592C0.513342 0.322708 0.517208 0.319048 0.522083 0.318521C0.527592 0.317926 0.531362 0.322299 0.533873 0.326616C0.538419 0.334436 0.54015 0.342518 0.540656 0.35123C0.541893 0.350401 0.54335 0.349649 0.545055 0.349002C0.545055 0.349002 0.557464 0.345653 0.560681 0.355217C0.560681 0.355217 0.560451 0.359124 0.556087 0.356947C0.556087 0.356947 0.55668 0.374548 0.545366 0.377303C0.543467 0.377765 0.539671 0.378114 0.535875 0.372545C0.535875 0.372545 0.534265 0.369071 0.534067 0.364663Z" fill="black"/>
<path d="M0.66803 0.598402V0.623054C0.66803 0.623054 0.72807 0.620327 0.740017 0.630605C0.740017 0.630605 0.743685 0.624991 0.730343 0.61816V0.580627" stroke="#668DDB" stroke-width="0.00219619" stroke-miterlimit="2.28659" stroke-linecap="round" stroke-linejoin="round"/>
<path fill-rule="evenodd" clip-rule="evenodd" d="M0.482035 0.761503L0.488148 0.735413C0.48895 0.735566 0.489685 0.735731 0.490282 0.735921L0.484004 0.762708C0.483902 0.763143 0.483547 0.763473 0.483104 0.763539C0.483104 0.763539 0.477647 0.764384 0.472335 0.767188C0.469371 0.768751 0.466439 0.770921 0.464586 0.773934H0.540194L0.545125 0.750211L0.547207 0.750643L0.54216 0.775255C0.542054 0.775764 0.541603 0.77613 0.541084 0.77613H0.462767C0.462398 0.77613 0.46205 0.775943 0.461849 0.775629C0.461644 0.775317 0.461614 0.774926 0.461764 0.774585C0.463679 0.770292 0.467449 0.767279 0.47131 0.765244C0.475758 0.762902 0.480297 0.761847 0.482035 0.761503Z" fill="#668DDB"/>
<path fill-rule="evenodd" clip-rule="evenodd" d="M0.729252 0.579819V0.446729C0.729252 0.431852 0.721749 0.417979 0.709296 0.409837C0.696847 0.401694 0.68113 0.400381 0.667503 0.406345C0.639962 0.418394 0.607741 0.433459 0.607741 0.433459C0.607188 0.433702 0.606536 0.433449 0.606295 0.432893C0.606053 0.432338 0.606306 0.43169 0.606862 0.431447C0.606862 0.431447 0.639084 0.416382 0.666621 0.404333C0.680929 0.398072 0.697429 0.399451 0.7105 0.407999C0.723571 0.416547 0.731448 0.431111 0.731448 0.446729V0.580646C0.731448 0.580877 0.731463 0.581496 0.731463 0.581496C0.731463 0.581496 0.730899 0.581631 0.730651 0.5817L0.668337 0.599479C0.668011 0.59957 0.666972 0.599834 0.666972 0.599834C0.666972 0.599834 0.666954 0.598802 0.666939 0.598465L0.662488 0.487554L0.608143 0.516521L0.547521 0.749757C0.547448 0.750039 0.547232 0.750687 0.547232 0.750687C0.547232 0.750687 0.546463 0.750617 0.546181 0.750544L0.489311 0.735683L0.488173 0.735456C0.486562 0.733977 0.511555 0.602667 0.52027 0.534222C0.529703 0.460129 0.559703 0.456035 0.56001 0.456416C0.560614 0.456358 0.561152 0.456799 0.561211 0.457402C0.561269 0.458005 0.560826 0.458543 0.560222 0.458602C0.560222 0.458602 0.55135 0.462116 0.544113 0.471149C0.536573 0.480562 0.52792 0.49878 0.523282 0.533933C0.514157 0.603146 0.499025 0.672788 0.490808 0.733802L0.545673 0.748139L0.606137 0.515504C0.606214 0.515203 0.606416 0.514954 0.606686 0.514808L0.662997 0.484793C0.66333 0.484615 0.663733 0.484621 0.664058 0.484809C0.664388 0.484997 0.664596 0.48534 0.664611 0.485718L0.669077 0.596982L0.729252 0.579819Z" fill="#FF7766"/>
<path fill-rule="evenodd" clip-rule="evenodd" d="M0.541875 0.746604C0.541594 0.746245 0.541315 0.745864 0.541048 0.745462C0.538087 0.741 0.536089 0.733822 0.536089 0.725711C0.536089 0.717596 0.538087 0.710418 0.541048 0.705956C0.543442 0.702354 0.546524 0.700429 0.549716 0.700429C0.552911 0.700429 0.555993 0.702354 0.558387 0.705956C0.558424 0.706014 0.55846 0.706069 0.558497 0.706128L0.556491 0.71388C0.555851 0.711918 0.555049 0.710194 0.554119 0.708793C0.552845 0.706878 0.551414 0.705553 0.549716 0.705553C0.548021 0.705553 0.54659 0.706878 0.545316 0.708793C0.542783 0.712607 0.541213 0.718774 0.541213 0.725711C0.541213 0.732643 0.542783 0.738814 0.545316 0.742625C0.54622 0.743983 0.547201 0.745048 0.548303 0.745549L0.547684 0.747951L0.541875 0.746604ZM0.495269 0.704001C0.502059 0.700674 0.508837 0.699309 0.513863 0.699832C0.518168 0.700279 0.521304 0.702112 0.522787 0.704942C0.524269 0.707768 0.523995 0.711395 0.521916 0.715187C0.519343 0.71988 0.513911 0.724986 0.506725 0.728752C0.500982 0.731765 0.495177 0.733368 0.490356 0.733606L0.491217 0.728419C0.495151 0.728046 0.499763 0.726618 0.504346 0.724213C0.510488 0.720992 0.515221 0.716735 0.517421 0.712724C0.518526 0.710707 0.519039 0.708822 0.518248 0.707321C0.517461 0.705817 0.51562 0.705165 0.513336 0.704931C0.508783 0.704455 0.502589 0.70593 0.496447 0.709148C0.495679 0.709554 0.494928 0.709975 0.494207 0.710407L0.495269 0.704001ZM0.503933 0.651794C0.504778 0.65167 0.505671 0.651615 0.506616 0.651633C0.511967 0.651732 0.519009 0.65417 0.525682 0.658785C0.532355 0.663397 0.537124 0.669126 0.539108 0.6741C0.540697 0.678082 0.540547 0.681691 0.538768 0.684312L0.538728 0.684375C0.536912 0.686999 0.533574 0.688437 0.529247 0.688361C0.523896 0.688258 0.516854 0.68582 0.510181 0.681205C0.506242 0.678485 0.502966 0.675374 0.500536 0.672259L0.501799 0.664656C0.503647 0.668741 0.507684 0.673251 0.513094 0.676992C0.518801 0.680934 0.524767 0.683152 0.529343 0.683236C0.531641 0.683276 0.533548 0.682855 0.534511 0.681461C0.535477 0.680063 0.535199 0.678134 0.53435 0.675996C0.532651 0.671746 0.528471 0.666944 0.522769 0.663002C0.517066 0.659056 0.511096 0.656842 0.50652 0.656757C0.505188 0.656732 0.503987 0.656864 0.503028 0.657248L0.503933 0.651794ZM0.556466 0.671183C0.553329 0.670769 0.550532 0.668485 0.54861 0.664649C0.546213 0.659861 0.545104 0.652493 0.546089 0.64444C0.547077 0.636388 0.549936 0.629503 0.553416 0.62544C0.556231 0.622153 0.559526 0.620615 0.562695 0.621003C0.565862 0.621391 0.568687 0.623683 0.570627 0.627548C0.573025 0.632336 0.574134 0.639704 0.573146 0.647757C0.572157 0.655809 0.569302 0.662691 0.565818 0.666757C0.563007 0.670041 0.559709 0.671582 0.556542 0.671194L0.556466 0.671183ZM0.562069 0.626091C0.560386 0.625883 0.558804 0.627025 0.557307 0.628771C0.554332 0.632248 0.552022 0.638181 0.551176 0.645063C0.550331 0.651948 0.551143 0.658262 0.553193 0.662354C0.554214 0.664393 0.555463 0.665875 0.557124 0.666102L0.557165 0.666106C0.558848 0.666311 0.56043 0.665169 0.561927 0.663423C0.564906 0.659949 0.567216 0.654016 0.568058 0.647134C0.568903 0.640249 0.568094 0.633935 0.566045 0.629843C0.565016 0.627786 0.563753 0.626296 0.562069 0.626091ZM0.51125 0.607709C0.511729 0.607856 0.512212 0.608006 0.512695 0.608167C0.520393 0.610725 0.526579 0.614887 0.529873 0.619104C0.532538 0.622511 0.533394 0.626044 0.532388 0.629074C0.531381 0.632105 0.528581 0.634422 0.524405 0.635557C0.519837 0.636798 0.513482 0.636655 0.506747 0.634832L0.507589 0.629752C0.51349 0.631432 0.519068 0.631699 0.523061 0.630612C0.52528 0.630008 0.526989 0.629067 0.527527 0.627457C0.528061 0.62585 0.527253 0.624071 0.525836 0.622259C0.523018 0.618653 0.517659 0.615216 0.511081 0.613031C0.510854 0.612954 0.510627 0.612881 0.5104 0.612812L0.51125 0.607709ZM0.529171 0.605344C0.5264 0.60376 0.524683 0.600553 0.524394 0.596238C0.524039 0.590897 0.525869 0.583672 0.529899 0.576633C0.533925 0.56959 0.539225 0.564349 0.544013 0.561951C0.547878 0.560015 0.551513 0.559872 0.554284 0.561457C0.557055 0.563042 0.558772 0.566245 0.559061 0.57056C0.559419 0.575905 0.557586 0.583126 0.553556 0.590169C0.549529 0.597211 0.544229 0.602449 0.539441 0.60485C0.535576 0.606787 0.531941 0.606929 0.529171 0.605344ZM0.585554 0.601483C0.58461 0.600912 0.583673 0.600191 0.582754 0.59932C0.578739 0.595513 0.574943 0.588694 0.572824 0.580432C0.570704 0.572171 0.570748 0.564367 0.572432 0.559096C0.573804 0.554803 0.576319 0.552069 0.579412 0.551274C0.582509 0.55048 0.586026 0.55167 0.589295 0.55477C0.591477 0.556838 0.593589 0.559792 0.595408 0.563379L0.593285 0.571593C0.591403 0.565926 0.588695 0.561263 0.58577 0.558489C0.584035 0.556845 0.582326 0.555817 0.580686 0.556238C0.579046 0.556659 0.578043 0.558383 0.577315 0.560656C0.575851 0.565231 0.575949 0.571995 0.577787 0.579159C0.579624 0.586322 0.582798 0.592299 0.586279 0.595604C0.586495 0.595806 0.586711 0.596003 0.586923 0.596186L0.585554 0.601483ZM0.55174 0.565905C0.550265 0.565063 0.548365 0.565502 0.546308 0.566534C0.54222 0.568584 0.537791 0.573159 0.534346 0.579177C0.530902 0.585194 0.529203 0.591329 0.529507 0.595897C0.529661 0.598192 0.530243 0.600055 0.531714 0.600897C0.53319 0.601739 0.535089 0.6013 0.537146 0.600268C0.541235 0.598218 0.545664 0.593642 0.549108 0.587625C0.552553 0.581607 0.554251 0.575469 0.553947 0.570905C0.553793 0.568609 0.553211 0.566746 0.55174 0.565905ZM0.667619 0.580981C0.670485 0.579528 0.673255 0.578588 0.67573 0.578203C0.680001 0.577541 0.683504 0.578518 0.68566 0.580875C0.687813 0.583229 0.688468 0.586805 0.687425 0.591003C0.68715 0.592105 0.686758 0.593254 0.68625 0.594433L0.679372 0.596479C0.680876 0.594151 0.68193 0.59186 0.68245 0.589766C0.683007 0.587533 0.683021 0.585582 0.681875 0.584331C0.680733 0.583079 0.678786 0.582914 0.676513 0.583269C0.673896 0.583675 0.670913 0.58485 0.667867 0.586681L0.667619 0.580981ZM0.729987 0.544847L0.730016 0.550257C0.726436 0.551662 0.722534 0.554144 0.718885 0.557478C0.713764 0.562156 0.710272 0.567482 0.709167 0.571922C0.70861 0.574151 0.708596 0.576102 0.709742 0.577358C0.710887 0.57861 0.712831 0.578771 0.7151 0.578419C0.719555 0.577727 0.725071 0.574803 0.73013 0.570246L0.730166 0.576842C0.725228 0.580535 0.720122 0.582823 0.715887 0.583481C0.711616 0.584144 0.708113 0.58317 0.705957 0.580813C0.703804 0.578456 0.703149 0.57488 0.704192 0.570681C0.705488 0.565487 0.709438 0.55917 0.71543 0.553697C0.720203 0.549334 0.725397 0.546307 0.729987 0.544847ZM0.664826 0.51675C0.665283 0.516314 0.665781 0.515937 0.666323 0.515623C0.669083 0.514019 0.672717 0.514137 0.676597 0.516047C0.6814 0.518412 0.686736 0.523617 0.690814 0.53063C0.694892 0.537643 0.696773 0.544854 0.696451 0.550198C0.696195 0.554517 0.694496 0.557731 0.691736 0.559338C0.688977 0.560941 0.685342 0.560824 0.681462 0.558913C0.67666 0.556545 0.671326 0.551344 0.667249 0.544331C0.666777 0.543518 0.666334 0.542702 0.66592 0.541889L0.664826 0.51675ZM0.686301 0.533064C0.682827 0.527138 0.678405 0.522651 0.674332 0.520645C0.672271 0.519627 0.670364 0.519202 0.6689 0.520052C0.667432 0.520905 0.666861 0.522771 0.666725 0.525066C0.666451 0.529634 0.668193 0.535758 0.671678 0.541754C0.675162 0.547749 0.679624 0.552292 0.683728 0.554316C0.685792 0.555334 0.687695 0.555758 0.689163 0.554905C0.690627 0.554052 0.691198 0.552189 0.691337 0.549894C0.691608 0.545326 0.68987 0.539199 0.686381 0.533207L0.686301 0.533064ZM0.526513 0.515714C0.529346 0.51723 0.532242 0.519213 0.535012 0.521637C0.541118 0.526977 0.545206 0.533207 0.546612 0.538375C0.547747 0.542548 0.547172 0.546139 0.545067 0.54854C0.542966 0.550945 0.539485 0.551995 0.535199 0.551424C0.531169 0.55089 0.526323 0.548902 0.52155 0.545637L0.522487 0.539986C0.52711 0.543569 0.531927 0.54582 0.535876 0.546344C0.538153 0.546648 0.540093 0.546443 0.541213 0.545169C0.542329 0.543891 0.542271 0.54194 0.541667 0.539722C0.540466 0.535304 0.536857 0.530059 0.531638 0.525495C0.529668 0.523774 0.527637 0.522292 0.525624 0.521084L0.526513 0.515714ZM0.563845 0.536439C0.556396 0.532925 0.550653 0.528017 0.54782 0.523412C0.545525 0.519682 0.545075 0.516051 0.546436 0.513163C0.547798 0.510275 0.550887 0.508313 0.555225 0.507709C0.560536 0.50697 0.567904 0.508251 0.575294 0.511702L0.57547 0.511783C0.582919 0.515293 0.588658 0.520205 0.591495 0.52481C0.593786 0.52854 0.59424 0.532171 0.592878 0.535059C0.591517 0.537947 0.588427 0.539909 0.58409 0.540513C0.578735 0.541256 0.571293 0.539949 0.563845 0.536439ZM0.729921 0.532749C0.729643 0.533046 0.729361 0.533335 0.729079 0.533602C0.725953 0.536593 0.722523 0.537801 0.719408 0.537101C0.716293 0.536402 0.713709 0.533844 0.712161 0.529806C0.71025 0.524806 0.70987 0.517365 0.711649 0.509448C0.713424 0.50153 0.716945 0.494964 0.720814 0.491263C0.723669 0.48853 0.726777 0.487288 0.729665 0.487625L0.729698 0.492859C0.729588 0.492823 0.729474 0.49279 0.729361 0.492764C0.727706 0.492391 0.726019 0.493375 0.724357 0.494964C0.721052 0.49813 0.718168 0.503804 0.716649 0.510571C0.715129 0.517336 0.715313 0.523701 0.716949 0.527973C0.717769 0.530121 0.718874 0.531728 0.720532 0.532101C0.722187 0.532471 0.723874 0.53149 0.725536 0.529902C0.72711 0.528394 0.728589 0.526318 0.72987 0.523825L0.729921 0.532749ZM0.573285 0.516417C0.566886 0.513401 0.560525 0.512145 0.555927 0.512786C0.553625 0.513104 0.551795 0.513814 0.55107 0.515348C0.550349 0.516882 0.550964 0.518745 0.552183 0.520725C0.554599 0.524649 0.559555 0.528723 0.56588 0.531732L0.56603 0.531805C0.572425 0.534821 0.578786 0.536077 0.583384 0.535436C0.58569 0.535118 0.58752 0.534407 0.588241 0.532874C0.588966 0.53134 0.588347 0.529477 0.587128 0.527497C0.584698 0.523544 0.579679 0.519433 0.573285 0.516417ZM0.624961 0.506421C0.622238 0.499239 0.621517 0.492252 0.622545 0.487235C0.623413 0.482999 0.62555 0.480056 0.628512 0.47886C0.631469 0.477663 0.635049 0.478296 0.638618 0.480739C0.642296 0.483256 0.646056 0.487767 0.648969 0.493544L0.644452 0.495967C0.641993 0.491019 0.638863 0.487115 0.635726 0.484967C0.633826 0.483669 0.632004 0.482975 0.63043 0.483611C0.628856 0.484246 0.628028 0.486013 0.627564 0.488265C0.626718 0.492394 0.627377 0.498079 0.629518 0.503976L0.624961 0.506421ZM0.551729 0.461276C0.553687 0.462604 0.555642 0.46416 0.557527 0.465929C0.563442 0.471481 0.567311 0.477851 0.568534 0.483063C0.569522 0.487274 0.568819 0.490841 0.566634 0.49317C0.564449 0.495498 0.560935 0.496424 0.556671 0.495703C0.551389 0.494814 0.544789 0.491358 0.53887 0.485805C0.537677 0.484682 0.536564 0.483526 0.535539 0.482353C0.536356 0.480561 0.53719 0.478898 0.538036 0.477352C0.539299 0.478954 0.540755 0.480544 0.542381 0.482068C0.547436 0.486814 0.55301 0.48989 0.557523 0.490652C0.559789 0.491035 0.561736 0.490899 0.562897 0.489662C0.564057 0.488425 0.564072 0.486473 0.563545 0.484235C0.562498 0.47978 0.559075 0.474411 0.55402 0.469665C0.551912 0.467689 0.54972 0.466002 0.547545 0.464652C0.548998 0.463284 0.550404 0.462175 0.551729 0.461276ZM0.690206 0.465011C0.695576 0.459034 0.701788 0.455058 0.706927 0.453711C0.71111 0.452615 0.714694 0.453228 0.717077 0.455352C0.71946 0.457477 0.720477 0.460967 0.719866 0.465249C0.719112 0.470549 0.715825 0.477238 0.710426 0.483293C0.705027 0.489349 0.698757 0.493379 0.693578 0.494733C0.689394 0.495831 0.68581 0.49522 0.683427 0.493093C0.681045 0.490969 0.680027 0.487478 0.680638 0.483197C0.681392 0.477896 0.684679 0.471208 0.690078 0.465153L0.690206 0.465011ZM0.581348 0.468136C0.582344 0.460084 0.58521 0.453205 0.588702 0.449144C0.591517 0.445863 0.594815 0.444329 0.597985 0.444721C0.601151 0.445114 0.603973 0.447406 0.605906 0.451275C0.608299 0.456066 0.609397 0.463436 0.608402 0.471487C0.607403 0.479539 0.604537 0.486418 0.601048 0.490479C0.59823 0.49376 0.594936 0.495293 0.591766 0.494902C0.5886 0.49451 0.585777 0.492219 0.583845 0.488348C0.581451 0.483558 0.580353 0.476187 0.581348 0.468136ZM0.706601 0.479883C0.711217 0.474707 0.714149 0.469055 0.714793 0.464525C0.715119 0.462249 0.714932 0.460306 0.713665 0.459177C0.712399 0.458048 0.710448 0.458086 0.708226 0.458668C0.703797 0.459828 0.698519 0.463387 0.693903 0.468563C0.689288 0.473739 0.686356 0.47939 0.685711 0.483921C0.685386 0.486197 0.685569 0.48814 0.686835 0.489269C0.688105 0.490398 0.690056 0.49036 0.692278 0.489778C0.696707 0.488618 0.701985 0.485059 0.706601 0.479883ZM0.603336 0.470696C0.604156 0.463877 0.603351 0.457627 0.601323 0.453565C0.600294 0.451508 0.599039 0.450015 0.597351 0.449807C0.595668 0.449598 0.594086 0.450739 0.592586 0.452483C0.589606 0.455954 0.587285 0.461884 0.586433 0.468766C0.585583 0.475648 0.586385 0.481964 0.588427 0.486058C0.589456 0.488115 0.590712 0.489608 0.592395 0.489816C0.594079 0.490025 0.595664 0.488884 0.597161 0.48714C0.600144 0.483669 0.602461 0.477739 0.603314 0.470857L0.603336 0.470696ZM0.641524 0.466672C0.635294 0.461599 0.631019 0.455589 0.629423 0.450522C0.628124 0.446396 0.628559 0.442787 0.630565 0.440303C0.632571 0.43782 0.636008 0.436633 0.640316 0.437034C0.645646 0.437531 0.652487 0.440488 0.658797 0.445585C0.665111 0.450682 0.669441 0.456747 0.671048 0.461854C0.672348 0.46598 0.671908 0.46959 0.669903 0.472073C0.667897 0.474557 0.66446 0.475744 0.660155 0.475342C0.654822 0.474845 0.647985 0.471889 0.641671 0.466791L0.641524 0.466672ZM0.65558 0.449571C0.650184 0.445215 0.644397 0.442561 0.63984 0.442137C0.637553 0.441923 0.63562 0.442203 0.634555 0.443523C0.633486 0.444843 0.633621 0.44679 0.63431 0.448983C0.635675 0.453314 0.639438 0.458368 0.644763 0.462702L0.644892 0.462805C0.650287 0.467162 0.656074 0.469815 0.660631 0.47024C0.662919 0.470453 0.664851 0.470174 0.665916 0.468854C0.666982 0.467533 0.66685 0.465586 0.666158 0.463394C0.664785 0.459028 0.660975 0.453929 0.65558 0.449571ZM0.709939 0.40918C0.716304 0.413219 0.720697 0.418437 0.723673 0.423235C0.723219 0.424244 0.722608 0.42526 0.721843 0.426268C0.718607 0.430533 0.712483 0.434782 0.704822 0.437452C0.697161 0.440122 0.689727 0.440597 0.68454 0.439267C0.680349 0.438192 0.677512 0.435915 0.676466 0.432901C0.675415 0.429886 0.67622 0.42634 0.678834 0.422895C0.682069 0.41863 0.688193 0.414381 0.695854 0.411711C0.700829 0.409977 0.705708 0.409169 0.709939 0.40918ZM0.681304 0.431215C0.680744 0.429612 0.681528 0.427824 0.682915 0.425993C0.685682 0.422347 0.69099 0.418832 0.697538 0.41655C0.704086 0.414268 0.710433 0.413723 0.714866 0.41486C0.717091 0.415431 0.718815 0.416346 0.719372 0.417948C0.719932 0.419551 0.719149 0.421339 0.717761 0.42317C0.714994 0.426816 0.709687 0.430331 0.703138 0.432613C0.69659 0.434895 0.690247 0.43544 0.68581 0.434303C0.683585 0.433732 0.681861 0.432817 0.681304 0.431215ZM0.658599 0.40923C0.659687 0.409965 0.660657 0.410737 0.661498 0.411532C0.664635 0.414506 0.666008 0.417874 0.665463 0.421019C0.664917 0.424164 0.662487 0.426872 0.65853 0.428613C0.653629 0.430768 0.646213 0.431508 0.638219 0.430119C0.632703 0.429161 0.627787 0.427341 0.623995 0.425095L0.62991 0.422383C0.632604 0.423554 0.635726 0.424485 0.639097 0.42507C0.645927 0.426257 0.652278 0.425764 0.656466 0.423922C0.65857 0.422996 0.660122 0.421813 0.660411 0.420142C0.660704 0.41847 0.659643 0.416832 0.657974 0.415252C0.656656 0.414005 0.65495 0.412844 0.652948 0.411822L0.658599 0.40923Z" fill="#FF7B6B"/>
<path fill-rule="evenodd" clip-rule="evenodd" d="M0.470603 0.421659L0.508048 0.423582L0.509867 0.431267C0.509867 0.431267 0.562393 0.426377 0.588286 0.368143L0.599329 0.370486L0.583158 0.353108L0.60363 0.320801C0.60363 0.320801 0.677389 0.375445 0.678872 0.406556C0.678872 0.406556 0.678897 0.406896 0.678916 0.407508C0.679135 0.416563 0.67478 0.425119 0.667324 0.430261C0.659867 0.435403 0.650321 0.436437 0.641936 0.433011C0.628469 0.427508 0.610219 0.420051 0.610219 0.420051C0.610219 0.420051 0.613605 0.427717 0.612957 0.431365L0.558242 0.460555C0.558242 0.460555 0.546584 0.45868 0.539498 0.448069C0.539498 0.448069 0.548601 0.484989 0.525164 0.512366C0.518444 0.520225 0.507627 0.523211 0.497829 0.519917C0.489908 0.517238 0.481994 0.509848 0.478535 0.492179C0.478535 0.492179 0.469198 0.452556 0.470603 0.421659Z" fill="#FFD274"/>
<path fill-rule="evenodd" clip-rule="evenodd" d="M0.51745 0.485478C0.517435 0.48529 0.517391 0.484719 0.517325 0.484145C0.516469 0.476581 0.509888 0.431303 0.509888 0.431303L0.512428 0.430969C0.512428 0.430969 0.519017 0.476288 0.519869 0.483857C0.519968 0.484703 0.520016 0.485275 0.520019 0.48552C0.520023 0.48576 0.519987 0.485919 0.519965 0.485997C0.519807 0.486552 0.519441 0.486751 0.519211 0.486845C0.518907 0.486971 0.518581 0.486988 0.518233 0.486846C0.517681 0.486619 0.517369 0.486046 0.51745 0.485478ZM0.518383 0.484425C0.518647 0.484353 0.518932 0.484364 0.519203 0.484475C0.518918 0.484357 0.518643 0.48435 0.518383 0.484425Z" fill="#DE735A"/>
<path fill-rule="evenodd" clip-rule="evenodd" d="M0.599473 0.370484L0.595154 0.36969L0.642679 0.419075C0.64317 0.419585 0.643979 0.4196 0.644491 0.41911C0.645 0.41862 0.645015 0.417808 0.644524 0.417299L0.599473 0.370484Z" fill="#DE735A"/>
<path fill-rule="evenodd" clip-rule="evenodd" d="M0.609909 0.419989C0.607167 0.413253 0.603455 0.407093 0.603455 0.407093C0.603089 0.406487 0.603287 0.405699 0.603895 0.405335C0.604499 0.40497 0.605286 0.405166 0.605652 0.405772C0.605652 0.405772 0.610293 0.413505 0.613141 0.421254L0.609909 0.419989Z" fill="#DE735A"/>
<path fill-rule="evenodd" clip-rule="evenodd" d="M0.330139 0.687918C0.330139 0.687918 0.338284 0.66906 0.353253 0.66571C0.353253 0.66571 0.354999 0.677156 0.350558 0.693481C0.350558 0.693481 0.361889 0.685886 0.368132 0.687918C0.368132 0.687918 0.367938 0.698902 0.360299 0.708657C0.360299 0.708657 0.352853 0.690802 0.330877 0.699733C0.330877 0.699733 0.330601 0.689191 0.330139 0.687918Z" fill="#668DDB"/>
<path fill-rule="evenodd" clip-rule="evenodd" d="M0.181129 0.737746C0.181129 0.737746 0.164308 0.727194 0.158813 0.697044C0.158813 0.697044 0.161596 0.696487 0.167483 0.699251C0.167483 0.699251 0.159704 0.684975 0.163229 0.6698C0.163229 0.6698 0.175928 0.673394 0.186809 0.688855C0.186809 0.688855 0.176295 0.71454 0.181129 0.737746Z" fill="#668DDB"/>
<path fill-rule="evenodd" clip-rule="evenodd" d="M0.181154 0.737719H0.368164C0.368164 0.737719 0.365288 0.683945 0.330909 0.699714C0.33057 0.682434 0.327036 0.66232 0.316362 0.646815C0.311855 0.640271 0.30564 0.634948 0.298291 0.630611C0.280736 0.620241 0.252539 0.619978 0.226601 0.635746C0.203442 0.649824 0.17609 0.689066 0.181154 0.737719Z" stroke="#0D2E3A" stroke-width="0.00219619" stroke-miterlimit="2.28659" stroke-linecap="round" stroke-linejoin="round"/>
<path fill-rule="evenodd" clip-rule="evenodd" d="M0.397811 0.762418L0.363281 0.762502C0.363281 0.762502 0.365362 0.749621 0.376922 0.748681C0.381347 0.748322 0.391768 0.752055 0.397811 0.762418Z" stroke="#0F303C" stroke-width="0.00219619" stroke-miterlimit="2.28659" stroke-linecap="round" stroke-linejoin="round"/>
<path d="M0.246704 0.66571C0.246704 0.66571 0.258344 0.695074 0.267669 0.746388" stroke="#668DDB" stroke-width="0.00219619" stroke-miterlimit="2.28659" stroke-linecap="round" stroke-linejoin="round"/>
<path fill-rule="evenodd" clip-rule="evenodd" d="M0.2532 0.685093C0.2532 0.685093 0.249856 0.673456 0.25721 0.6698C0.25721 0.6698 0.261561 0.676817 0.2532 0.685093Z" fill="#668DDB"/>
<path fill-rule="evenodd" clip-rule="evenodd" d="M0.25243 0.68507C0.25243 0.68507 0.243006 0.683435 0.240173 0.674876C0.240284 0.673821 0.251123 0.675821 0.25243 0.68507Z" fill="#668DDB"/>
<path fill-rule="evenodd" clip-rule="evenodd" d="M0.26006 0.708996C0.26006 0.708996 0.250635 0.70736 0.247803 0.698802C0.247913 0.697747 0.258752 0.699747 0.26006 0.708996Z" fill="#668DDB"/>
<path fill-rule="evenodd" clip-rule="evenodd" d="M0.260247 0.709C0.260247 0.709 0.266226 0.701534 0.262681 0.693245C0.261899 0.692528 0.255102 0.701204 0.260247 0.709Z" fill="#668DDB"/>
<path fill-rule="evenodd" clip-rule="evenodd" d="M0.242288 0.652173L0.244241 0.657864C0.244321 0.658096 0.244574 0.658218 0.244807 0.658139C0.24504 0.658059 0.245165 0.657807 0.245086 0.657575L0.243139 0.651904C0.244081 0.651639 0.245092 0.651458 0.246175 0.651381L0.247962 0.656588C0.248041 0.65682 0.248295 0.656942 0.248528 0.656862C0.248761 0.656782 0.248886 0.65653 0.248806 0.656298L0.247106 0.651343C0.247962 0.651332 0.248859 0.651384 0.249801 0.65151C0.250305 0.652336 0.250734 0.653245 0.251071 0.654224C0.252964 0.659743 0.251138 0.665381 0.246994 0.666803C0.242849 0.668226 0.237946 0.664897 0.236052 0.659378C0.235783 0.658592 0.235588 0.657804 0.235466 0.657029C0.236064 0.656313 0.236743 0.655608 0.23751 0.654954L0.239113 0.659624C0.239192 0.659856 0.239445 0.659978 0.239678 0.659898C0.239911 0.659818 0.240037 0.659566 0.239957 0.659335L0.238249 0.654356C0.238739 0.653987 0.239259 0.653634 0.239813 0.653312L0.241046 0.656906C0.241127 0.657141 0.24138 0.657263 0.241613 0.657183C0.241846 0.657103 0.241971 0.656852 0.24189 0.656616L0.24061 0.652884C0.24114 0.652617 0.2417 0.652378 0.242288 0.652173Z" fill="#FDDB81"/>
<path fill-rule="evenodd" clip-rule="evenodd" d="M0.188076 0.660986C0.188076 0.660986 0.211687 0.693497 0.230099 0.741901C0.230314 0.742468 0.230949 0.742754 0.231516 0.742538C0.232082 0.742322 0.232367 0.741685 0.232152 0.741121C0.213623 0.692409 0.189853 0.659693 0.189853 0.659693C0.189497 0.659203 0.188809 0.659093 0.188319 0.659452C0.187829 0.659807 0.18772 0.660495 0.188076 0.660986Z" fill="#668DDB"/>
<path fill-rule="evenodd" clip-rule="evenodd" d="M0.210424 0.694866C0.210437 0.6942 0.20988 0.693142 0.209733 0.692468C0.209372 0.690803 0.209136 0.689083 0.209171 0.687381C0.209225 0.684752 0.210043 0.682315 0.211444 0.6801C0.211547 0.679939 0.212633 0.67812 0.21294 0.678296C0.213855 0.678815 0.214013 0.681703 0.214106 0.682542C0.214571 0.686747 0.213769 0.691396 0.210739 0.69454" fill="#668DDB"/>
<path fill-rule="evenodd" clip-rule="evenodd" d="M0.209766 0.694172C0.209623 0.694322 0.209008 0.694267 0.208785 0.69426C0.207862 0.694241 0.206938 0.69411 0.206027 0.693967C0.203139 0.693509 0.200174 0.692788 0.197753 0.691075C0.197248 0.690716 0.196763 0.690332 0.19631 0.689911C0.196015 0.689637 0.194703 0.688531 0.194765 0.688022C0.194807 0.687682 0.195788 0.687704 0.195983 0.687693C0.197318 0.687631 0.198661 0.687869 0.199952 0.688191C0.201171 0.688498 0.202355 0.688934 0.203508 0.689432C0.205315 0.690211 0.207016 0.691309 0.208426 0.692686" fill="#668DDB"/>
<path fill-rule="evenodd" clip-rule="evenodd" d="M0.220742 0.717172C0.220704 0.717307 0.219805 0.71719 0.219686 0.717183C0.218539 0.717088 0.217409 0.716835 0.216297 0.716546C0.213314 0.71577 0.210144 0.714617 0.207866 0.712457C0.207003 0.711638 0.206261 0.710664 0.205669 0.709635C0.205602 0.709518 0.205156 0.708896 0.205284 0.708739C0.205564 0.708391 0.207067 0.7089 0.207376 0.708973C0.20782 0.709083 0.208262 0.709207 0.208698 0.709343C0.209509 0.709591 0.210311 0.709877 0.211096 0.710199C0.212421 0.710744 0.213712 0.7114 0.214957 0.71211C0.216746 0.713131 0.218539 0.714346 0.219985 0.715825" fill="#668DDB"/>
<path fill-rule="evenodd" clip-rule="evenodd" d="M0.220526 0.715174C0.220592 0.714647 0.220342 0.713846 0.220338 0.713282C0.220325 0.711763 0.220477 0.710244 0.220781 0.708754C0.221044 0.707466 0.221409 0.706192 0.221913 0.704977C0.222458 0.703659 0.223159 0.702411 0.224021 0.701276C0.224113 0.701155 0.224707 0.700266 0.224941 0.70039C0.22533 0.700595 0.225467 0.701781 0.225539 0.702133C0.225625 0.702554 0.225684 0.702978 0.225725 0.703403C0.225796 0.704153 0.225819 0.704904 0.225791 0.705658C0.225674 0.708809 0.224801 0.712059 0.223167 0.714772C0.222721 0.715511 0.221983 0.716847 0.221106 0.717202" fill="#668DDB"/>
<path fill-rule="evenodd" clip-rule="evenodd" d="M0.184639 0.645441C0.185655 0.64525 0.186748 0.645166 0.187922 0.645217C0.188452 0.645759 0.188952 0.646352 0.189414 0.647C0.193106 0.65215 0.19298 0.65857 0.189133 0.661326C0.185286 0.664086 0.179165 0.662143 0.175473 0.656989C0.174891 0.656176 0.174404 0.655335 0.174011 0.654478C0.174466 0.653559 0.175016 0.652593 0.175676 0.651645L0.178017 0.654932C0.178267 0.655283 0.178755 0.655364 0.179106 0.655115C0.179457 0.654862 0.179539 0.654376 0.179289 0.654024L0.176667 0.650342C0.17715 0.64976 0.177679 0.6492 0.178257 0.648676L0.181778 0.653621C0.182028 0.653973 0.182516 0.654053 0.182868 0.653804C0.183219 0.653556 0.183301 0.653065 0.183051 0.652714L0.179472 0.647688C0.180514 0.64693 0.181692 0.646297 0.183019 0.645862L0.185627 0.649526C0.185877 0.649877 0.186366 0.649958 0.186717 0.649709C0.187068 0.649456 0.18715 0.648969 0.1869 0.648618L0.184639 0.645441Z" fill="#FDDB81"/>
<path fill-rule="evenodd" clip-rule="evenodd" d="M0.34525 0.64768C0.34525 0.64768 0.338645 0.6572 0.329698 0.672947C0.329511 0.673277 0.329059 0.674279 0.329059 0.674279L0.328256 0.670967L0.328721 0.670055L0.343472 0.646388C0.343829 0.645897 0.344516 0.645788 0.345006 0.646146C0.345497 0.646501 0.345606 0.647189 0.34525 0.64768Z" fill="#668DDB"/>
<path fill-rule="evenodd" clip-rule="evenodd" d="M0.336848 0.659274C0.336836 0.658662 0.337326 0.65769 0.337455 0.657072C0.337772 0.655542 0.337979 0.653962 0.337949 0.652398C0.337901 0.649985 0.337183 0.647745 0.335952 0.645711C0.335862 0.645563 0.334908 0.643893 0.334639 0.644054C0.333835 0.644531 0.333697 0.647184 0.333615 0.647954C0.333207 0.651817 0.333911 0.656087 0.336571 0.658975" fill="#668DDB"/>
<path fill-rule="evenodd" clip-rule="evenodd" d="M0.336011 0.659199C0.336153 0.659349 0.336768 0.659294 0.336991 0.659286C0.337914 0.659268 0.338839 0.659136 0.33975 0.658994C0.342637 0.658536 0.345602 0.657815 0.348023 0.656102C0.348529 0.655743 0.349013 0.655359 0.349467 0.654938C0.349762 0.654663 0.351073 0.653558 0.351011 0.653049C0.350969 0.652709 0.349988 0.652731 0.349793 0.65272C0.348459 0.652658 0.347115 0.652896 0.345824 0.653218C0.344605 0.653525 0.343421 0.653961 0.342268 0.654459C0.340461 0.655238 0.338761 0.656336 0.33735 0.657713" fill="#668DDB"/>
<path fill-rule="evenodd" clip-rule="evenodd" d="M0.330178 0.669737C0.330211 0.669855 0.330985 0.669753 0.331087 0.669746C0.332075 0.669664 0.333048 0.669444 0.334005 0.669192C0.336573 0.668517 0.339302 0.667513 0.341263 0.665634C0.342007 0.66492 0.342645 0.664073 0.343155 0.663178C0.343213 0.663076 0.343596 0.662534 0.343486 0.662397C0.343245 0.662095 0.341951 0.662537 0.341685 0.662601C0.341303 0.662697 0.340923 0.662805 0.340547 0.662923C0.339849 0.66314 0.339159 0.663388 0.338483 0.663668C0.337342 0.664143 0.33623 0.664713 0.335159 0.665331C0.333618 0.66622 0.332075 0.667278 0.33083 0.668565" fill="#668DDB"/>
<path fill-rule="evenodd" clip-rule="evenodd" d="M0.332561 0.665175C0.332491 0.664731 0.332758 0.664056 0.332763 0.663581C0.332777 0.662301 0.332613 0.661021 0.332288 0.659766C0.332006 0.658681 0.331616 0.657608 0.331076 0.656584C0.330491 0.655474 0.329741 0.654422 0.328817 0.653466C0.328718 0.653365 0.328083 0.652615 0.327832 0.65272C0.327415 0.652893 0.327269 0.653892 0.327191 0.654188C0.327099 0.654542 0.327035 0.6549 0.326992 0.655258C0.326916 0.65589 0.326891 0.656522 0.326921 0.657157C0.327047 0.659813 0.327982 0.662551 0.329732 0.664836C0.330209 0.665459 0.331 0.666584 0.331939 0.666884" fill="#668DDB"/>
<path fill-rule="evenodd" clip-rule="evenodd" d="M0.348625 0.632135C0.347609 0.631945 0.346516 0.63186 0.345342 0.631912C0.344813 0.632453 0.344312 0.633046 0.34385 0.633694C0.340158 0.638844 0.340284 0.645265 0.344131 0.648021C0.347978 0.650781 0.354099 0.648837 0.357791 0.643683C0.358373 0.642871 0.358861 0.642029 0.359253 0.641172C0.358798 0.640254 0.358248 0.639287 0.357588 0.638339L0.355247 0.641626C0.354997 0.641978 0.354509 0.642058 0.354158 0.641809C0.353807 0.641557 0.353725 0.64107 0.353975 0.640718L0.356597 0.637036C0.356115 0.636454 0.355586 0.635894 0.355007 0.635371L0.351486 0.640316C0.351236 0.640667 0.350748 0.640748 0.350396 0.640499C0.350045 0.64025 0.349963 0.639759 0.350213 0.639408L0.353792 0.634382C0.35275 0.633625 0.351572 0.632992 0.350245 0.632556L0.347637 0.63622C0.347387 0.636571 0.346899 0.636652 0.346548 0.636403C0.346196 0.63615 0.346114 0.635664 0.346364 0.635312L0.348625 0.632135Z" fill="#FDDB81"/>
<path fill-rule="evenodd" clip-rule="evenodd" d="M0.640267 0.698362C0.640267 0.698362 0.63041 0.681264 0.63142 0.669698C0.63142 0.669698 0.637687 0.67144 0.642379 0.678266C0.642379 0.678266 0.636805 0.655056 0.640267 0.645569C0.640267 0.645569 0.650428 0.650239 0.655297 0.661334C0.655297 0.661334 0.648573 0.681411 0.647914 0.700796L0.640267 0.698362Z" fill="#668DDB"/>
<path fill-rule="evenodd" clip-rule="evenodd" d="M0.7986 0.741511L0.608401 0.742609C0.608401 0.742609 0.613525 0.685032 0.647903 0.700801C0.648243 0.68352 0.651776 0.663407 0.662451 0.647902C0.666958 0.641357 0.672737 0.635636 0.680087 0.631295C0.697642 0.620925 0.726274 0.621064 0.752212 0.636833C0.77537 0.65091 0.803664 0.692858 0.7986 0.741511Z" stroke="#0D2E3A" stroke-width="0.00219619" stroke-miterlimit="2.28659" stroke-linecap="round" stroke-linejoin="round"/>
<path fill-rule="evenodd" clip-rule="evenodd" d="M0.768066 0.746848C0.768066 0.746848 0.786895 0.71474 0.809944 0.716303C0.809944 0.716303 0.810021 0.723836 0.802236 0.734004C0.802236 0.734004 0.807708 0.730179 0.817323 0.730596C0.817323 0.730596 0.816302 0.737588 0.806848 0.747785L0.768066 0.746848Z" fill="#668DDB"/>
<path fill-rule="evenodd" clip-rule="evenodd" d="M0.783497 0.698294C0.783617 0.697694 0.784303 0.69685 0.784562 0.696274C0.7852 0.694848 0.785741 0.693349 0.786046 0.691815C0.786518 0.689447 0.786296 0.687106 0.785531 0.684855C0.785475 0.684692 0.784902 0.682855 0.784604 0.682955C0.783717 0.683249 0.783012 0.68581 0.782767 0.686544C0.78154 0.69023 0.781312 0.694551 0.783291 0.697943" fill="#668DDB"/>
<path d="M0.800767 0.682312C0.800767 0.682312 0.766916 0.705939 0.753479 0.747795" stroke="#668DDB" stroke-width="0.00219619" stroke-miterlimit="2.28659" stroke-linecap="round" stroke-linejoin="round"/>
<path fill-rule="evenodd" clip-rule="evenodd" d="M0.805913 0.670682C0.804962 0.670278 0.803913 0.669962 0.802755 0.66976C0.802122 0.670175 0.801506 0.670647 0.800915 0.671181C0.796205 0.675419 0.79495 0.681717 0.798117 0.685234C0.801282 0.688755 0.807678 0.68817 0.812389 0.683928C0.813132 0.683259 0.813789 0.682541 0.814356 0.681789C0.814109 0.680794 0.813778 0.679732 0.813337 0.678665L0.810346 0.681373C0.810026 0.681663 0.809532 0.681637 0.809243 0.681318C0.808954 0.680996 0.808978 0.680503 0.809298 0.680213L0.812649 0.677179C0.812302 0.676507 0.811906 0.675847 0.811453 0.675212L0.806953 0.679286C0.806634 0.679576 0.806139 0.67955 0.80585 0.679231C0.80556 0.678913 0.805585 0.678416 0.805905 0.678127L0.810478 0.673986C0.809623 0.673022 0.808608 0.672151 0.807406 0.671441L0.804072 0.67446C0.803753 0.67475 0.803259 0.674723 0.802969 0.674405C0.80268 0.674083 0.802704 0.67359 0.803024 0.6733L0.805913 0.670682Z" fill="#FDDB81"/>
<path fill-rule="evenodd" clip-rule="evenodd" d="M0.784797 0.697638C0.784904 0.697816 0.785517 0.697894 0.785736 0.697934C0.786641 0.698115 0.787573 0.698184 0.788493 0.69824C0.791412 0.698413 0.794462 0.698345 0.797195 0.697191C0.797765 0.696949 0.79832 0.696677 0.798854 0.696364C0.799201 0.696159 0.800719 0.69536 0.800767 0.69485C0.8008 0.694509 0.799837 0.69432 0.799649 0.694267C0.798358 0.69392 0.796995 0.693864 0.795665 0.693902C0.794408 0.693941 0.793159 0.694112 0.791926 0.694351C0.789994 0.694725 0.788097 0.695433 0.786424 0.696474" fill="#668DDB"/>
<path fill-rule="evenodd" clip-rule="evenodd" d="M0.769443 0.716143C0.76945 0.716265 0.770228 0.716332 0.770329 0.716347C0.771312 0.716478 0.772309 0.716472 0.773297 0.716432C0.775951 0.716323 0.778831 0.715928 0.781151 0.714513C0.78203 0.713976 0.782835 0.713285 0.783525 0.71252C0.783603 0.712433 0.784094 0.711986 0.784016 0.711829C0.783846 0.711482 0.782486 0.711637 0.782213 0.711642C0.78182 0.711653 0.781425 0.711677 0.781032 0.711712C0.780304 0.711774 0.779577 0.711868 0.778856 0.711997C0.77764 0.712216 0.776432 0.712535 0.775253 0.712908C0.773558 0.713446 0.771824 0.714148 0.770331 0.715138" fill="#668DDB"/>
<path fill-rule="evenodd" clip-rule="evenodd" d="M0.770993 0.71251C0.771019 0.712061 0.771425 0.711459 0.771532 0.710996C0.77182 0.709749 0.771935 0.708464 0.771887 0.707169C0.771844 0.706048 0.771693 0.704916 0.771385 0.7038C0.771053 0.70259 0.770545 0.701402 0.769848 0.700271C0.769773 0.70015 0.769313 0.699282 0.769046 0.69933C0.768601 0.69941 0.768244 0.700354 0.768105 0.700626C0.767938 0.700953 0.7678 0.701289 0.767681 0.701629C0.767471 0.70223 0.767311 0.702842 0.767204 0.703469C0.766757 0.706089 0.767083 0.708965 0.768303 0.711572C0.768635 0.712283 0.769166 0.713552 0.770019 0.714045" fill="#668DDB"/>
<path fill-rule="evenodd" clip-rule="evenodd" d="M0.619406 0.690069C0.619406 0.690069 0.613491 0.679505 0.619816 0.674265C0.619816 0.674265 0.625655 0.680102 0.619406 0.690069Z" fill="#668DDB"/>
<path fill-rule="evenodd" clip-rule="evenodd" d="M0.619588 0.691249C0.619588 0.691249 0.610214 0.693153 0.604463 0.686212C0.604182 0.685188 0.615006 0.683109 0.619588 0.691249Z" fill="#668DDB"/>
<path fill-rule="evenodd" clip-rule="evenodd" d="M0.631947 0.71571C0.631947 0.71571 0.622522 0.714074 0.61969 0.705516C0.619801 0.704461 0.630639 0.706461 0.631947 0.71571Z" fill="#668DDB"/>
<path fill-rule="evenodd" clip-rule="evenodd" d="M0.633904 0.716996C0.633904 0.716996 0.639883 0.709529 0.636338 0.701241C0.635556 0.700523 0.628759 0.7092 0.633904 0.716996Z" fill="#668DDB"/>
<path d="M0.604492 0.673096C0.604492 0.673096 0.634726 0.699607 0.642377 0.747876" stroke="#668DDB" stroke-width="0.00219619" stroke-miterlimit="2.28659" stroke-linecap="round" stroke-linejoin="round"/>
<path fill-rule="evenodd" clip-rule="evenodd" d="M0.595734 0.665387L0.600073 0.669556C0.60025 0.669726 0.600531 0.669719 0.600702 0.669541C0.600872 0.669364 0.600868 0.669082 0.600692 0.668913L0.596369 0.664758C0.597085 0.664092 0.597902 0.663469 0.598829 0.662905L0.602799 0.66672C0.602976 0.66689 0.603257 0.666882 0.603428 0.666705C0.603598 0.666527 0.603594 0.666246 0.603417 0.666076L0.599641 0.662447C0.600397 0.662046 0.601218 0.661682 0.602114 0.661363C0.602939 0.661867 0.603737 0.662479 0.604484 0.663197C0.60869 0.66724 0.609643 0.673089 0.606607 0.676249C0.603571 0.679408 0.597688 0.678688 0.593482 0.674646C0.592882 0.67407 0.592349 0.673458 0.591886 0.672824C0.592091 0.671914 0.592373 0.670977 0.592756 0.670044L0.596316 0.673466C0.596493 0.673636 0.596774 0.673628 0.596945 0.673451C0.597115 0.673273 0.597111 0.672992 0.596935 0.672822L0.59314 0.669175C0.593407 0.668622 0.593708 0.668071 0.594054 0.667532L0.596793 0.670164C0.596972 0.670337 0.597254 0.670329 0.597424 0.670152C0.597595 0.669974 0.597591 0.669693 0.597412 0.669521L0.594567 0.666787C0.594917 0.666306 0.595305 0.665839 0.595734 0.665387Z" fill="#FDDB81"/>
<path fill-rule="evenodd" clip-rule="evenodd" d="M0.33429 0.299427L0.339434 0.293661L0.348044 0.306446L0.34271 0.310744L0.33429 0.299427ZM0.347727 0.281554L0.356302 0.293281L0.361482 0.289469L0.353071 0.275818L0.347727 0.281554Z" fill="#FD4C3D"/>
<path fill-rule="evenodd" clip-rule="evenodd" d="M0.622542 0.266461L0.636909 0.254283L0.640236 0.26104L0.625884 0.271453L0.622542 0.266461ZM0.605957 0.257259L0.614043 0.241943L0.619713 0.247003L0.611473 0.259027L0.605957 0.257259Z" fill="#FD4C3D"/>
</svg>
