<svg width="50" height="43" viewBox="0 0 50 43" fill="none" xmlns="http://www.w3.org/2000/svg">
<g clip-path="url(#clip0)">
<path d="M18.2305 2.31394C18.2305 2.31394 25.4511 -2.50434 31.6128 1.76477" stroke="#FFD274" stroke-width="0.1" stroke-miterlimit="2.28659" stroke-linecap="round" stroke-linejoin="round"/>
<path d="M19.2676 5.42432C21.1637 4.39977 26.3008 2.15397 31.0443 4.7915" stroke="#FFD274" stroke-width="0.1" stroke-miterlimit="2.28659" stroke-linecap="round" stroke-linejoin="round"/>
<path fill-rule="evenodd" clip-rule="evenodd" d="M31.4488 1.49253C31.4658 1.41908 31.5391 1.37324 31.6127 1.39027L31.8789 1.45187C31.9522 1.46885 31.9981 1.54228 31.9811 1.61573L30.2214 9.21882C30.2044 9.29227 30.1309 9.33807 30.0576 9.32108L29.7914 9.25949C29.7178 9.24245 29.6721 9.16908 29.6891 9.09563L31.4488 1.49253Z" fill="#A52929"/>
<path fill-rule="evenodd" clip-rule="evenodd" d="M18.4962 2.07128C18.4774 1.99827 18.403 1.95426 18.3299 1.97312L18.0654 2.04129C17.9924 2.0601 17.9484 2.13465 17.9672 2.20765L19.9152 9.7647C19.934 9.8377 20.0086 9.88165 20.0816 9.86285L20.3461 9.79467C20.4192 9.77581 20.4631 9.70131 20.4443 9.62831L18.4962 2.07128Z" fill="#A52929"/>
<path fill-rule="evenodd" clip-rule="evenodd" d="M10.4265 3.31486C10.4265 3.31486 10.7159 2.74969 11.1509 3.01165C11.1509 3.01165 11.3312 2.88356 11.4199 2.82051C11.4269 2.81557 11.4362 2.81562 11.4431 2.82065C11.4501 2.82568 11.453 2.83454 11.4504 2.84268C11.4196 2.94091 11.3593 3.13314 11.3593 3.13314C11.3593 3.13314 11.7487 4.11589 11.1519 4.83334C10.9796 5.04054 9.94201 6.08639 8.9587 5.00932C8.90754 4.95319 8.88427 4.87709 8.89524 4.80196C8.91613 4.65623 8.97601 4.41279 9.1431 4.27073L9.46649 4.45823C9.34315 4.32255 9.2262 4.18191 9.1431 4.01515C9.1431 4.01515 8.9076 3.06106 9.57859 2.38696C9.59089 2.37474 9.60825 2.36907 9.62539 2.37174C9.64253 2.37441 9.65739 2.38504 9.66538 2.40043C9.77065 2.60413 10.112 3.22046 10.4265 3.31486Z" fill="#69BAC9"/>
<path fill-rule="evenodd" clip-rule="evenodd" d="M9.05754 3.47797C9.13659 3.64389 9.32119 3.98679 9.57802 4.18443C9.60232 4.20312 9.60684 4.23803 9.58815 4.26233C9.56946 4.28661 9.53455 4.29116 9.51025 4.27247C9.30705 4.11607 9.14425 3.8695 9.04102 3.68497C9.04313 3.61145 9.04952 3.54451 9.05754 3.47797ZM9.17194 3.03403C9.21021 3.13518 9.41052 3.63545 9.72323 3.90435C9.74647 3.92435 9.74911 3.95943 9.72914 3.98268C9.70915 4.00592 9.67404 4.00856 9.65079 3.98859C9.39183 3.7659 9.20502 3.39328 9.11709 3.19217C9.13345 3.13557 9.15186 3.08291 9.17194 3.03403ZM9.38575 2.66797C9.38694 2.67036 9.38799 2.67291 9.38885 2.67555C9.38885 2.67555 9.58019 3.26316 9.93359 3.57634C9.95653 3.59667 9.95863 3.63181 9.9383 3.65475C9.91797 3.67769 9.88284 3.67983 9.8599 3.6595C9.56275 3.39615 9.373 2.94962 9.3082 2.77909C9.33581 2.73618 9.36178 2.69955 9.38575 2.66797Z" fill="white"/>
<path fill-rule="evenodd" clip-rule="evenodd" d="M10.373 3.35798L10.4335 3.26172C10.4335 3.26172 10.5504 3.33274 10.6495 3.34704C10.6799 3.35143 10.701 3.37962 10.6966 3.40995C10.6922 3.4403 10.664 3.46138 10.6337 3.457C10.5254 3.44139 10.373 3.35798 10.373 3.35798Z" fill="black"/>
<path fill-rule="evenodd" clip-rule="evenodd" d="M9.1875 4.14844C9.1875 4.14844 9.47513 4.57685 9.92029 4.66731C9.95034 4.67339 9.98106 4.6707 9.99514 4.64348C10.0092 4.61623 10.0006 4.57752 9.97131 4.5686C9.6198 4.46181 9.47454 4.31297 9.47454 4.31297L9.1875 4.14844Z" fill="black"/>
<path fill-rule="evenodd" clip-rule="evenodd" d="M39.8135 8.35392C39.8135 8.35392 39.5241 7.78875 39.0891 8.05071C39.0891 8.05071 38.9088 7.92262 38.8201 7.85957C38.8131 7.85463 38.8038 7.85469 38.7969 7.85971C38.79 7.86474 38.7871 7.8736 38.7896 7.88174C38.8204 7.97997 38.8807 8.1722 38.8807 8.1722C38.8807 8.1722 38.4913 9.15495 39.0881 9.87241C39.2604 10.0796 40.298 11.1255 41.2813 10.0484C41.3325 9.99225 41.3558 9.91615 41.3448 9.84102C41.3239 9.69529 41.264 9.45185 41.0969 9.30979L40.7735 9.49729C40.8969 9.36162 41.0138 9.22097 41.0969 9.05421C41.0969 9.05421 41.3324 8.10012 40.6614 7.42602C40.6491 7.4138 40.6318 7.40814 40.6146 7.4108C40.5975 7.41347 40.5826 7.42411 40.5747 7.43949C40.4694 7.64319 40.128 8.25952 39.8135 8.35392Z" fill="#69BAC9"/>
<path fill-rule="evenodd" clip-rule="evenodd" d="M41.1819 8.51703C41.1028 8.68295 40.9182 9.02585 40.6614 9.22349C40.6371 9.24218 40.6326 9.27709 40.6513 9.30139C40.67 9.32567 40.7049 9.33022 40.7292 9.31153C40.9324 9.15514 41.0952 8.90856 41.1984 8.72403C41.1963 8.65051 41.1899 8.58358 41.1819 8.51703ZM41.0675 8.07309C41.0292 8.17424 40.8289 8.67451 40.5162 8.94342C40.493 8.96341 40.4903 8.99849 40.5103 9.02174C40.5303 9.04498 40.5654 9.04762 40.5886 9.02765C40.8476 8.80496 41.0344 8.43235 41.1223 8.23124C41.106 8.17463 41.0876 8.12197 41.0675 8.07309ZM40.8537 7.70703C40.8525 7.70942 40.8514 7.71197 40.8506 7.71461C40.8506 7.71461 40.6592 8.30223 40.3058 8.61541C40.2829 8.63574 40.2808 8.67087 40.3011 8.69381C40.3215 8.71675 40.3566 8.71889 40.3795 8.69856C40.6767 8.43521 40.8664 7.98869 40.9312 7.81815C40.9036 7.77524 40.8777 7.73861 40.8537 7.70703Z" fill="white"/>
<path fill-rule="evenodd" clip-rule="evenodd" d="M39.8651 8.39705L39.8046 8.30078C39.8046 8.30078 39.6878 8.3718 39.5886 8.3861C39.5583 8.39049 39.5372 8.41868 39.5416 8.44901C39.546 8.47937 39.5741 8.50045 39.6045 8.49606C39.7127 8.48045 39.8651 8.39705 39.8651 8.39705Z" fill="black"/>
<path fill-rule="evenodd" clip-rule="evenodd" d="M41.0506 9.1875C41.0506 9.1875 40.763 9.61591 40.3178 9.70637C40.2877 9.71246 40.257 9.70976 40.2429 9.68254C40.2289 9.6553 40.2374 9.61658 40.2668 9.60766C40.6183 9.50087 40.7635 9.35203 40.7635 9.35203L41.0506 9.1875Z" fill="black"/>
<path fill-rule="evenodd" clip-rule="evenodd" d="M5.89193 30.5759L5.9079 28.457H6.07453L6.05857 30.6176C6.05857 30.6448 6.04526 30.6703 6.02289 30.6859C6.02289 30.6859 5.50519 31.0425 5.3775 31.5402C6.51188 30.9986 7.27121 30.7992 8.31536 30.7587C9.01639 30.7312 9.712 30.9053 10.4567 31.1947L10.3889 28.462L10.5555 28.457L10.627 31.3161C10.6278 31.3441 10.6145 31.3708 10.5914 31.3869C10.5684 31.403 10.5388 31.4063 10.5127 31.3958C9.7469 31.0886 9.03756 30.897 8.32188 30.925C7.25715 30.9667 6.49549 31.178 5.30547 31.7602C5.27858 31.7732 5.24674 31.771 5.22197 31.7541C5.19724 31.7371 5.18345 31.7085 5.18581 31.6785C5.22994 31.1239 5.74979 30.6859 5.89193 30.5759Z" fill="#FF7867"/>
<path fill-rule="evenodd" clip-rule="evenodd" d="M26.939 41.6612C26.8551 41.477 26.5846 41.0843 25.7703 40.9307C25.7378 40.9246 25.712 40.8996 25.7047 40.8674L25.0473 37.9895L25.2081 37.9414L25.855 40.7777C27.0226 41.0182 27.1379 41.7298 27.1379 41.7298C27.142 41.7539 27.1354 41.7789 27.1195 41.7978C27.1037 41.8167 27.0804 41.8278 27.0557 41.8278H21.3256C21.2876 41.8278 21.2545 41.802 21.2448 41.7653L20.5996 39.3182L20.7521 39.2723L21.3901 41.6612H26.939Z" fill="#FF7867"/>
<path fill-rule="evenodd" clip-rule="evenodd" d="M5.93381 28.4103H10.5838V20.0556L16.8721 24.2167L20.5597 39.2591L25.1682 37.8823L21.9928 20.6068L15.2646 16.2072C15.2646 16.2072 12.3142 14.6869 9.69507 13.3374C8.85732 12.9057 7.85463 12.9447 7.05296 13.4402C6.25129 13.9357 5.768 14.8151 5.7795 15.7574C5.84135 20.8297 5.93381 28.4103 5.93381 28.4103Z" fill="#668DDB"/>
<path fill-rule="evenodd" clip-rule="evenodd" d="M18.0997 18.0781L18.2394 18.1693L17.5334 19.2949L17.9089 19.5944L18.6588 18.4437L18.7982 18.5349L17.9983 19.7622C17.9855 19.7819 17.965 19.7952 17.9416 19.7989C17.9186 19.8027 17.895 19.7964 17.8764 19.7818L17.3712 19.3788C17.3381 19.3523 17.3301 19.3052 17.3526 19.2693L18.0988 18.0795L18.0997 18.0781Z" fill="#3768BE"/>
<path fill-rule="evenodd" clip-rule="evenodd" d="M7.19686 13.642C7.16861 13.6275 7.13453 13.6303 7.10904 13.6493C6.14867 14.3638 6.07654 15.1806 6.07654 15.1806C6.07368 15.211 6.08768 15.2406 6.11306 15.2576C6.13845 15.2746 6.17111 15.2764 6.19819 15.2622C6.21785 15.2519 6.24668 15.2519 6.28082 15.2539C6.3287 15.2567 6.38455 15.267 6.4441 15.2817C6.74092 15.3551 7.12306 15.5365 7.12306 15.5365C7.14317 15.5461 7.16628 15.5472 7.18719 15.5396C7.20813 15.532 7.22513 15.5163 7.23443 15.4961C7.49584 14.9285 8.06346 14.4983 8.06346 14.4983C8.08137 14.4847 8.09301 14.4645 8.09579 14.4422C8.09854 14.4199 8.09218 14.3974 8.07812 14.3799C7.69012 13.8953 7.19686 13.642 7.19686 13.642ZM7.16583 13.8153C6.51529 14.316 6.31964 14.8592 6.26365 15.0866C6.32614 15.0873 6.40227 15.0997 6.48407 15.1199C6.71237 15.1763 6.98902 15.2936 7.11948 15.3518C7.34798 14.9067 7.73884 14.5516 7.8952 14.4203C7.6103 14.088 7.28351 13.8831 7.16583 13.8153Z" fill="#3768BE"/>
<path fill-rule="evenodd" clip-rule="evenodd" d="M5.92976 27.7291L5.92773 27.5625H10.5889V27.7291H9.39986V28.4804H9.23322V27.7291H9.02581V28.4804H8.85916V27.7291H6.93518V28.4804H6.76854V27.7291H5.92976Z" fill="#3768BE"/>
<path fill-rule="evenodd" clip-rule="evenodd" d="M24.9704 37.0469L25.0007 37.2116L23.4712 37.6451L23.702 38.2087L23.5412 38.2556L23.3098 37.691L23.1823 37.7271L23.3809 38.3023L23.2209 38.3492L23.0218 37.7726L21.4279 38.2245L21.6181 38.8172L21.4581 38.8638L21.2673 38.27L20.3424 38.5322L20.3027 38.3703L24.9704 37.0469Z" fill="#3768BE"/>
<path fill-rule="evenodd" clip-rule="evenodd" d="M21.8527 30.1837C21.8311 30.1879 21.8119 30.2006 21.7994 30.219C21.7872 30.2373 21.7825 30.2598 21.7866 30.2815L22.053 31.6468C22.0572 31.6688 22.0699 31.6879 22.0885 31.7002C22.1072 31.7127 22.1299 31.7171 22.1516 31.7127L23.4625 31.4419C23.4842 31.4374 23.5033 31.4246 23.5153 31.406C23.5275 31.3874 23.5317 31.3649 23.5272 31.3433L23.2434 29.9996C23.2339 29.9551 23.1906 29.9265 23.1462 29.9351L21.8527 30.1837ZM21.9663 30.3317L22.2005 31.5324L23.3467 31.2958L23.0973 30.1143L21.9663 30.3317Z" fill="#3768BE"/>
<path fill-rule="evenodd" clip-rule="evenodd" d="M21.3418 19.7619C21.504 20.688 22.2556 23.5555 24.6238 23.1911C25.4351 23.0662 26.8694 22.3568 26.7688 19.4495C26.6616 16.3361 26.6 14.1626 26.2753 11.7665C26.2253 11.3956 26.0948 11.0472 25.9373 10.8406C25.7895 10.647 25.6123 10.6853 25.6809 10.9612C25.3574 10.5749 25.0007 10.5933 25.1088 10.882C25.1088 10.882 24.6655 10.7006 24.828 11.1338C24.828 11.1338 24.4491 11.0326 24.5855 11.3779C24.7055 11.6814 24.6319 12.7624 24.5744 12.8205C24.4966 12.8988 24.4591 12.5214 24.1722 12.2965C24.0823 12.2262 23.9262 12.1802 23.9298 12.5603C23.9298 12.5603 23.6837 16.5711 23.1829 19.158L21.3418 19.7619Z" fill="#E0755E"/>
<path fill-rule="evenodd" clip-rule="evenodd" d="M25.1312 13.3929C25.0896 13.3067 25.034 13.2246 24.9821 13.1562C24.904 13.0533 24.8104 12.9678 24.7082 12.8895C24.7007 12.8836 24.6016 12.815 24.6016 12.815C24.636 12.8347 24.6616 12.7825 24.6652 12.7422C24.6774 12.7505 24.7638 12.8039 24.7702 12.8089C24.8793 12.8928 24.9793 12.9846 25.0629 13.0948C25.1093 13.1558 25.1576 13.227 25.1981 13.3024C25.3265 13.1529 25.5134 13.0454 25.705 13.0258C25.7331 13.023 25.7581 13.0433 25.7608 13.0712C25.7636 13.0991 25.7433 13.1241 25.7156 13.1269C25.5339 13.1454 25.3576 13.2553 25.2468 13.4039C25.2701 13.4602 25.2873 13.5174 25.2948 13.5732C25.2995 13.609 25.292 13.7021 25.2609 13.7535C25.2445 13.7801 25.2226 13.7975 25.1973 13.8039C25.1729 13.8101 25.1426 13.8073 25.1079 13.7828C25.0601 13.7491 25.0418 13.6954 25.0443 13.6353C25.0471 13.5647 25.0801 13.4851 25.1037 13.4404C25.1123 13.4243 25.1215 13.4085 25.1312 13.3929ZM25.1793 13.5168C25.1637 13.5517 25.1476 13.5975 25.1457 13.6395C25.1448 13.6633 25.1473 13.6864 25.1662 13.6998C25.1679 13.7009 25.1701 13.702 25.1718 13.703C25.1745 13.6987 25.1787 13.6914 25.1809 13.6859C25.1937 13.6518 25.1968 13.6062 25.194 13.5867C25.1909 13.5636 25.1859 13.5402 25.1793 13.5168Z" fill="#A52929"/>
<path fill-rule="evenodd" clip-rule="evenodd" d="M24.8594 11.0919L24.8258 10.9648C24.8258 10.9648 25.1202 11.3988 25.2091 12.2943C25.213 12.3325 25.1858 12.3668 25.1477 12.3709C25.1097 12.3751 25.0741 12.3477 25.0711 12.3095C25.0105 11.5641 24.765 11.0615 24.75 11.0785L24.8594 11.0919Z" fill="#A52929" fill-opacity="0.86"/>
<path fill-rule="evenodd" clip-rule="evenodd" d="M25.1119 10.668C25.0794 10.7122 25.0863 10.7745 25.1077 10.8434L25.0469 10.8237C25.0469 10.8237 25.4135 11.5438 25.4293 12.2609C25.4302 12.2993 25.4618 12.3297 25.5001 12.3288C25.5385 12.328 25.569 12.2962 25.5682 12.2579C25.5493 11.4028 25.1119 10.668 25.1119 10.668Z" fill="#A52929" fill-opacity="0.86"/>
<path fill-rule="evenodd" clip-rule="evenodd" d="M25.6405 10.6746C25.6349 10.7026 25.6402 10.7559 25.6522 10.8265C25.6086 10.7592 25.5538 10.7084 25.4922 10.668C25.4922 10.668 25.8069 11.6497 25.8349 12.1656C25.8371 12.2039 25.8699 12.2332 25.908 12.2311C25.9463 12.2291 25.9757 12.1963 25.9735 12.158C25.9463 11.6592 25.6405 10.6746 25.6405 10.6746Z" fill="#A52929" fill-opacity="0.86"/>
<path fill-rule="evenodd" clip-rule="evenodd" d="M22.8242 19.3735C22.8242 19.3735 22.8401 19.8729 22.8592 20.4733C22.8612 20.5307 22.9075 20.5766 22.965 20.5779C23.0222 20.5791 23.0706 20.5351 23.075 20.4778C23.1236 19.8222 23.165 19.2617 23.165 19.2617L22.8242 19.3735Z" fill="#A52929"/>
<path fill-rule="evenodd" clip-rule="evenodd" d="M18.9688 12.6712L19.2295 12.2763C19.2295 12.2763 19.217 12.2598 19.1965 12.2324C18.9296 11.8779 18.9196 11.3923 19.1718 11.0271C19.5287 10.5098 20.1066 9.91115 20.7849 10.1151C20.7849 10.1151 21.8611 10.5332 21.5126 11.5688L21.4683 11.76C21.4683 11.76 21.8656 11.9533 21.5126 12.2763C21.5126 12.2763 21.234 12.5264 21.0093 12.3778L20.8834 13.6621C20.8834 13.6621 19.4473 13.9674 18.9688 12.6712Z" fill="#E0755E"/>
<path fill-rule="evenodd" clip-rule="evenodd" d="M19.1994 12.1484L19.1172 12.2773C19.1172 12.2773 19.2322 12.3732 19.308 12.4195C19.5188 12.5485 19.8315 12.659 20.2809 12.6458C20.3267 12.6444 20.3631 12.606 20.3617 12.56C20.3604 12.5141 20.3217 12.4778 20.2759 12.4792C19.8693 12.4912 19.5857 12.3941 19.3949 12.2773C19.3233 12.2336 19.1994 12.1484 19.1994 12.1484Z" fill="#A52929"/>
<path fill-rule="evenodd" clip-rule="evenodd" d="M21.4389 11.7436L21.4792 11.5749C21.4792 11.5749 21.4103 11.5559 21.3686 11.5548C21.2692 11.5521 21.1342 11.5872 20.9329 11.7241C20.8948 11.75 20.8851 11.8019 20.9109 11.8399C20.9368 11.8779 20.9887 11.8878 21.0267 11.8619C21.1839 11.7548 21.2864 11.7193 21.3642 11.7214C21.4031 11.7224 21.4389 11.7436 21.4389 11.7436Z" fill="#A52929"/>
<path fill-rule="evenodd" clip-rule="evenodd" d="M20.7753 12.5902L20.93 12.7084L20.9589 12.5092L20.8875 12.4671C20.8536 12.4361 20.8008 12.4385 20.7697 12.4725C20.7389 12.5064 20.7411 12.5592 20.7753 12.5902Z" fill="#A52929"/>
<path fill-rule="evenodd" clip-rule="evenodd" d="M19.9641 11.5635C19.8795 11.618 19.8197 11.7315 19.8912 11.8196C19.9365 11.8754 20.0055 11.8974 20.0818 11.896C20.1769 11.8942 20.2837 11.8554 20.3488 11.8254C20.3765 11.8125 20.3885 11.7795 20.3758 11.7517C20.3629 11.7239 20.33 11.7117 20.3022 11.7246C20.2478 11.7497 20.1591 11.7835 20.0796 11.785C20.0394 11.7857 20.0014 11.779 19.9775 11.7496C19.9675 11.7374 19.9689 11.7236 19.9745 11.7111C19.984 11.6893 20.0038 11.67 20.024 11.6568C20.0499 11.6402 20.0574 11.6059 20.0406 11.5801C20.024 11.5544 19.9897 11.5469 19.9641 11.5635Z" fill="#A52929"/>
<path fill-rule="evenodd" clip-rule="evenodd" d="M20.418 11.8972C20.5791 11.8227 20.5598 11.6704 20.4952 11.6109C20.4504 11.5698 20.3809 11.5523 20.3051 11.555C20.2051 11.5585 20.0944 11.5958 20.0333 11.6354C20.0074 11.652 20.0001 11.6864 20.0167 11.7121C20.0333 11.7379 20.0676 11.7453 20.0932 11.7287C20.142 11.6973 20.2298 11.6687 20.309 11.6659C20.3529 11.6644 20.3943 11.669 20.4202 11.6927C20.445 11.7156 20.4336 11.7676 20.3714 11.7964C20.3434 11.8092 20.3314 11.8423 20.3441 11.8701C20.357 11.8979 20.3899 11.91 20.418 11.8972Z" fill="#A52929"/>
<path fill-rule="evenodd" clip-rule="evenodd" d="M16.2556 12.0341C16.2556 12.0341 17.1791 11.8823 18.8708 12.6049C18.8847 12.6108 18.925 12.6301 18.925 12.6301L18.8817 12.5132L18.9094 12.4695C18.9094 12.4695 18.8847 12.4609 18.8708 12.4549C17.1141 11.704 16.2198 11.8714 16.2198 11.8714C16.1748 11.8812 16.1465 11.9257 16.1562 11.9706C16.1662 12.0156 16.2106 12.044 16.2556 12.0341Z" fill="black"/>
<path fill-rule="evenodd" clip-rule="evenodd" d="M20.9126 13.3359L20.8965 13.5034C20.8965 13.5034 20.9156 13.5113 20.9262 13.5157C21.3298 13.686 22.4724 14.2841 23.5025 15.918C23.5203 15.9464 23.5561 16.0043 23.5561 16.0043L23.5853 15.7327C23.5853 15.7327 23.5689 15.7128 23.5561 15.6934C22.4943 14.0756 21.3367 13.5012 20.9534 13.3465C20.9437 13.3426 20.9126 13.3359 20.9126 13.3359Z" fill="black"/>
<path fill-rule="evenodd" clip-rule="evenodd" d="M15.3941 16.1767L15.9118 15.8826C15.9479 15.8539 15.9537 15.8015 15.9251 15.7655C15.8965 15.7295 15.8495 15.6879 15.8134 15.7166L15.2656 16.0305L15.3941 16.1767Z" fill="black"/>
<path fill-rule="evenodd" clip-rule="evenodd" d="M15.5642 14.3264L16.0055 16.6314L16.2016 16.7573L15.7275 14.2934C15.7184 14.2483 15.6744 14.2191 15.6293 14.2282C15.5842 14.2373 15.5551 14.2813 15.5642 14.3264Z" fill="black"/>
<path fill-rule="evenodd" clip-rule="evenodd" d="M20.603 17.5867L20.9687 19.9053L21.2715 20.103L20.7668 17.5566C20.7585 17.5113 20.7152 17.4814 20.6699 17.4897C20.6246 17.498 20.5946 17.5415 20.603 17.5867Z" fill="black"/>
<path fill-rule="evenodd" clip-rule="evenodd" d="M20.6016 19.566L20.6729 17.4883C20.9576 18.2611 21.0876 19.1404 21.2331 19.9791C21.0196 19.8375 20.8124 19.7052 20.6016 19.566Z" fill="black"/>
<path fill-rule="evenodd" clip-rule="evenodd" d="M18.8914 5.62891C15.2284 8.02591 13.5698 9.25177 10.6287 12.554C9.88502 13.3872 9.71676 14.5864 10.2024 15.5921C10.3047 15.8014 10.4321 16.0191 10.592 16.2413C11.432 17.4091 13.0311 17.7302 14.2567 16.9773C14.8952 16.5851 15.4548 16.2413 15.4548 16.2413L13.8918 14.4794L19.7471 8.65879C19.7471 8.65879 20.2104 8.37064 20.2476 8.76697C20.2476 8.76697 20.6315 8.75331 20.5679 8.16081C20.5679 8.16081 20.9611 7.8819 20.732 7.46568C20.732 7.46568 20.9661 6.97044 20.5679 6.63024C20.5679 6.63024 20.5931 6.15678 20.0971 6.01235C20.0971 6.01235 19.5488 5.82924 19.0067 6.01235L18.8914 5.62891Z" fill="#E0755E"/>
<path fill-rule="evenodd" clip-rule="evenodd" d="M13.8646 14.5195L13.9751 14.6443L13.0318 15.4991C12.9978 15.53 12.945 15.5274 12.9141 15.4933C12.8833 15.4592 12.8859 15.4065 12.9199 15.3756L13.8646 14.5195Z" fill="#A52929"/>
<path fill-rule="evenodd" clip-rule="evenodd" d="M20.574 8.24538C20.4724 8.0666 20.2774 8.00388 20.0794 7.98838C19.7336 7.9613 19.3714 8.08059 19.3714 8.08059C19.3275 8.09495 19.2806 8.07112 19.2661 8.02743C19.2517 7.98375 19.2756 7.93661 19.3192 7.92228C19.3192 7.92228 19.715 7.79269 20.0924 7.82224C20.3263 7.84054 20.551 7.91984 20.6865 8.11203C20.6432 8.16083 20.574 8.22463 20.574 8.22463V8.24538ZM20.7265 7.53859C20.0741 7.05787 19.2098 7.42538 19.2098 7.42538C19.1673 7.44324 19.1184 7.42332 19.1006 7.38094C19.0828 7.33856 19.1028 7.28965 19.145 7.27182C19.145 7.27182 20.0682 6.88643 20.7865 7.37697C20.7762 7.42427 20.7556 7.50073 20.7265 7.53859ZM20.574 6.70015C19.7483 6.35867 18.9401 6.79088 18.9401 6.79088C18.8995 6.81255 18.849 6.79719 18.8273 6.75664C18.8056 6.71606 18.8209 6.66554 18.8615 6.64388C18.8615 6.64388 19.6827 6.20621 20.5487 6.51223C20.5582 6.5525 20.5801 6.65185 20.574 6.70015ZM18.9673 5.92578C18.9798 5.96761 19.0059 6.05715 19.0142 6.08637L18.6373 6.23446C18.5946 6.25129 18.546 6.23018 18.5293 6.18738C18.5123 6.14456 18.5335 6.09617 18.5762 6.07937L18.9673 5.92578Z" fill="#A52929"/>
<path fill-rule="evenodd" clip-rule="evenodd" d="M29.8104 8.82564C29.8004 8.92096 29.757 9.00975 29.6882 9.07641C29.6354 9.12804 29.5718 9.1607 29.5154 9.11177C29.4768 9.07833 29.4193 8.85441 29.3985 8.76509C29.3985 8.76509 29.3318 8.54629 29.4871 8.31993C29.4871 8.31993 29.1793 8.09918 29.4657 7.76459C29.4657 7.76459 29.2846 7.39362 29.5998 7.17837C29.5998 7.17837 29.3852 6.82031 29.9254 6.47097C30.0851 6.3677 30.5619 5.94479 31.4438 6.53007L33.869 8.1469L32.3025 10.6014C32.3025 10.6014 30.2206 8.59595 30.044 8.56362C30.044 8.56362 29.8465 8.45547 29.8104 8.82564Z" fill="#A52929"/>
<path fill-rule="evenodd" clip-rule="evenodd" d="M29.3438 8.27322C29.4668 8.14426 29.6837 7.95226 29.9687 7.9486C30.1536 7.94621 30.3492 8.00501 30.5627 8.23353C30.5994 8.27272 30.6108 8.31691 30.5716 8.35354C30.5325 8.39017 30.4708 8.38809 30.4342 8.3489C30.27 8.17326 30.113 8.10871 29.9708 8.11052C29.7342 8.11357 29.534 8.29508 29.4415 8.39892C29.364 8.34576 29.359 8.31674 29.3438 8.27322ZM29.3754 7.66758C29.3787 7.74929 29.3876 7.76604 29.4218 7.83578C29.4218 7.83578 29.6029 7.63919 29.7695 7.57262C29.9662 7.49413 30.2339 7.48361 30.5814 7.65192C30.6297 7.6753 30.688 7.65505 30.7113 7.60678C30.7347 7.55848 30.7077 7.52574 30.6594 7.50238C30.245 7.30174 29.9456 7.34732 29.7112 7.44089C29.5729 7.49616 29.3754 7.66758 29.3754 7.66758ZM29.5151 7.10974C29.5187 7.19337 29.5262 7.17018 29.5496 7.25211C29.5496 7.25211 29.57 7.23994 29.5772 7.23417C29.7866 7.0675 30.2372 6.81334 30.7852 7.08433C30.8333 7.1081 30.8779 7.09938 30.9018 7.0513C30.9257 7.0032 30.8949 6.9779 30.8469 6.95412C30.27 6.66891 29.8166 6.90024 29.5464 7.08766C29.5381 7.0933 29.5151 7.10974 29.5151 7.10974Z" fill="black"/>
<path fill-rule="evenodd" clip-rule="evenodd" d="M23.7145 15.8697C23.7145 15.8697 23.6565 12.3068 24.2322 11.9632C24.2322 11.9632 24.4314 11.9212 24.4764 12.2908C24.4764 12.2908 25.1888 11.1561 25.6409 10.9836C25.7117 10.9566 25.9239 10.9218 25.8712 11.1729C25.8712 11.1729 26.1425 11.0805 26.1767 11.4251C26.1767 11.4251 26.4861 11.4278 26.4386 11.7572C26.4386 11.7572 26.7386 11.8538 26.5714 12.1926C26.5714 12.1926 25.8689 13.383 26.3486 15.9852L23.7145 15.8697Z" fill="#A52929"/>
<path fill-rule="evenodd" clip-rule="evenodd" d="M26.4495 11.8599C26.4659 11.8625 26.5259 11.8822 26.5659 11.9443C26.4548 12.0338 26.129 12.3371 25.6746 13.0969C25.6549 13.1298 25.6121 13.1406 25.5793 13.1209C25.5463 13.1012 25.5357 13.0586 25.5554 13.0257C25.9779 12.3194 26.3026 11.987 26.4495 11.8599ZM24.4434 12.2145C24.4628 12.262 24.4784 12.3417 24.487 12.3954C24.3559 12.6076 24.2951 12.8448 24.2951 12.8448C24.2853 12.8819 24.2476 12.9042 24.2104 12.8947C24.1734 12.8851 24.1509 12.8472 24.1604 12.8101C24.1604 12.8101 24.244 12.4868 24.4242 12.2396C24.4273 12.2353 24.4395 12.2179 24.4434 12.2145ZM26.179 11.5278C26.1976 11.5262 26.2728 11.5305 26.3317 11.5717C26.1876 11.7131 25.6288 12.2764 25.2969 12.8296C25.2771 12.8624 25.2347 12.8731 25.2016 12.8534C25.1688 12.8337 25.158 12.791 25.1777 12.7582C25.483 12.2492 25.9759 11.7317 26.179 11.5278ZM25.8821 11.2708C25.9065 11.2644 26.0226 11.2441 26.0698 11.2983C25.8696 11.4487 25.3635 11.8971 24.9727 12.6346C24.9547 12.6684 24.9128 12.6814 24.8789 12.6634C24.845 12.6455 24.8319 12.6034 24.85 12.5696C25.1972 11.9143 25.6332 11.4799 25.8821 11.2708Z" fill="black"/>
<path fill-rule="evenodd" clip-rule="evenodd" d="M32.7529 11.6762C32.7529 11.6762 31.6519 15.4945 26.8262 16.5325C26.8262 16.5325 27.1842 15.0486 29.2186 13.8903L29.1725 12.6531C29.1725 12.6531 28.5298 12.8536 28.5209 12.26C28.5182 12.0933 28.6898 12.0234 28.8142 11.967C28.8142 11.967 29.1009 12.5358 29.6288 12.3031C29.8391 12.2104 30.2296 11.6768 30.3043 10.8031C30.3043 10.8031 30.6184 10.9242 30.6529 10.6719C30.6529 10.6719 30.8534 11.1711 31.005 11.5492C31.1053 11.7985 31.037 12.0838 30.8348 12.2606L30.9617 12.6697C30.9617 12.6697 31.9407 11.5249 32.7529 11.6762Z" fill="#A52929"/>
<path fill-rule="evenodd" clip-rule="evenodd" d="M30.2514 11.8642C30.2031 11.8859 30.1542 11.9189 30.1237 11.958C30.0845 12.0081 30.0715 12.0673 30.1056 12.1303C30.1345 12.1832 30.1851 12.2125 30.2434 12.2222C30.3189 12.2347 30.4072 12.2121 30.4606 12.1763C30.4861 12.1593 30.4931 12.1248 30.4758 12.0993C30.4589 12.0738 30.4245 12.0669 30.3989 12.084C30.3706 12.103 30.3264 12.1154 30.285 12.1146C30.252 12.114 30.2189 12.1061 30.2034 12.0773C30.1931 12.0586 30.1998 12.0413 30.2114 12.0264C30.2314 12.0005 30.2648 11.98 30.2967 11.9656C30.3248 11.9531 30.3373 11.9202 30.3248 11.8922C30.3123 11.8642 30.2792 11.8517 30.2514 11.8642Z" fill="black"/>
<path fill-rule="evenodd" clip-rule="evenodd" d="M30.4764 12.2012C30.5036 12.1831 30.5431 12.1542 30.5703 12.1183C30.6058 12.0713 30.6219 12.014 30.5897 11.9509C30.5689 11.9103 30.5292 11.8814 30.4781 11.868C30.4156 11.8516 30.335 11.8586 30.2673 11.8891C30.2392 11.9016 30.2267 11.9345 30.2392 11.9625C30.2517 11.9905 30.2848 12.003 30.3125 11.9905C30.3567 11.9706 30.4092 11.9647 30.4497 11.9755C30.4675 11.9801 30.4836 11.9872 30.4909 12.0014C30.5006 12.0204 30.4925 12.0371 30.4817 12.0513C30.4625 12.0766 30.4339 12.0961 30.4148 12.1088C30.3892 12.1259 30.3823 12.1604 30.3995 12.1859C30.4164 12.2114 30.4509 12.2182 30.4764 12.2012Z" fill="black"/>
<path fill-rule="evenodd" clip-rule="evenodd" d="M30.7908 12.1562L30.8272 12.2741C30.6616 12.428 30.3692 12.6381 29.9953 12.6537C29.9648 12.655 29.9387 12.6312 29.9376 12.6006C29.9362 12.5699 29.9601 12.544 29.9906 12.5428C30.3647 12.5271 30.6494 12.2981 30.7908 12.1562Z" fill="black"/>
<path fill-rule="evenodd" clip-rule="evenodd" d="M30.8937 13.0582L30.8262 12.834C30.8262 12.834 30.8656 12.7947 30.9117 12.7461L30.9995 13.0249C31.0086 13.0541 30.9925 13.0854 30.9631 13.0945C30.9339 13.1038 30.9028 13.0875 30.8937 13.0582Z" fill="black"/>
<path fill-rule="evenodd" clip-rule="evenodd" d="M28.5677 11.4073C28.33 11.5043 28.0575 11.5308 27.8045 11.5002C27.2571 11.434 26.7685 11.0974 26.4061 10.6966C26.1433 10.406 25.9414 10.0612 25.5995 9.85306C25.1318 9.56849 24.6269 9.77077 24.1283 9.84753C23.2746 9.97899 22.3014 9.79826 21.8417 8.98379C21.7184 8.76577 21.6509 8.52061 21.6401 8.27059C21.627 7.97204 21.7056 7.67022 21.8362 7.40326C22.2439 6.56888 23.2429 6.00548 24.1592 6.31047C24.5958 6.45575 24.9571 6.77554 25.2357 7.1336C25.4845 7.45353 25.6454 7.82151 25.8309 8.17888C25.9192 8.34882 26.0175 8.58029 26.1964 8.67431C26.4014 8.78199 26.5983 8.5996 26.7377 8.46753C26.9952 8.22376 27.2885 7.94608 27.6584 7.90611C28.0764 7.86095 28.3625 8.19271 28.553 8.52033C28.898 9.11366 29.0293 9.72694 29.0677 10.388C29.1615 10.3251 29.2721 10.268 29.4015 10.219C29.4015 10.219 30.343 9.96482 30.5872 10.6905C30.5872 10.6905 30.5697 10.987 30.2386 10.8218C30.2386 10.8218 30.2836 12.1573 29.4251 12.3664C29.281 12.4014 28.993 12.4279 28.7049 12.0053C28.7049 12.0053 28.5827 11.7417 28.5677 11.4073Z" fill="black"/>
<path d="M38.8301 29.2081V31.0786C38.8301 31.0786 43.3858 30.8717 44.2924 31.6516C44.2924 31.6516 44.5707 31.2256 43.5583 30.7073V27.8594" stroke="#668DDB" stroke-width="0.1" stroke-miterlimit="2.28659" stroke-linecap="round" stroke-linejoin="round"/>
<path fill-rule="evenodd" clip-rule="evenodd" d="M24.6664 41.6946L25.1302 39.7148C25.191 39.7265 25.2469 39.739 25.2921 39.7534L24.8158 41.7859C24.808 41.819 24.7811 41.844 24.7475 41.849C24.7475 41.849 24.3334 41.9132 23.9304 42.1259C23.7054 42.2445 23.4829 42.4092 23.3424 42.6378H29.0794L29.4535 40.8377L29.6115 40.8705L29.2285 42.738C29.2205 42.7766 29.1863 42.8044 29.1469 42.8044H23.2044C23.1763 42.8044 23.1499 42.7903 23.1346 42.7664C23.1191 42.7428 23.1169 42.713 23.1283 42.6872C23.2735 42.3614 23.5596 42.1328 23.8526 41.9784C24.1901 41.8007 24.5345 41.7207 24.6664 41.6946Z" fill="#668DDB"/>
<path fill-rule="evenodd" clip-rule="evenodd" d="M43.4937 27.8367V17.738C43.4937 16.6092 42.9243 15.5565 41.9795 14.9387C41.0349 14.3209 39.8423 14.2212 38.8082 14.6737C36.7185 15.588 34.2736 16.7311 34.2736 16.7311C34.2317 16.7495 34.1822 16.7303 34.1639 16.6882C34.1456 16.6461 34.1647 16.5969 34.2069 16.5785C34.2069 16.5785 36.6519 15.4353 38.7413 14.521C39.827 14.046 41.079 14.1506 42.0708 14.7992C43.0627 15.4478 43.6603 16.5529 43.6603 17.738V27.8994C43.6603 27.9169 43.6615 27.9639 43.6615 27.9639C43.6615 27.9639 43.6187 27.9742 43.5998 27.9794L38.8716 29.3284C38.8468 29.3354 38.768 29.3554 38.768 29.3554C38.768 29.3554 38.7666 29.277 38.7655 29.2515L38.4277 20.8357L34.3041 23.0337L29.7042 40.7313C29.6987 40.7527 29.6823 40.8018 29.6823 40.8018C29.6823 40.8018 29.624 40.7965 29.6026 40.791L25.2873 39.6634L25.201 39.6462C25.0787 39.5339 26.9752 29.5703 27.6365 24.3769C28.3522 18.7548 30.6285 18.4441 30.6519 18.4731C30.6977 18.4686 30.7385 18.5021 30.743 18.5479C30.7474 18.5936 30.7138 18.6344 30.668 18.6389C30.668 18.6389 29.9947 18.9055 29.4456 19.591C28.8735 20.3052 28.2169 21.6875 27.865 24.3549C27.1726 29.6067 26.0245 34.891 25.4009 39.5206L29.564 40.6085L34.1519 22.9565C34.1578 22.9337 34.173 22.9149 34.1936 22.9037L38.4663 20.6262C38.4916 20.6128 38.5222 20.6132 38.5469 20.6275C38.5719 20.6417 38.5877 20.6678 38.5888 20.6964L38.9277 29.139L43.4937 27.8367Z" fill="#FF7766"/>
<path fill-rule="evenodd" clip-rule="evenodd" d="M29.2528 40.4235C29.2314 40.3963 29.2104 40.3674 29.1902 40.3368C28.9655 39.9983 28.8138 39.4536 28.8138 38.8382C28.8138 38.2224 28.9655 37.6778 29.1902 37.3392C29.3718 37.0659 29.6057 36.9198 29.8479 36.9198C30.0903 36.9198 30.3242 37.0659 30.5058 37.3392C30.5086 37.3436 30.5113 37.3478 30.514 37.3523L30.3619 37.9405C30.3133 37.7916 30.2524 37.6608 30.1819 37.5545C30.0852 37.4092 29.9767 37.3087 29.8479 37.3087C29.7193 37.3087 29.6107 37.4092 29.514 37.5545C29.3218 37.8439 29.2027 38.3118 29.2027 38.8382C29.2027 39.3642 29.3218 39.8325 29.514 40.1216C29.5826 40.2246 29.657 40.3055 29.7406 40.3435L29.6937 40.5257L29.2528 40.4235ZM25.7164 37.1909C26.2316 36.9384 26.746 36.8348 27.1273 36.8745C27.4539 36.9084 27.692 37.0476 27.8045 37.2623C27.917 37.4767 27.8961 37.7519 27.7383 38.0397C27.5431 38.3957 27.131 38.7832 26.5858 39.069C26.15 39.2975 25.7095 39.4192 25.3438 39.4372L25.409 39.0437C25.7076 39.0154 26.0575 38.907 26.4053 38.7246C26.8713 38.4802 27.2304 38.1571 27.3974 37.8527C27.4812 37.6997 27.5201 37.5567 27.4601 37.4428C27.4004 37.3287 27.2607 37.2792 27.0874 37.2614C26.7419 37.2253 26.272 37.3373 25.8059 37.5814C25.7476 37.6122 25.6906 37.6442 25.6359 37.6769L25.7164 37.1909ZM26.3738 33.2295C26.4379 33.2201 26.5057 33.2159 26.5774 33.2173C26.9834 33.2248 27.5179 33.4097 28.0242 33.76C28.5305 34.1099 28.8923 34.5446 29.0429 34.922C29.1634 35.2242 29.152 35.4981 29.017 35.6969L29.014 35.7017C28.8762 35.9008 28.623 36.0099 28.2947 36.0041C27.8887 35.9963 27.3542 35.8114 26.8479 35.4611C26.549 35.2548 26.3006 35.0187 26.1161 34.7823L26.212 34.2055C26.3522 34.5154 26.6585 34.8576 27.069 35.1415C27.502 35.4406 27.9548 35.6089 28.302 35.6153C28.4764 35.6183 28.621 35.5864 28.694 35.4806C28.7673 35.3745 28.7463 35.2281 28.6819 35.0659C28.553 34.7435 28.2359 34.3791 27.8031 34.0799C27.3704 33.7805 26.9174 33.6125 26.5702 33.6061C26.4692 33.6042 26.3781 33.6142 26.3053 33.6433L26.3738 33.2295ZM30.36 34.7007C30.122 34.6693 29.9098 34.496 29.764 34.2049C29.5821 33.8416 29.4978 33.2825 29.5725 32.6715C29.6475 32.0605 29.8644 31.5381 30.1285 31.2298C30.3421 30.9804 30.5922 30.8637 30.8327 30.8932C31.073 30.9226 31.2874 31.0965 31.4346 31.3897C31.6165 31.753 31.7006 32.3121 31.6257 32.9231C31.5507 33.5342 31.3339 34.0563 31.0695 34.3649C30.8562 34.614 30.6061 34.731 30.3658 34.7015L30.36 34.7007ZM30.7852 31.2792C30.6575 31.2634 30.5375 31.35 30.4239 31.4825C30.1981 31.7464 30.0228 32.1966 29.9587 32.7187C29.8945 33.2412 29.9562 33.7203 30.1117 34.0308C30.1892 34.1855 30.2839 34.298 30.41 34.3152L30.413 34.3155C30.5408 34.331 30.6608 34.2444 30.7744 34.1119C31.0005 33.8483 31.1756 33.3981 31.2395 32.8759C31.3037 32.3535 31.2424 31.8744 31.0868 31.5639C31.0088 31.4078 30.913 31.2948 30.7852 31.2792ZM26.9291 29.8844C26.9655 29.8955 27.002 29.9069 27.0387 29.9191C27.6228 30.1133 28.0922 30.4291 28.3421 30.749C28.5443 31.0076 28.6094 31.2756 28.533 31.5056C28.4567 31.7355 28.2441 31.9113 27.9272 31.9974C27.5806 32.0916 27.0985 32.0808 26.5875 31.9425L26.6513 31.5569C27.0991 31.6844 27.5222 31.7047 27.8253 31.6222C27.9936 31.5764 28.1234 31.505 28.1642 31.3828C28.2047 31.2609 28.1434 31.1259 28.0359 30.9884C27.822 30.7148 27.4154 30.454 26.9163 30.2882C26.8991 30.2824 26.8819 30.2768 26.8647 30.2716L26.9291 29.8844ZM28.2889 29.705C28.0787 29.5847 27.9483 29.3414 27.9263 29.014C27.8994 28.6087 28.0384 28.0605 28.3442 27.5264C28.6497 26.992 29.0518 26.5943 29.4151 26.4124C29.7084 26.2655 29.9842 26.2546 30.1945 26.3749C30.4047 26.4951 30.535 26.7382 30.5569 27.0656C30.5841 27.4711 30.445 28.0191 30.1392 28.5535C29.8337 29.0878 29.4314 29.4853 29.0681 29.6675C28.7748 29.8144 28.4991 29.8252 28.2889 29.705ZM32.5672 29.412C32.4955 29.3686 32.4243 29.3139 32.3546 29.2478C32.0499 28.959 31.762 28.4415 31.6012 27.8147C31.4404 27.1878 31.4437 26.5957 31.5715 26.1957C31.6757 25.87 31.8665 25.6625 32.1011 25.6022C32.3361 25.5419 32.603 25.6322 32.851 25.8675C33.0166 26.0244 33.1767 26.2485 33.3148 26.5207L33.1538 27.1439C33.011 26.714 32.8054 26.3602 32.5835 26.1496C32.4518 26.0249 32.3222 25.9469 32.1978 25.9788C32.0734 26.0108 31.9972 26.1416 31.9419 26.3141C31.8308 26.6612 31.8384 27.1745 31.9778 27.718C32.1173 28.2616 32.3581 28.7151 32.6222 28.9659C32.6386 28.9812 32.655 28.9962 32.6711 29.0101L32.5672 29.412ZM30.0014 26.7123C29.8895 26.6485 29.7454 26.6818 29.5893 26.7601C29.279 26.9156 28.943 27.2628 28.6816 27.7194C28.4203 28.176 28.2914 28.6415 28.3144 28.9881C28.3261 29.1623 28.3702 29.3037 28.4818 29.3675C28.5938 29.4314 28.738 29.3981 28.8941 29.3198C29.2043 29.1642 29.5404 28.8171 29.8017 28.3604C30.0631 27.9038 30.1919 27.4381 30.1688 27.0917C30.1572 26.9176 30.1131 26.7762 30.0014 26.7123ZM38.7941 27.8563C39.0116 27.7461 39.2217 27.6747 39.4095 27.6455C39.7336 27.5953 39.9995 27.6694 40.1631 27.8483C40.3264 28.0269 40.3761 28.2982 40.297 28.6168C40.2761 28.7004 40.2464 28.7876 40.2078 28.877L39.6859 29.0323C39.8001 28.8557 39.88 28.6818 39.9194 28.5229C39.9616 28.3535 39.9628 28.2055 39.8759 28.1105C39.7893 28.0155 39.6415 28.003 39.469 28.0299C39.2704 28.0608 39.0441 28.1499 38.813 28.2888L38.7941 27.8563ZM43.5265 25.1145L43.5287 25.525C43.2571 25.6317 42.961 25.82 42.6841 26.073C42.2956 26.4279 42.0306 26.832 41.9467 27.1689C41.9045 27.3381 41.9033 27.4861 41.9902 27.5814C42.0772 27.6764 42.2247 27.6886 42.3969 27.6619C42.735 27.6094 43.1535 27.3875 43.5373 27.0417L43.5401 27.5422C43.1655 27.8225 42.7779 27.9961 42.4566 28.046C42.1324 28.0963 41.8667 28.0224 41.7032 27.8436C41.5398 27.6647 41.4901 27.3934 41.5693 27.0748C41.6676 26.6807 41.9673 26.2013 42.4219 25.7861C42.7841 25.455 43.1782 25.2253 43.5265 25.1145ZM38.5821 22.9826C38.6168 22.9495 38.6547 22.9209 38.6958 22.897C38.9052 22.7754 39.1809 22.7843 39.4753 22.9293C39.8397 23.1087 40.2447 23.5036 40.5541 24.0358C40.8635 24.5679 41.0062 25.1151 40.9818 25.5206C40.9623 25.8483 40.8336 26.0921 40.6241 26.2141C40.4147 26.3357 40.1389 26.3268 39.8445 26.1819C39.4801 26.0022 39.0755 25.6075 38.7661 25.0753C38.7302 25.0137 38.6965 24.9517 38.6651 24.8901L38.5821 22.9826ZM40.2117 24.2205C39.9481 23.7708 39.6126 23.4303 39.3035 23.2781C39.1471 23.2009 39.0024 23.1687 38.8913 23.2331C38.7799 23.2978 38.7365 23.4395 38.7262 23.6136C38.7054 23.9602 38.8377 24.4249 39.1021 24.8798C39.3665 25.3348 39.705 25.6794 40.0163 25.833C40.173 25.9102 40.3175 25.9424 40.4289 25.8777C40.54 25.813 40.5832 25.6716 40.5938 25.4975C40.6143 25.1509 40.4825 24.686 40.2178 24.2313L40.2117 24.2205ZM28.0872 22.904C28.3021 23.019 28.5219 23.1695 28.7322 23.3534C29.1954 23.7586 29.5057 24.2313 29.6123 24.6235C29.6984 24.9401 29.6548 25.2125 29.4951 25.3947C29.3357 25.5772 29.0716 25.6569 28.7463 25.6136C28.4405 25.5731 28.0728 25.4222 27.7106 25.1745L27.7817 24.7457C28.1325 25.0176 28.498 25.1884 28.7977 25.2281C28.9705 25.2512 29.1177 25.2356 29.2027 25.1389C29.2874 25.042 29.2829 24.894 29.2371 24.7257C29.146 24.3904 28.8722 23.9924 28.4761 23.6461C28.3267 23.5156 28.1725 23.4031 28.0198 23.3114L28.0872 22.904ZM30.9199 24.4765C30.3547 24.2099 29.919 23.8375 29.704 23.4881C29.5298 23.205 29.4957 22.9295 29.599 22.7104C29.7023 22.4913 29.9367 22.3424 30.2658 22.2966C30.6688 22.2405 31.2279 22.3377 31.7887 22.5996L31.802 22.6057C32.3672 22.872 32.8027 23.2448 33.018 23.5942C33.1918 23.8772 33.2263 24.1527 33.123 24.3718C33.0196 24.591 32.7852 24.7398 32.4561 24.7857C32.0498 24.842 31.4851 24.7429 30.9199 24.4765ZM43.5215 24.1966C43.5004 24.2191 43.479 24.241 43.4576 24.2613C43.2204 24.4882 42.9602 24.5799 42.7238 24.5268C42.4875 24.4738 42.2914 24.2796 42.1739 23.9733C42.0289 23.5939 42 23.0292 42.1349 22.4285C42.2696 21.8277 42.5369 21.3295 42.8305 21.0487C43.0471 20.8413 43.2829 20.747 43.5021 20.7726L43.5046 21.1698C43.4962 21.167 43.4876 21.1645 43.479 21.1626C43.3535 21.1342 43.2253 21.2089 43.0993 21.3295C42.8485 21.5697 42.6297 22.0002 42.5144 22.5138C42.3992 23.027 42.4131 23.51 42.5372 23.8341C42.5994 23.9972 42.6833 24.1191 42.8091 24.1474C42.9346 24.1755 43.0627 24.101 43.1888 23.9805C43.3082 23.8661 43.4204 23.7086 43.5176 23.5194L43.5215 24.1966ZM31.6362 22.9573C31.1507 22.7284 30.668 22.6332 30.3192 22.6818C30.1445 22.7059 30.0056 22.7598 29.9506 22.8762C29.8959 22.9926 29.9426 23.1339 30.035 23.2842C30.2184 23.5819 30.5944 23.8911 31.0743 24.1194L31.0856 24.1249C31.5708 24.3538 32.0537 24.449 32.4025 24.4004C32.5775 24.3763 32.7162 24.3224 32.771 24.206C32.8259 24.0896 32.7791 23.9483 32.6866 23.798C32.5022 23.4981 32.1214 23.1862 31.6362 22.9573ZM35.5573 22.1988C35.3507 21.6539 35.296 21.1237 35.374 20.7431C35.4399 20.4216 35.602 20.1983 35.8266 20.1075C36.0511 20.0167 36.3228 20.0647 36.5936 20.2501C36.8727 20.4411 37.1579 20.7834 37.379 21.2217L37.0363 21.4056C36.8497 21.0302 36.6121 20.7339 36.3741 20.571C36.2299 20.4724 36.0917 20.4198 35.9723 20.468C35.8529 20.5163 35.79 20.6503 35.7547 20.8212C35.6906 21.1345 35.7405 21.5658 35.903 22.0133L35.5573 22.1988ZM30.0006 18.7733C30.1492 18.874 30.2975 18.9921 30.4405 19.1264C30.8894 19.5476 31.1829 20.031 31.2757 20.4265C31.3507 20.746 31.2973 21.0167 31.1315 21.1934C30.9657 21.37 30.6991 21.4403 30.3756 21.3856C29.9748 21.3181 29.474 21.0559 29.0249 20.6345C28.9344 20.5493 28.8499 20.4616 28.7722 20.3726C28.8341 20.2366 28.8973 20.1104 28.9615 19.9931C29.0573 20.1147 29.1679 20.2353 29.2913 20.351C29.6748 20.7111 30.0978 20.9444 30.4403 21.0023C30.6122 21.0313 30.7598 21.021 30.8479 20.9272C30.9359 20.8333 30.9371 20.6852 30.8971 20.5154C30.8177 20.1773 30.5579 19.77 30.1744 19.4099C30.0144 19.2599 29.8481 19.1319 29.6831 19.0294C29.7934 18.9257 29.9001 18.8415 30.0006 18.7733ZM40.5079 19.0567C40.9154 18.6032 41.3867 18.3014 41.7767 18.1993C42.0941 18.1161 42.3661 18.1626 42.5469 18.3238C42.7277 18.485 42.8048 18.7499 42.7585 19.0748C42.7012 19.477 42.4519 19.9844 42.0423 20.4439C41.6326 20.9034 41.1568 21.2092 40.7638 21.312C40.4464 21.3953 40.1744 21.3489 39.9936 21.1875C39.8128 21.0264 39.7356 20.7615 39.782 20.4366C39.8392 20.0344 40.0886 19.5269 40.4982 19.0675L40.5079 19.0567ZM32.2481 19.2938C32.3236 18.6829 32.541 18.1609 32.806 17.8527C33.0195 17.6038 33.2698 17.4874 33.5103 17.5171C33.7505 17.5469 33.9648 17.7209 34.1114 18.0145C34.2931 18.3779 34.3764 18.9372 34.3008 19.5481C34.225 20.1591 34.0076 20.681 33.7429 20.9892C33.529 21.2381 33.279 21.3545 33.0385 21.3248C32.7983 21.295 32.5841 21.1212 32.4375 20.8275C32.2559 20.464 32.1725 19.9047 32.2481 19.2938ZM41.7519 20.1852C42.1022 19.7924 42.3247 19.3636 42.3736 19.0198C42.3983 18.8472 42.3842 18.6997 42.2881 18.614C42.192 18.5283 42.0439 18.5312 41.8754 18.5754C41.5393 18.6634 41.1388 18.9335 40.7886 19.3262C40.4383 19.7189 40.2159 20.1478 40.167 20.4916C40.1423 20.6642 40.1561 20.8117 40.2522 20.8973C40.3486 20.983 40.4966 20.9802 40.6651 20.9359C41.0012 20.8479 41.4017 20.5779 41.7519 20.1852ZM33.9165 19.4881C33.9787 18.9707 33.9175 18.4964 33.7636 18.1882C33.6856 18.0321 33.5903 17.9189 33.4623 17.903C33.3345 17.8872 33.2146 17.9738 33.1007 18.1061C32.8747 18.3695 32.6986 18.8194 32.6339 19.3416C32.5694 19.8638 32.6301 20.3431 32.7851 20.6537C32.8632 20.8098 32.9585 20.9231 33.0863 20.9389C33.2141 20.9547 33.3342 20.8681 33.4478 20.7358C33.6742 20.4724 33.85 20.0225 33.9147 19.5003L33.9165 19.4881ZM36.814 19.1827C36.3413 18.7978 36.017 18.3418 35.8959 17.9573C35.7973 17.6443 35.8304 17.3704 35.9826 17.1819C36.1348 16.9935 36.3956 16.9034 36.7225 16.9339C37.1268 16.9716 37.6459 17.1959 38.1248 17.5827C38.6039 17.9695 38.9324 18.4297 39.0544 18.8172C39.153 19.1302 39.1196 19.4041 38.9674 19.5926C38.8152 19.781 38.5543 19.8711 38.2277 19.8406C37.823 19.8029 37.3042 19.5786 36.8251 19.1918L36.814 19.1827ZM37.8806 17.8852C37.4712 17.5546 37.032 17.3532 36.6862 17.321C36.5127 17.3048 36.3661 17.3261 36.2853 17.4262C36.2042 17.5264 36.2145 17.6741 36.2667 17.8405C36.3703 18.1692 36.6557 18.5527 37.0598 18.8815L37.0695 18.8893C37.4789 19.2199 37.9181 19.4212 38.2639 19.4535C38.4375 19.4696 38.5841 19.4484 38.665 19.3483C38.7458 19.2481 38.7358 19.1003 38.6833 18.934C38.5791 18.6027 38.29 18.2158 37.8806 17.8852ZM42.0052 14.8203C42.4882 15.1268 42.8216 15.5228 43.0474 15.8868C43.013 15.9634 42.9666 16.0405 42.9085 16.1169C42.663 16.4406 42.1984 16.763 41.6171 16.9655C41.0357 17.1681 40.4716 17.2042 40.078 17.1033C39.76 17.0217 39.5448 16.849 39.4654 16.6202C39.3857 16.3915 39.4468 16.1224 39.6451 15.861C39.8906 15.5374 40.3553 15.215 40.9366 15.0124C41.314 14.8808 41.6842 14.8195 42.0052 14.8203ZM39.8326 16.4923C39.7901 16.3707 39.8495 16.235 39.9548 16.0961C40.1648 15.8194 40.5675 15.5527 41.0644 15.3796C41.5612 15.2064 42.0428 15.1651 42.3792 15.2513C42.548 15.2947 42.6789 15.3641 42.7211 15.4857C42.7636 15.6072 42.7041 15.7429 42.5989 15.8819C42.3889 16.1585 41.9862 16.4252 41.4893 16.5984C40.9924 16.7715 40.511 16.8129 40.1744 16.7266C40.0055 16.6833 39.8748 16.6138 39.8326 16.4923ZM38.1097 14.8241C38.1922 14.8799 38.2659 14.9385 38.3297 14.9988C38.5678 15.2245 38.6719 15.48 38.6305 15.7187C38.5891 15.9573 38.4047 16.1627 38.1045 16.2949C37.7326 16.4584 37.1699 16.5146 36.5633 16.4092C36.1448 16.3364 35.7718 16.1984 35.484 16.0279L35.9328 15.8222C36.1373 15.911 36.3742 15.9816 36.63 16.0261C37.1482 16.1161 37.6301 16.0787 37.9478 15.9389C38.1075 15.8687 38.2253 15.7789 38.2472 15.6521C38.2695 15.5253 38.1889 15.401 38.0623 15.281C37.9623 15.1865 37.8329 15.0983 37.6809 15.0208L38.1097 14.8241Z" fill="#FF7B6B"/>
<path fill-rule="evenodd" clip-rule="evenodd" d="M23.7238 15.6568L26.5651 15.8028L26.7031 16.3859C26.7031 16.3859 30.6887 16.0148 32.6534 11.5961L33.4914 11.7739L32.2643 10.4553L33.8177 8.00391C33.8177 8.00391 39.4144 12.1502 39.5269 14.5108C39.5269 14.5108 39.5289 14.5367 39.5303 14.5831C39.5469 15.2702 39.2164 15.9194 38.6507 16.3096C38.0849 16.6998 37.3606 16.7782 36.7243 16.5183C35.7024 16.1006 34.3176 15.5349 34.3176 15.5349C34.3176 15.5349 34.5745 16.1166 34.5254 16.3933L30.3737 18.6082C30.3737 18.6082 29.4891 18.466 28.9514 17.6608C28.9514 17.6608 29.6422 20.4623 27.8638 22.5396C27.3539 23.1359 26.5332 23.3625 25.7897 23.1125C25.1886 22.9092 24.5882 22.3485 24.3257 21.0078C24.3257 21.0078 23.6172 18.0013 23.7238 15.6568Z" fill="#FFD274"/>
<path fill-rule="evenodd" clip-rule="evenodd" d="M27.2515 20.4408C27.2504 20.4264 27.2471 20.3831 27.2421 20.3396C27.1771 19.7657 26.6777 16.33 26.6777 16.33L26.8705 16.3047C26.8705 16.3047 27.3704 19.7434 27.4351 20.3177C27.4426 20.382 27.4462 20.4253 27.4465 20.4439C27.4468 20.4621 27.444 20.4742 27.4424 20.4801C27.4304 20.5222 27.4026 20.5373 27.3851 20.5445C27.3621 20.554 27.3374 20.5553 27.311 20.5445C27.269 20.5273 27.2454 20.4839 27.2515 20.4408ZM27.3224 20.3608C27.3424 20.3553 27.364 20.3562 27.3846 20.3646C27.3629 20.3557 27.3421 20.3552 27.3224 20.3608Z" fill="#DE735A"/>
<path fill-rule="evenodd" clip-rule="evenodd" d="M33.525 11.9157L33.1973 11.8555L36.8034 15.6028C36.8407 15.6414 36.902 15.6426 36.9409 15.6054C36.9795 15.5682 36.9806 15.5066 36.9434 15.4679L33.525 11.9157Z" fill="#DE735A"/>
<path fill-rule="evenodd" clip-rule="evenodd" d="M34.2946 15.6493C34.0866 15.1382 33.805 14.6707 33.805 14.6707C33.7772 14.6248 33.7922 14.565 33.8383 14.5373C33.8841 14.5097 33.9438 14.5246 33.9716 14.5705C33.9716 14.5705 34.3238 15.1573 34.5399 15.7453L34.2946 15.6493Z" fill="#DE735A"/>
<path fill-rule="evenodd" clip-rule="evenodd" d="M13.041 36.0679C13.041 36.0679 13.6591 34.6369 14.7949 34.3828C14.7949 34.3828 14.9273 35.2513 14.5904 36.49C14.5904 36.49 15.4501 35.9137 15.9239 36.0679C15.9239 36.0679 15.9091 36.9014 15.3295 37.6415C15.3295 37.6415 14.7645 36.2867 13.097 36.9644C13.097 36.9644 13.0761 36.1645 13.041 36.0679Z" fill="#668DDB"/>
<path fill-rule="evenodd" clip-rule="evenodd" d="M1.69326 39.8354C1.69326 39.8354 0.416942 39.0346 0 36.7469C0 36.7469 0.211109 36.7047 0.657853 36.9144C0.657853 36.9144 0.0675457 35.8312 0.335009 34.6797C0.335009 34.6797 1.29865 34.9524 2.12429 36.1256C2.12429 36.1256 1.32645 38.0745 1.69326 39.8354Z" fill="#668DDB"/>
<path fill-rule="evenodd" clip-rule="evenodd" d="M1.67731 39.8037H15.8673C15.8673 39.8037 15.6491 35.7235 13.0405 36.92C13.0147 35.6088 12.7466 34.0826 11.9367 32.9061C11.5947 32.4095 11.1231 32.0056 10.5654 31.6765C9.2334 30.8897 7.09386 30.8697 5.12575 32.0662C3.36849 33.1344 1.29303 36.112 1.67731 39.8037Z" stroke="#0D2E3A" stroke-width="0.1" stroke-miterlimit="2.28659" stroke-linecap="round" stroke-linejoin="round"/>
<path fill-rule="evenodd" clip-rule="evenodd" d="M18.1806 41.6496L15.5605 41.656C15.5605 41.656 15.7184 40.6786 16.5956 40.6072C16.9314 40.58 17.7221 40.8633 18.1806 41.6496Z" stroke="#0F303C" stroke-width="0.00219619" stroke-miterlimit="2.28659" stroke-linecap="round" stroke-linejoin="round"/>
<path d="M6.66992 34.3828C6.66992 34.3828 7.55311 36.6108 8.2607 40.5045" stroke="#668DDB" stroke-width="0.00219619" stroke-miterlimit="2.28659" stroke-linecap="round" stroke-linejoin="round"/>
<path fill-rule="evenodd" clip-rule="evenodd" d="M7.1728 35.8401C7.1728 35.8401 6.91903 34.9571 7.4771 34.6797C7.4771 34.6797 7.80722 35.2121 7.1728 35.8401Z" fill="#668DDB"/>
<path fill-rule="evenodd" clip-rule="evenodd" d="M7.15465 35.7694C7.15465 35.7694 6.43953 35.6453 6.22461 34.9959C6.23301 34.9158 7.05543 35.0676 7.15465 35.7694Z" fill="#668DDB"/>
<path fill-rule="evenodd" clip-rule="evenodd" d="M7.7484 37.5506C7.7484 37.5506 7.03328 37.4265 6.81836 36.7772C6.82676 36.6971 7.64918 36.8488 7.7484 37.5506Z" fill="#668DDB"/>
<path fill-rule="evenodd" clip-rule="evenodd" d="M7.68392 37.6713C7.68392 37.6713 8.1376 37.1047 7.86862 36.4758C7.8093 36.4214 7.29354 37.0797 7.68392 37.6713Z" fill="#668DDB"/>
<path fill-rule="evenodd" clip-rule="evenodd" d="M6.37311 33.2935L6.52131 33.7254C6.52735 33.743 6.54657 33.7523 6.56425 33.7462C6.58193 33.7401 6.59143 33.721 6.58539 33.7034L6.43772 33.2731C6.50916 33.253 6.58589 33.2393 6.66805 33.2334L6.80364 33.6285C6.80968 33.6461 6.82892 33.6554 6.8466 33.6493C6.86428 33.6433 6.87375 33.6241 6.86771 33.6065L6.73871 33.2306C6.80364 33.2298 6.87173 33.2337 6.94319 33.2432C6.98139 33.3059 7.01402 33.3749 7.03953 33.4492C7.18323 33.868 7.04465 34.2958 6.73017 34.4037C6.41572 34.5116 6.04365 34.259 5.89996 33.8403C5.87949 33.7806 5.86472 33.7208 5.85547 33.662C5.90087 33.6077 5.95236 33.5542 6.01056 33.5046L6.13217 33.8589C6.13821 33.8765 6.15743 33.8858 6.1751 33.8797C6.19278 33.8737 6.20229 33.8546 6.19625 33.837L6.06661 33.4592C6.1038 33.4312 6.14327 33.4044 6.18529 33.38L6.27886 33.6527C6.28499 33.6706 6.30423 33.6798 6.32191 33.6737C6.33959 33.6677 6.34906 33.6486 6.34293 33.6307L6.24575 33.3475C6.28604 33.3272 6.32846 33.3091 6.37311 33.2935Z" fill="#FDDB81"/>
<path fill-rule="evenodd" clip-rule="evenodd" d="M2.23855 34.2183C2.23855 34.2183 4.03016 36.6852 5.42722 40.358C5.44355 40.4011 5.49174 40.4228 5.5347 40.4064C5.5777 40.39 5.59931 40.3417 5.58298 40.2989C4.17703 36.6027 2.37339 34.1203 2.37339 34.1203C2.34637 34.0831 2.29421 34.0747 2.25702 34.102C2.2198 34.1289 2.21152 34.1811 2.23855 34.2183Z" fill="#668DDB"/>
<path fill-rule="evenodd" clip-rule="evenodd" d="M3.94888 36.8246C3.94988 36.7741 3.90758 36.6938 3.89641 36.6427C3.869 36.5163 3.85111 36.3858 3.85378 36.2567C3.85786 36.0572 3.91996 35.8723 4.02628 35.7042C4.03409 35.692 4.11649 35.554 4.13979 35.5673C4.2092 35.6068 4.22117 35.8259 4.22823 35.8895C4.26353 36.2086 4.20267 36.5613 3.97279 36.7999" fill="#668DDB"/>
<path fill-rule="evenodd" clip-rule="evenodd" d="M3.95477 36.6525C3.94394 36.6639 3.89728 36.6597 3.88039 36.6592C3.81035 36.6578 3.74019 36.6478 3.67106 36.637C3.45195 36.6022 3.22699 36.5475 3.04326 36.4175C3.00493 36.3903 2.96819 36.3612 2.93375 36.3292C2.91136 36.3084 2.81185 36.2245 2.81657 36.1859C2.81974 36.1601 2.89417 36.1617 2.90897 36.1609C3.01024 36.1562 3.1122 36.1742 3.21013 36.1987C3.30264 36.222 3.39246 36.2551 3.47995 36.2928C3.61707 36.352 3.74611 36.4353 3.85312 36.5397" fill="#668DDB"/>
<path fill-rule="evenodd" clip-rule="evenodd" d="M4.73133 38.5865C4.72839 38.5968 4.6602 38.5879 4.65115 38.5874C4.56411 38.5802 4.4784 38.561 4.39405 38.5391C4.16769 38.4802 3.92717 38.3927 3.75427 38.2288C3.68878 38.1666 3.63251 38.0927 3.5876 38.0147C3.58249 38.0058 3.54866 37.9586 3.55839 37.9466C3.57961 37.9202 3.69367 37.9589 3.71709 37.9644C3.75078 37.9727 3.7843 37.9822 3.81743 37.9925C3.87895 38.0113 3.93978 38.033 3.99935 38.0575C4.09992 38.0988 4.19791 38.1486 4.29234 38.2024C4.4281 38.2799 4.56411 38.3721 4.67387 38.4843" fill="#668DDB"/>
<path fill-rule="evenodd" clip-rule="evenodd" d="M4.75652 38.4703C4.76152 38.4304 4.74261 38.3695 4.74225 38.3268C4.74125 38.2115 4.75283 38.0962 4.77585 37.9832C4.79582 37.8854 4.82351 37.7888 4.86176 37.6966C4.90314 37.5966 4.95633 37.5019 5.02174 37.4158C5.02873 37.4066 5.07376 37.3391 5.09153 37.3486C5.12106 37.3641 5.13142 37.4541 5.13694 37.4808C5.14347 37.5127 5.14794 37.5449 5.151 37.5771C5.15638 37.6341 5.15819 37.691 5.15605 37.7482C5.14714 37.9874 5.08089 38.234 4.95691 38.4398C4.92311 38.4959 4.86709 38.5973 4.80057 38.6242" fill="#668DDB"/>
<path fill-rule="evenodd" clip-rule="evenodd" d="M1.99199 32.9165C2.06909 32.9021 2.152 32.8957 2.24107 32.8996C2.28126 32.9407 2.31922 32.9857 2.3543 33.0348C2.63443 33.4256 2.62488 33.9127 2.33297 34.1219C2.04104 34.3313 1.5766 34.1838 1.29648 33.7928C1.25229 33.7311 1.21532 33.6672 1.18555 33.6022C1.22004 33.5325 1.26181 33.4592 1.31189 33.3873L1.48948 33.6367C1.50845 33.6633 1.5455 33.6695 1.57213 33.6506C1.5988 33.6314 1.60502 33.5945 1.58605 33.5678L1.38705 33.2884C1.42368 33.2442 1.46381 33.2017 1.50772 33.162L1.77488 33.5372C1.79385 33.5639 1.8309 33.57 1.85756 33.5511C1.8842 33.5322 1.89045 33.495 1.87145 33.4684L1.59991 33.087C1.67898 33.0295 1.76835 32.9815 1.86906 32.9484L2.06695 33.2265C2.08592 33.2531 2.12297 33.2592 2.14961 33.2403C2.17627 33.2212 2.18249 33.1842 2.16352 33.1576L1.99199 32.9165Z" fill="#FDDB81"/>
<path fill-rule="evenodd" clip-rule="evenodd" d="M14.2113 32.734C14.2113 32.734 13.7101 33.4564 13.0312 34.6512C13.017 34.6762 12.9828 34.7523 12.9828 34.7523L12.9219 34.5009L12.9571 34.4318L14.0764 32.6359C14.1035 32.5987 14.1556 32.5904 14.1928 32.6176C14.23 32.6445 14.2383 32.6967 14.2113 32.734Z" fill="#668DDB"/>
<path fill-rule="evenodd" clip-rule="evenodd" d="M13.5503 33.7573C13.5494 33.7108 13.5866 33.6371 13.5964 33.5902C13.6205 33.4741 13.6362 33.3542 13.6338 33.2356C13.6302 33.0524 13.5757 32.8825 13.4824 32.7282C13.4755 32.7169 13.4031 32.5901 13.3827 32.6024C13.3217 32.6386 13.3112 32.8399 13.305 32.8983C13.274 33.1914 13.3275 33.5154 13.5293 33.7345" fill="#668DDB"/>
<path fill-rule="evenodd" clip-rule="evenodd" d="M13.5332 33.6916C13.544 33.703 13.5907 33.6988 13.6076 33.6982C13.6776 33.6968 13.7478 33.6868 13.8169 33.676C14.036 33.6413 14.261 33.5866 14.4447 33.4566C14.483 33.4294 14.5198 33.4002 14.5542 33.3683C14.5766 33.3475 14.6761 33.2636 14.6714 33.225C14.6682 33.1991 14.5938 33.2008 14.579 33.2C14.4777 33.1953 14.3758 33.2133 14.2779 33.2377C14.1853 33.2611 14.0955 33.2941 14.008 33.3319C13.8709 33.3911 13.7419 33.4744 13.6349 33.5788" fill="#668DDB"/>
<path fill-rule="evenodd" clip-rule="evenodd" d="M13.0684 34.6508C13.0709 34.6597 13.1296 34.652 13.1374 34.6515C13.2123 34.6452 13.2861 34.6286 13.3587 34.6095C13.5536 34.5582 13.7607 34.4821 13.9095 34.3395C13.9659 34.2853 14.0144 34.221 14.053 34.1531C14.0574 34.1454 14.0865 34.1043 14.0782 34.0939C14.0599 34.0709 13.9617 34.1045 13.9415 34.1094C13.9125 34.1166 13.8837 34.1248 13.8552 34.1338C13.8022 34.1502 13.7498 34.1691 13.6985 34.1903C13.612 34.2263 13.5276 34.2696 13.4463 34.3165C13.3294 34.384 13.2123 34.4642 13.1178 34.5619" fill="#668DDB"/>
<path fill-rule="evenodd" clip-rule="evenodd" d="M13.3234 34.1451C13.3181 34.1114 13.3383 34.0601 13.3387 34.0241C13.3398 33.927 13.3274 33.8299 13.3027 33.7346C13.2813 33.6523 13.2517 33.5709 13.2107 33.4932C13.1664 33.4089 13.1094 33.3291 13.0393 33.2566C13.0318 33.2489 12.9836 33.192 12.9646 33.2C12.9329 33.2131 12.9218 33.2889 12.9159 33.3114C12.9089 33.3383 12.9041 33.3654 12.9009 33.3926C12.8951 33.4405 12.8932 33.4885 12.8955 33.5367C12.905 33.7382 12.976 33.9459 13.1088 34.1193C13.145 34.1666 13.205 34.252 13.2762 34.2747" fill="#668DDB"/>
<path fill-rule="evenodd" clip-rule="evenodd" d="M14.4569 31.7329C14.3798 31.7185 14.2969 31.7121 14.2079 31.716C14.1677 31.7571 14.1297 31.8021 14.0946 31.8512C13.8145 32.242 13.824 32.7292 14.1159 32.9383C14.4079 33.1477 14.8723 33.0002 15.1524 32.6092C15.1966 32.5475 15.2336 32.4836 15.2634 32.4186C15.2289 32.3489 15.1871 32.2756 15.137 32.2037L14.9594 32.4531C14.9405 32.4797 14.9034 32.4859 14.8768 32.467C14.8501 32.4478 14.8439 32.4109 14.8629 32.3842L15.0619 32.1048C15.0252 32.0606 14.9851 32.0181 14.9412 31.9784L14.674 32.3537C14.6551 32.3803 14.618 32.3864 14.5914 32.3675C14.5647 32.3487 14.5585 32.3114 14.5775 32.2848L14.849 31.9034C14.7699 31.8459 14.6806 31.7979 14.5799 31.7648L14.382 32.0429C14.363 32.0695 14.3259 32.0756 14.2993 32.0567C14.2726 32.0376 14.2664 32.0006 14.2854 31.974L14.4569 31.7329Z" fill="#FDDB81"/>
<path fill-rule="evenodd" clip-rule="evenodd" d="M36.5401 36.6074C36.5401 36.6074 35.7921 35.3101 35.8688 34.4324C35.8688 34.4324 36.3443 34.5646 36.7003 35.0826C36.7003 35.0826 36.2773 33.3215 36.5401 32.6016C36.5401 32.6016 37.3111 32.956 37.6805 33.7978C37.6805 33.7978 37.1703 35.3212 37.1203 36.7921L36.5401 36.6074Z" fill="#668DDB"/>
<path fill-rule="evenodd" clip-rule="evenodd" d="M48.5647 40.0266L34.1328 40.1099C34.1328 40.1099 34.5216 35.7411 37.1302 36.9376C37.1559 35.6264 37.424 34.1002 38.234 32.9237C38.576 32.4271 39.0145 31.993 39.5722 31.6636C40.9042 30.8767 43.0768 30.8873 45.0449 32.0838C46.8022 33.152 48.949 36.3349 48.5647 40.0266Z" stroke="#0D2E3A" stroke-width="0.1" stroke-miterlimit="2.28659" stroke-linecap="round" stroke-linejoin="round"/>
<path fill-rule="evenodd" clip-rule="evenodd" d="M46.2383 40.5563C46.2383 40.5563 47.667 38.12 49.4159 38.2386C49.4159 38.2386 49.4217 38.8102 48.831 39.5817C48.831 39.5817 49.2462 39.2915 49.9758 39.3231C49.9758 39.3231 49.8983 39.8536 49.1809 40.6274L46.2383 40.5563Z" fill="#668DDB"/>
<path fill-rule="evenodd" clip-rule="evenodd" d="M47.3886 36.6759C47.3977 36.6304 47.4498 36.5663 47.4695 36.5226C47.5179 36.4144 47.559 36.3007 47.5821 36.1843C47.6179 36.0046 47.6011 35.827 47.543 35.6562C47.5387 35.6438 47.4952 35.5044 47.4726 35.512C47.4053 35.5343 47.3519 35.7286 47.3333 35.7844C47.2402 36.064 47.2228 36.3919 47.373 36.6492" fill="#668DDB"/>
<path d="M48.6389 35.2656C48.6389 35.2656 46.0704 37.0584 45.0508 40.2344" stroke="#668DDB" stroke-width="0.00219619" stroke-miterlimit="2.28659" stroke-linecap="round" stroke-linejoin="round"/>
<path fill-rule="evenodd" clip-rule="evenodd" d="M49.1501 34.5192C49.0779 34.4886 48.9982 34.4646 48.9104 34.4492C48.8623 34.4808 48.8156 34.5166 48.7708 34.5571C48.4134 34.8787 48.3182 35.3565 48.5584 35.6234C48.7987 35.8906 49.2839 35.8462 49.6414 35.5243C49.6978 35.4736 49.7476 35.4191 49.7906 35.362C49.7719 35.2865 49.7468 35.2059 49.7133 35.1249L49.4864 35.3304C49.4621 35.3524 49.4246 35.3504 49.4027 35.3263C49.3807 35.3018 49.3826 35.2644 49.4068 35.2424L49.6611 35.0122C49.6348 34.9612 49.6048 34.9111 49.5704 34.8629L49.229 35.1721C49.2047 35.1941 49.1672 35.1921 49.1452 35.1679C49.1233 35.1438 49.1251 35.1061 49.1494 35.0841L49.4964 34.7699C49.4315 34.6968 49.3545 34.6307 49.2633 34.5768L49.0104 34.8059C48.9861 34.8279 48.9486 34.8259 48.9266 34.8017C48.9047 34.7773 48.9066 34.7399 48.9308 34.7179L49.1501 34.5192Z" fill="#FDDB81"/>
<path fill-rule="evenodd" clip-rule="evenodd" d="M47.5391 36.6905C47.5472 36.704 47.5937 36.7099 47.6103 36.713C47.679 36.7267 47.7497 36.7319 47.8195 36.7362C48.041 36.7493 48.2724 36.7441 48.4798 36.6566C48.523 36.6382 48.5652 36.6176 48.6057 36.5938C48.632 36.5782 48.7472 36.5177 48.7509 36.4789C48.7533 36.453 48.6803 36.4387 48.666 36.4347C48.5681 36.4084 48.4646 36.4041 48.3637 36.407C48.2684 36.4099 48.1736 36.423 48.08 36.4411C47.9334 36.4694 47.7895 36.5231 47.6626 36.6022" fill="#668DDB"/>
<path fill-rule="evenodd" clip-rule="evenodd" d="M46.3145 37.9734C46.315 37.9827 46.374 37.9877 46.3817 37.9889C46.4563 37.9988 46.5319 37.9984 46.607 37.9953C46.8083 37.9871 47.0269 37.9571 47.2029 37.8498C47.2695 37.809 47.3306 37.7566 47.383 37.6985C47.3889 37.6919 47.4262 37.658 47.4203 37.6461C47.4073 37.6197 47.3042 37.6315 47.2835 37.6319C47.2536 37.6327 47.2237 37.6346 47.1939 37.6372C47.1386 37.6419 47.0834 37.649 47.0288 37.6588C46.9365 37.6754 46.8448 37.6996 46.7553 37.728C46.6267 37.7688 46.4951 37.822 46.3819 37.8971" fill="#668DDB"/>
<path fill-rule="evenodd" clip-rule="evenodd" d="M46.4641 37.672C46.4661 37.638 46.4969 37.5923 46.505 37.5572C46.5269 37.4625 46.5356 37.365 46.532 37.2667C46.5287 37.1817 46.5172 37.0958 46.4939 37.0111C46.4687 36.9193 46.4301 36.8292 46.3772 36.7433C46.3716 36.7342 46.3367 36.6683 46.3164 36.672C46.2827 36.678 46.2556 36.7496 46.245 36.7703C46.2324 36.7951 46.2219 36.8206 46.2128 36.8464C46.1969 36.892 46.1847 36.9384 46.1766 36.986C46.1427 37.1848 46.1675 37.403 46.26 37.6008C46.2852 37.6548 46.3255 37.7511 46.3903 37.7885" fill="#668DDB"/>
<path fill-rule="evenodd" clip-rule="evenodd" d="M34.9992 36.0898C34.9992 36.0898 34.5504 35.2882 35.0303 34.8906C35.0303 34.8906 35.4733 35.3335 34.9992 36.0898Z" fill="#668DDB"/>
<path fill-rule="evenodd" clip-rule="evenodd" d="M34.943 36.2638C34.943 36.2638 34.2317 36.4083 33.7953 35.8816C33.774 35.804 34.5953 35.6462 34.943 36.2638Z" fill="#668DDB"/>
<path fill-rule="evenodd" clip-rule="evenodd" d="M35.9046 38.1366C35.9046 38.1366 35.1895 38.0125 34.9746 37.3631C34.983 37.283 35.8054 37.4348 35.9046 38.1366Z" fill="#668DDB"/>
<path fill-rule="evenodd" clip-rule="evenodd" d="M36.137 38.2572C36.137 38.2572 36.5907 37.6907 36.3217 37.0618C36.2624 37.0073 35.7466 37.6657 36.137 38.2572Z" fill="#668DDB"/>
<path d="M33.7891 34.6758C33.7891 34.6758 36.0832 36.6874 36.6637 40.35" stroke="#668DDB" stroke-width="0.00219619" stroke-miterlimit="2.28659" stroke-linecap="round" stroke-linejoin="round"/>
<path fill-rule="evenodd" clip-rule="evenodd" d="M33.1845 34.2233L33.5137 34.5397C33.5272 34.5526 33.5485 34.5521 33.5614 34.5386C33.5744 34.5251 33.5741 34.5038 33.5607 34.4909L33.2327 34.1757C33.287 34.1251 33.349 34.0779 33.4194 34.0351L33.7206 34.3245C33.734 34.3374 33.7553 34.3368 33.7683 34.3234C33.7812 34.3099 33.7809 34.2885 33.7675 34.2757L33.4809 34.0003C33.5383 33.9698 33.6007 33.9422 33.6686 33.918C33.7312 33.9563 33.7917 34.0027 33.8484 34.0572C34.1676 34.3639 34.2399 34.8078 34.0095 35.0475C33.7792 35.2872 33.3328 35.2327 33.0136 34.9259C32.9681 34.8822 32.9276 34.8358 32.8926 34.7877C32.9081 34.7186 32.9294 34.6475 32.9585 34.5768L33.2287 34.8364C33.2421 34.8493 33.2634 34.8487 33.2764 34.8352C33.2893 34.8218 33.289 34.8004 33.2756 34.7875L32.9876 34.5108C33.0079 34.4689 33.0308 34.427 33.057 34.3861L33.2649 34.5859C33.2785 34.5989 33.2998 34.5984 33.3128 34.5849C33.3257 34.5714 33.3254 34.5501 33.3118 34.537L33.0959 34.3296C33.1225 34.2931 33.1519 34.2576 33.1845 34.2233Z" fill="#FDDB81"/>
<path fill-rule="evenodd" clip-rule="evenodd" d="M13.3379 6.53358L13.7283 6.09608L14.3816 7.06623L13.9768 7.39232L13.3379 6.53358ZM14.3575 5.17743L15.0081 6.06725L15.4012 5.77802L14.763 4.74219L14.3575 5.17743Z" fill="#FD4C3D"/>
<path fill-rule="evenodd" clip-rule="evenodd" d="M35.1959 3.9346L36.2861 3.01056L36.5385 3.52324L35.4495 4.31335L35.1959 3.9346ZM33.9375 3.23631L34.551 2.07422L34.9812 2.45811L34.3561 3.37048L33.9375 3.23631Z" fill="#FD4C3D"/>
</g>
<defs>
<clipPath id="clip0">
<rect width="50" height="43" fill="white"/>
</clipPath>
</defs>
</svg>
