<svg width="3063" height="2729" viewBox="0 0 3063 2729" fill="none" xmlns="http://www.w3.org/2000/svg">
<path d="M2960.5 2672H1.09961" stroke="#66B0F0" stroke-width="6" stroke-miterlimit="10"/>
<path d="M259.6 2725.6H1954.3" stroke="#66B0F0" stroke-width="6" stroke-miterlimit="10"/>
<path d="M2808 2006.9H2334.7C2312.3 2006.9 2294.1 2025.1 2294.1 2047.5V2672H2848.5V2047.5C2848.6 2025.1 2830.4 2006.9 2808 2006.9Z" fill="#D0F0E4"/>
<path d="M2808 2006.9H2334.7C2312.3 2006.9 2294.1 2025.1 2294.1 2047.5V2672H2848.5V2047.5C2848.6 2025.1 2830.4 2006.9 2808 2006.9Z" stroke="#FFCF2D" stroke-width="6" stroke-miterlimit="10"/>
<path d="M2913.3 1305.3H2230.3V2671.9H2913.3V1305.3Z" stroke="#FFCF2D" stroke-width="6" stroke-miterlimit="10"/>
<path d="M2931.2 1134.2H588.9V1305.3H3062.9" stroke="#FFCF2D" stroke-width="6" stroke-miterlimit="10"/>
<path d="M2808 1626.5H2335.6C2313.2 1626.5 2295 1608.3 2295 1585.9V1419.1C2295 1396.7 2313.2 1378.5 2335.6 1378.5H2808C2830.4 1378.5 2848.6 1396.7 2848.6 1419.1V1586C2848.6 1608.4 2830.4 1626.5 2808 1626.5Z" stroke="#FFCF2D" stroke-width="6" stroke-miterlimit="10"/>
<path d="M2808 1928.5H2335.6C2313.2 1928.5 2295 1910.3 2295 1887.9V1721.1C2295 1698.7 2313.2 1680.5 2335.6 1680.5H2808C2830.4 1680.5 2848.6 1698.7 2848.6 1721.1V1887.9C2848.6 1910.3 2830.4 1928.5 2808 1928.5Z" stroke="#FFCF2D" stroke-width="6" stroke-miterlimit="10"/>
<path d="M2573.4 1532.9C2591.35 1532.9 2605.9 1518.35 2605.9 1500.4C2605.9 1482.45 2591.35 1467.9 2573.4 1467.9C2555.45 1467.9 2540.9 1482.45 2540.9 1500.4C2540.9 1518.35 2555.45 1532.9 2573.4 1532.9Z" stroke="#66B0F0" stroke-width="6" stroke-miterlimit="10"/>
<path d="M2573.4 1835.8C2591.35 1835.8 2605.9 1821.25 2605.9 1803.3C2605.9 1785.35 2591.35 1770.8 2573.4 1770.8C2555.45 1770.8 2540.9 1785.35 2540.9 1803.3C2540.9 1821.25 2555.45 1835.8 2573.4 1835.8Z" stroke="#66B0F0" stroke-width="6" stroke-miterlimit="10"/>
<path d="M2698 461.8L2934.1 1134.2H2069.5L2299.3 461.8H2698Z" fill="#FFCF2D"/>
<path d="M2500.5 381.7C2500.5 353.7 2523.2 331 2551.2 331H2580.5C2608.5 331 2631.2 353.7 2631.2 381.7V1037.8" stroke="#66B0F0" stroke-width="6" stroke-miterlimit="10"/>
<path d="M2699.3 1112.8V1133.1H2485.5V1112.8C2485.5 1095.5 2491.4 1079.5 2501.3 1066.8C2515 1049.2 2536.5 1037.8 2560.5 1037.8H2624.2C2625.2 1037.8 2626.3 1037.8 2627.3 1037.9C2667.4 1039.5 2699.3 1072.4 2699.3 1112.8Z" fill="white" stroke="#FE5244" stroke-width="6" stroke-miterlimit="10"/>
<path d="M2746.8 464.6H2252.1V449.1C2252.1 412 2282.2 382 2319.2 382H2679.7C2716.8 382 2746.8 412.1 2746.8 449.1V464.6Z" fill="#FE5244"/>
<path d="M2746.8 452.2H2252.1" stroke="white" stroke-width="5" stroke-miterlimit="10" stroke-linecap="round"/>
<path d="M2695.1 464.6C2695.1 482.3 2684.1 496.7 2670.4 496.7H2324.2C2310.6 496.7 2299.5 482.3 2299.5 464.6H2695.1Z" fill="white"/>
<path d="M2631.2 1057.4C2631.2 1089.5 2601.9 1115.6 2565.8 1115.6C2533.3 1115.6 2506.3 1094.5 2501.3 1066.8C2515 1049.2 2536.5 1037.8 2560.5 1037.8H2624.2C2625.2 1037.8 2626.3 1037.8 2627.3 1037.9C2629.9 1044 2631.2 1050.6 2631.2 1057.4Z" fill="white" stroke="#FE5244" stroke-width="6" stroke-miterlimit="10"/>
<path d="M2567.6 1024.1V1055.5C2567.6 1061.9 2561.7 1067.1 2554.5 1067.1C2547.3 1067.1 2541.4 1061.9 2541.4 1055.5V1024.1H2541.6C2542.8 1029.6 2548.1 1033.8 2554.4 1033.8C2560.7 1033.8 2566 1029.6 2567.2 1024.1H2567.6Z" fill="#FE5244"/>
<path d="M2564.8 1023C2564.8 1023.7 2564.7 1024.4 2564.6 1025.1C2563.7 1030.1 2559.5 1033.8 2554.4 1033.8C2549.4 1033.8 2545.2 1030.1 2544.2 1025.1C2544.1 1024.4 2544 1023.7 2544 1023C2544 1017 2548.6 1012.2 2554.4 1012.2C2560.1 1012.2 2564.8 1017.1 2564.8 1023Z" fill="white" stroke="#FE5244" stroke-width="6" stroke-miterlimit="10"/>
<path d="M2224.2 678.4H2190V1134.2H2224.2V678.4Z" fill="#3FB1B5"/>
<path d="M2175.7 1134.2H2117.1C2110.9 1134.2 2105.9 1129.2 2105.9 1123V784.2C2105.9 778 2110.9 773 2117.1 773H2175.7C2181.9 773 2186.9 778 2186.9 784.2V1123C2186.9 1129.2 2181.9 1134.2 2175.7 1134.2Z" fill="white" stroke="#FFCF2D" stroke-width="5" stroke-miterlimit="10"/>
<path d="M2364.2 1126.9H2296.9C2292 1126.9 2287.8 1123.4 2286.9 1118.6L2226.5 804.8C2225.3 798.5 2230.1 792.7 2236.5 792.7H2303.8C2308.7 792.7 2312.9 796.2 2313.8 801L2374.2 1114.8C2375.4 1121.1 2370.6 1126.9 2364.2 1126.9Z" stroke="#66B0F0" stroke-width="6" stroke-miterlimit="10"/>
<path d="M2092.5 1134.2H1775.5C1768.1 1134.2 1762.1 1128.2 1762.1 1120.8V1055.9C1762.1 1048.5 1768.1 1042.5 1775.5 1042.5H2092.5C2099.9 1042.5 2105.9 1048.5 2105.9 1055.9V1120.8C2105.9 1128.2 2099.9 1134.2 2092.5 1134.2Z" fill="#FE5244"/>
<path d="M905.399 21.8V228.6C905.399 269.1 872.499 302 831.999 302H602.699C643.199 302 676.099 269.2 676.099 228.6V21.8H905.399Z" fill="white" stroke="#FFCF2D" stroke-width="5" stroke-miterlimit="10"/>
<path d="M799.5 1.80005H781V45.9001H799.5V1.80005Z" fill="#FE5244"/>
<path d="M838.699 100.4C836.099 100.4 833.499 99.4001 831.399 97.5001L823.699 90.7001C821.299 88.6001 818.099 88.6001 815.699 90.7001L808.399 97.2001C804.099 101 798.099 101 793.699 97.2001L786.999 91.3001C784.599 89.2001 781.399 89.2001 778.999 91.3001L772.799 96.8001C768.499 100.6 762.499 100.6 758.099 96.8001L752.999 92.3001C750.599 90.2001 747.399 90.2001 744.999 92.3001L739.499 97.2001C735.199 101 729.199 101 724.799 97.2001L719.699 92.7001C717.299 90.6001 714.099 90.6001 711.699 92.7001C710.699 93.6001 709.099 93.5001 708.199 92.5001C707.299 91.5001 707.399 89.9001 708.399 89.0001C712.699 85.2001 718.699 85.2001 723.099 89.0001L728.199 93.5001C730.599 95.6001 733.799 95.6001 736.199 93.5001L741.699 88.6001C745.999 84.8001 751.999 84.8001 756.399 88.6001L761.499 93.1001C763.899 95.2001 767.099 95.2001 769.499 93.1001L775.699 87.6001C779.999 83.8001 785.999 83.8001 790.399 87.6001L797.099 93.5001C799.499 95.6001 802.699 95.6001 805.099 93.5001L812.399 87.0001C816.699 83.2001 822.699 83.2001 827.099 87.0001L834.799 93.8001C837.199 95.9001 840.399 95.9001 842.799 93.8001L850.799 86.7001C855.099 82.9001 861.099 82.9001 865.499 86.7001C866.499 87.6001 866.599 89.2001 865.699 90.2001C864.799 91.2001 863.199 91.3001 862.199 90.4001C859.799 88.3001 856.599 88.3001 854.199 90.4001L846.199 97.5001C843.799 99.4001 841.299 100.4 838.699 100.4Z" fill="#FFCF2D"/>
<path d="M838.699 141.5C836.099 141.5 833.499 140.5 831.399 138.6L823.699 131.8C821.299 129.7 818.099 129.7 815.699 131.8L808.399 138.3C804.099 142.1 798.099 142.1 793.699 138.3L786.999 132.4C784.599 130.3 781.399 130.3 778.999 132.4L772.799 137.9C768.499 141.7 762.499 141.7 758.099 137.9L752.999 133.4C750.599 131.3 747.399 131.3 744.999 133.4L739.499 138.3C735.199 142.1 729.199 142.1 724.799 138.3L719.699 133.8C717.299 131.7 714.099 131.7 711.699 133.8C710.699 134.7 709.099 134.6 708.199 133.6C707.299 132.6 707.399 131 708.399 130.1C712.699 126.3 718.699 126.3 723.099 130.1L728.199 134.6C730.599 136.7 733.799 136.7 736.199 134.6L741.699 129.7C745.999 125.9 751.999 125.9 756.399 129.7L761.499 134.2C763.899 136.3 767.099 136.3 769.499 134.2L775.699 128.7C779.999 124.9 785.999 124.9 790.399 128.7L797.099 134.6C799.499 136.7 802.699 136.7 805.099 134.6L812.399 128.1C816.699 124.3 822.699 124.3 827.099 128.1L834.799 134.9C837.199 137 840.399 137 842.799 134.9L850.799 127.8C855.099 124 861.099 124 865.499 127.8C866.499 128.7 866.599 130.3 865.699 131.3C864.799 132.3 863.199 132.4 862.199 131.5C859.799 129.4 856.599 129.4 854.199 131.5L846.199 138.6C843.799 140.6 841.299 141.5 838.699 141.5Z" fill="#FFCF2D"/>
<path d="M838.699 182.6C836.099 182.6 833.499 181.6 831.399 179.7L823.699 172.9C821.299 170.8 818.099 170.8 815.699 172.9L808.399 179.4C804.099 183.2 798.099 183.2 793.699 179.4L786.999 173.5C784.599 171.4 781.399 171.4 778.999 173.5L772.799 179C768.499 182.8 762.499 182.8 758.099 179L752.999 174.5C750.599 172.4 747.399 172.4 744.999 174.5L739.499 179.4C735.199 183.2 729.199 183.2 724.799 179.4L719.699 174.9C717.299 172.8 714.099 172.8 711.699 174.9C710.699 175.8 709.099 175.7 708.199 174.7C707.299 173.7 707.399 172.1 708.399 171.2C712.699 167.4 718.699 167.4 723.099 171.2L728.199 175.7C730.599 177.8 733.799 177.8 736.199 175.7L741.699 170.8C745.999 167 751.999 167 756.399 170.8L761.499 175.3C763.899 177.4 767.099 177.4 769.499 175.3L775.699 169.8C779.999 166 785.999 166 790.399 169.8L797.099 175.7C799.499 177.8 802.699 177.8 805.099 175.7L812.399 169.2C816.699 165.4 822.699 165.4 827.099 169.2L834.799 176C837.199 178.1 840.399 178.1 842.799 176L850.799 168.9C855.099 165.1 861.099 165.1 865.499 168.9C866.499 169.8 866.599 171.4 865.699 172.4C864.799 173.4 863.199 173.5 862.199 172.6C859.799 170.5 856.599 170.5 854.199 172.6L846.199 179.7C843.799 181.7 841.299 182.6 838.699 182.6Z" fill="#FFCF2D"/>
<path d="M838.699 223.8C836.099 223.8 833.499 222.8 831.399 220.9L823.699 214.1C821.299 212 818.099 212 815.699 214.1L808.399 220.6C804.099 224.4 798.099 224.4 793.699 220.6L786.999 214.7C784.599 212.6 781.399 212.6 778.999 214.7L772.799 220.2C768.499 224 762.499 224 758.099 220.2L752.999 215.7C750.599 213.6 747.399 213.6 744.999 215.7L739.499 220.6C735.199 224.4 729.199 224.4 724.799 220.6L719.699 216.1C717.299 214 714.099 214 711.699 216.1C710.699 217 709.099 216.9 708.199 215.9C707.299 214.9 707.399 213.3 708.399 212.4C712.699 208.6 718.699 208.6 723.099 212.4L728.199 216.9C730.599 219 733.799 219 736.199 216.9L741.699 212C745.999 208.2 751.999 208.2 756.399 212L761.499 216.5C763.899 218.6 767.099 218.6 769.499 216.5L775.699 211C779.999 207.2 785.999 207.2 790.399 211L797.099 216.9C799.499 219 802.699 219 805.099 216.9L812.399 210.4C816.699 206.6 822.699 206.6 827.099 210.4L834.799 217.2C837.199 219.3 840.399 219.3 842.799 217.2L850.799 210.1C855.099 206.3 861.099 206.3 865.499 210.1C866.499 211 866.599 212.6 865.699 213.6C864.799 214.6 863.199 214.7 862.199 213.8C859.799 211.7 856.599 211.7 854.199 213.8L846.199 220.9C843.799 222.8 841.299 223.8 838.699 223.8Z" fill="#FFCF2D"/>
<path d="M1141.5 21.8H981.1V182.2H1141.5V21.8Z" fill="#66B0F0"/>
<path d="M1016.36 14.9401L1004.73 0.550781L962.338 34.8095L973.968 49.1988L1016.36 14.9401Z" fill="#FFCF2D"/>
<path d="M1149.82 49.1798L1161.45 34.7905L1119.06 0.531827L1107.43 14.9211L1149.82 49.1798Z" fill="#FFCF2D"/>
<path d="M1107.6 59.8H1010.3V65.8H1107.6V59.8Z" fill="white"/>
<path d="M1107.6 85.7002H1010.3V91.7002H1107.6V85.7002Z" fill="white"/>
<path d="M1107.6 111.7H1010.3V117.7H1107.6V111.7Z" fill="white"/>
<path d="M1107.6 137.6H1010.3V143.6H1107.6V137.6Z" fill="white"/>
<path d="M1754.6 1134.2H1380.7L1453.1 974.2L1463.7 950.7H1671.6L1700.8 1015.2L1754.6 1134.2Z" fill="white" stroke="#66B0F0" stroke-width="6" stroke-miterlimit="10"/>
<path d="M1700.8 1015.2L1453.1 974.2L1463.7 950.7H1671.6L1700.8 1015.2Z" fill="#66B0F0"/>
<path d="M2008.3 950.7H1128.2C1095.9 950.7 1069.8 924.5 1069.8 892.3V317.8C1069.8 285.5 1096 259.4 1128.2 259.4H2008.3C2040.6 259.4 2066.7 285.6 2066.7 317.8V892.2C2066.7 924.5 2040.5 950.7 2008.3 950.7Z" fill="white" stroke="#66B0F0" stroke-width="6" stroke-miterlimit="10"/>
<path d="M1841.4 313.5C1847.14 313.5 1851.8 308.844 1851.8 303.1C1851.8 297.356 1847.14 292.7 1841.4 292.7C1835.66 292.7 1831 297.356 1831 303.1C1831 308.844 1835.66 313.5 1841.4 313.5Z" stroke="#FFCF2D" stroke-width="5" stroke-miterlimit="10"/>
<path d="M1883.9 313.5C1889.64 313.5 1894.3 308.844 1894.3 303.1C1894.3 297.356 1889.64 292.7 1883.9 292.7C1878.16 292.7 1873.5 297.356 1873.5 303.1C1873.5 308.844 1878.16 313.5 1883.9 313.5Z" stroke="#FFCF2D" stroke-width="5" stroke-miterlimit="10"/>
<path d="M1926.5 313.5C1932.24 313.5 1936.9 308.844 1936.9 303.1C1936.9 297.356 1932.24 292.7 1926.5 292.7C1920.76 292.7 1916.1 297.356 1916.1 303.1C1916.1 308.844 1920.76 313.5 1926.5 313.5Z" stroke="#FFCF2D" stroke-width="5" stroke-miterlimit="10"/>
<path d="M1531.2 779.6H1217.8C1208.2 779.6 1200.5 771.8 1200.5 762.3V594.5C1200.5 584.9 1208.3 577.2 1217.8 577.2H1531.2C1540.8 577.2 1548.5 585 1548.5 594.5V762.3C1548.5 771.8 1540.8 779.6 1531.2 779.6Z" stroke="#66B0F0" stroke-width="6" stroke-miterlimit="10"/>
<path d="M1926.5 779.6H1613.1C1603.5 779.6 1595.8 771.8 1595.8 762.3V594.5C1595.8 584.9 1603.6 577.2 1613.1 577.2H1926.5C1936.1 577.2 1943.8 585 1943.8 594.5V762.3C1943.8 771.8 1936.1 779.6 1926.5 779.6Z" fill="#3FB1B5"/>
<path d="M1867.3 779.1H1662.5C1683.2 753.6 1714.8 737.2 1750.2 737.2H1779.6C1815 737.3 1846.6 753.6 1867.3 779.1Z" fill="#FE5244"/>
<path d="M1758.5 737.3C1756.5 752.4 1743.6 764 1728 764C1716.5 764 1706.5 757.7 1701.2 748.4C1716 741.3 1732.6 737.3 1750.1 737.3H1758.5Z" fill="white"/>
<path d="M1819 744.3C1814.5 755.8 1803.4 763.9 1790.3 763.9C1774.7 763.9 1761.8 752.3 1759.8 737.2H1779.7C1793.5 737.3 1806.7 739.7 1819 744.3Z" fill="white"/>
<path d="M1796.5 692.7V738.1C1796.5 745.2 1782.3 750.9 1764.9 750.9C1761.7 750.9 1758.6 750.7 1755.7 750.4C1742.7 748.8 1733.3 743.9 1733.3 738.1V692.7H1796.5Z" fill="#A0505A"/>
<path d="M1792.3 702C1792.3 721.7 1775.1 745.6 1755.7 750.3C1742.7 748.7 1733.3 743.8 1733.3 738V692.6H1791.3L1792.3 702Z" fill="#73325A"/>
<path d="M1812.7 686.9V688C1812.7 695.7 1806.4 702 1798.7 702H1785.3C1779.2 715.1 1765.9 724.1 1750.5 724.1H1747.9C1730.7 724.1 1716.8 710.2 1716.8 693V660.9C1736.7 662.2 1762 644.8 1762 644.8C1770.3 676.9 1794 676.5 1805 674.4C1809.5 676.7 1812.7 681.5 1812.7 686.9Z" fill="#A0505A"/>
<path d="M1793 691.8C1792.2 691.8 1791.5 691.1 1791.5 690.3C1791.5 683.9 1796.7 678.7 1803.1 678.7C1803.9 678.7 1804.6 679.4 1804.6 680.2C1804.6 681 1803.9 681.7 1803.1 681.7C1798.4 681.7 1794.5 685.5 1794.5 690.3C1794.5 691.1 1793.8 691.8 1793 691.8Z" fill="#73325A"/>
<path d="M1796.5 702H1798.7C1806.4 702 1812.7 695.7 1812.7 688V686.9C1812.7 681.4 1809.6 676.7 1805 674.4C1802 675 1797.9 675.4 1793.5 675.1C1782.1 674.2 1768 668 1762 644.8C1762 644.8 1736.7 662.2 1716.8 660.9C1713.1 660.7 1709.6 659.8 1706.5 658C1690 648.6 1729.9 604.6 1775.7 611.2C1812.3 616.5 1811.5 660.3 1810.8 670.7C1812.6 670.5 1814.4 670.4 1816.2 670.4C1843 670.4 1864.7 691 1864.7 716.5C1864.7 733.1 1855.5 747.7 1841.6 755.8C1828.3 747 1813 741 1796.5 738.5V702Z" fill="#FFCF2D"/>
<path d="M1737 692.9C1736.8 692.9 1736.6 692.9 1736.5 692.8C1735.7 692.5 1735.3 691.6 1735.6 690.9C1735.6 690.8 1738.6 682.7 1733.6 674C1729.3 666.5 1719.8 667.8 1719.4 667.9C1718.6 668 1717.8 667.5 1717.7 666.6C1717.6 665.8 1718.1 665 1719 664.9C1719.5 664.8 1730.9 663.2 1736.3 672.5C1742 682.4 1738.6 691.6 1738.5 691.9C1738.1 692.5 1737.6 692.9 1737 692.9Z" fill="#73325A"/>
<path d="M1771.1 673.9C1770.8 673.9 1770.5 673.8 1770.2 673.6C1761.5 666.9 1749.9 667.7 1749.8 667.7C1749 667.8 1748.3 667.1 1748.2 666.3C1748.1 665.5 1748.8 664.8 1749.6 664.7C1750.1 664.7 1762.4 663.8 1772 671.2C1772.7 671.7 1772.8 672.6 1772.3 673.3C1771.9 673.7 1771.5 673.9 1771.1 673.9Z" fill="#73325A"/>
<path d="M1731.8 696.3C1731.8 696.3 1734.2 712.1 1750.5 696.7C1750.5 696.7 1739.1 698.2 1731.8 696.3Z" fill="white"/>
<path d="M1756.9 683C1758.06 683 1759 680.896 1759 678.3C1759 675.704 1758.06 673.6 1756.9 673.6C1755.74 673.6 1754.8 675.704 1754.8 678.3C1754.8 680.896 1755.74 683 1756.9 683Z" fill="#73325A"/>
<path d="M1725.7 682.2C1726.69 682.2 1727.5 680.454 1727.5 678.3C1727.5 676.146 1726.69 674.4 1725.7 674.4C1724.71 674.4 1723.9 676.146 1723.9 678.3C1723.9 680.454 1724.71 682.2 1725.7 682.2Z" fill="#73325A"/>
<path d="M1922.6 550.3H1609.2C1599.6 550.3 1591.9 542.5 1591.9 533V365.2C1591.9 355.6 1599.7 347.9 1609.2 347.9H1922.6C1932.2 347.9 1939.9 355.7 1939.9 365.2V533C1939.9 542.5 1932.1 550.3 1922.6 550.3Z" fill="#66B0F0"/>
<path d="M1858.8 550.3H1667.5C1686.8 524.6 1716.3 508.2 1749.4 508.2H1776.9C1810 508.2 1839.5 524.6 1858.8 550.3Z" fill="#FFCF2D"/>
<path d="M1753 541.7H1757.3C1776 541.7 1791.2 526.5 1791.2 507.8V483.7C1791.2 483.6 1791.1 483.5 1791 483.5H1728.1C1728 483.5 1727.9 483.6 1727.9 483.7V516.8C1728 530.6 1739.2 541.7 1753 541.7Z" fill="white"/>
<path d="M1728 483.5V516C1728 516.4 1728 516.9 1728 517.3C1728.9 535.9 1775.2 528.6 1789.1 483.5H1728Z" fill="#FFCF2D"/>
<path d="M1809.5 469C1809.5 473 1807.9 476.6 1805.2 479.3C1802.6 481.9 1799 483.5 1794.9 483.5H1781.2C1776.3 496.5 1763.7 505.7 1749 505.7H1738.3C1723.4 505.7 1711.4 493.6 1711.4 478.8V436.8C1726.8 438.1 1739.8 425.7 1740.3 425.2C1740.1 425.9 1732.3 447.9 1750 449.1C1767.6 450.3 1773.4 437.6 1773.6 437.1C1773.6 437.6 1773.7 454.6 1787.6 455.5H1794.9C1803 455.5 1809.5 461 1809.5 469Z" fill="white"/>
<path d="M1788.9 455.5H1788.6C1788.3 455.5 1788 455.5 1787.7 455.5C1773.8 454.6 1773.7 437.7 1773.7 437.1C1773.5 437.6 1767.6 450.3 1750.1 449.1C1732.5 447.9 1740.2 425.9 1740.4 425.2C1739.9 425.6 1726.9 438.1 1711.5 436.8C1708.1 436.5 1704.7 435.6 1701.2 433.7C1678.7 421.5 1693.2 396.4 1715.3 396.1C1732.9 395.9 1740.4 405.5 1740.4 405.5C1740.4 405.5 1744.2 385.8 1765.8 389.2C1787.4 392.6 1783.5 411.7 1783.5 411.7C1783.5 411.7 1801.6 403.3 1811.6 418.8C1823.4 437 1805.7 455.5 1788.9 455.5Z" fill="#FE5244"/>
<path d="M1729.8 473.8C1729.7 473.8 1729.6 473.8 1729.4 473.8C1728.6 473.6 1728.1 472.8 1728.3 472C1728.3 471.9 1730.7 462 1726.4 453.9C1721.7 445.3 1713.6 446.7 1713.3 446.7C1712.5 446.8 1711.7 446.3 1711.6 445.5C1711.4 444.7 1712 443.9 1712.8 443.8C1712.9 443.8 1723.4 441.9 1729.1 452.5C1734 461.6 1731.4 472.3 1731.3 472.7C1731 473.3 1730.4 473.8 1729.8 473.8Z" fill="#FFCF2D"/>
<path d="M1735.1 485.4C1733 485.4 1731.1 485.1 1729.7 484.7C1728.9 484.5 1728.4 483.7 1728.6 482.9C1728.8 482.1 1729.6 481.6 1730.4 481.8C1730.9 481.9 1742.3 484.9 1746.5 476.1C1746.9 475.4 1747.7 475 1748.5 475.4C1749.3 475.8 1749.6 476.6 1749.2 477.4C1746.3 483.7 1740.2 485.4 1735.1 485.4Z" fill="#FFCF2D"/>
<path d="M1749.6 461.8C1750.76 461.8 1751.7 459.696 1751.7 457.1C1751.7 454.504 1750.76 452.4 1749.6 452.4C1748.44 452.4 1747.5 454.504 1747.5 457.1C1747.5 459.696 1748.44 461.8 1749.6 461.8Z" fill="#FFCF2D"/>
<path d="M1718.5 461C1719.49 461 1720.3 459.254 1720.3 457.1C1720.3 454.946 1719.49 453.2 1718.5 453.2C1717.51 453.2 1716.7 454.946 1716.7 457.1C1716.7 459.254 1717.51 461 1718.5 461Z" fill="#FFCF2D"/>
<path d="M1787.4 474.5C1786.6 474.5 1785.9 473.8 1785.9 473C1785.9 466.6 1791.1 461.4 1797.5 461.4C1798.3 461.4 1799 462.1 1799 462.9C1799 463.7 1798.3 464.4 1797.5 464.4C1792.8 464.4 1788.9 468.2 1788.9 473C1788.9 473.8 1788.2 474.5 1787.4 474.5Z" fill="#FFCF2D"/>
<path d="M1527.2 550.3H1213.8C1204.2 550.3 1196.5 542.5 1196.5 533V365.2C1196.5 355.6 1204.3 347.9 1213.8 347.9H1527.2C1536.8 347.9 1544.5 355.7 1544.5 365.2V533C1544.6 542.5 1536.8 550.3 1527.2 550.3Z" fill="#FFCF2D"/>
<path d="M1451.5 550.3H1257.1C1276.7 521 1306.7 502.3 1340.3 502.3H1368.3C1401.9 502.3 1431.8 521 1451.5 550.3Z" fill="white"/>
<path d="M1451.5 550.3H1257.1C1257.7 549.4 1258.3 548.6 1258.9 547.7C1259 547.5 1259.1 547.3 1259.3 547.2H1449.4C1449.5 547.4 1449.6 547.5 1449.8 547.7C1450.3 548.5 1450.9 549.4 1451.5 550.3Z" fill="#FEB040"/>
<path d="M1443.3 539.4H1265.3C1266.2 538.3 1267.1 537.3 1268 536.3H1440.6C1441.5 537.3 1442.4 538.3 1443.3 539.4Z" fill="#FEB040"/>
<path d="M1432.3 528H1276.3C1277.5 526.9 1278.7 525.9 1279.9 524.9H1428.7C1429.9 525.9 1431.1 526.9 1432.3 528Z" fill="#FEB040"/>
<path d="M1415.5 515.5H1293C1294.8 514.4 1296.7 513.4 1298.6 512.4H1409.8C1411.8 513.4 1413.6 514.4 1415.5 515.5Z" fill="#FEB040"/>
<path d="M1385.3 464.9V509.6C1385.3 514.2 1371.1 517.9 1353.7 517.9C1336.7 517.9 1322.8 514.4 1322.1 509.9C1322.1 509.8 1322.1 509.7 1322.1 509.6V464.9H1385.3Z" fill="#E57281"/>
<path d="M1384.9 464.9V465.9C1384.9 487.9 1357.6 513.1 1337.9 516C1334.8 516.5 1325.2 514.6 1322.2 509.8C1322.2 509.7 1322.2 509.6 1322.2 509.5V464.8H1384.9V464.9Z" fill="#9A3B82"/>
<path d="M1402.5 450.8V451.8C1402.5 459.5 1396.2 465.8 1388.5 465.8H1376.4C1372.5 479.8 1359.7 490 1344.5 490H1331.6C1317.3 490 1305.6 478.4 1305.6 464V407.1C1329.6 413.8 1372.5 407.5 1372.5 407.5C1372.5 407.5 1368.6 421.5 1376 436.7H1388.6C1396.2 436.8 1402.5 443.1 1402.5 450.8Z" fill="#E57281"/>
<path d="M1388 435H1376.6C1366.9 418.6 1372.4 407.7 1372.4 407.7C1372.4 407.7 1329.5 413.9 1305.5 407.3C1294.6 404.3 1287.6 398.6 1290.2 388.5C1298.5 356.1 1387.9 390.6 1394.1 402.3C1400.4 414 1388 435 1388 435Z" fill="white" stroke="#FEB040" stroke-width="4" stroke-miterlimit="10"/>
<path d="M1343.6 465.7C1343.3 466 1343 466.1 1342.6 466.1C1342.2 466.1 1341.8 465.9 1341.5 465.6L1340.1 464.1C1335.8 467.9 1331.7 469.8 1327.9 469.8C1327.5 469.8 1327.1 469.8 1326.8 469.7C1322.6 469.3 1320.5 466.5 1320.4 466.4C1319.9 465.7 1320 464.8 1320.7 464.3C1321.4 463.8 1322.3 463.9 1322.8 464.6C1322.9 464.7 1324.3 466.5 1327.2 466.8C1330.4 467.1 1334.1 465.4 1338.1 461.9L1337.3 461C1336.7 460.4 1336.8 459.4 1337.4 458.9C1338 458.3 1339 458.4 1339.5 459L1343.7 463.6C1344.3 464.2 1344.2 465.1 1343.6 465.7Z" fill="#9A3B82"/>
<path d="M1358.8 435.9C1358.4 435.9 1358 435.8 1357.7 435.5C1348.9 426.9 1337.7 428.6 1337.6 428.6C1336.8 428.7 1336 428.2 1335.9 427.4C1335.8 426.6 1336.3 425.8 1337.1 425.7C1337.6 425.6 1349.9 423.6 1359.8 433.4C1360.4 434 1360.4 434.9 1359.8 435.5C1359.6 435.8 1359.2 435.9 1358.8 435.9Z" fill="#9A3B82"/>
<path d="M1324.7 456.9C1324.6 456.9 1324.4 456.9 1324.3 456.8C1323.5 456.6 1323.1 455.7 1323.3 454.9C1323.3 454.8 1326.4 444.6 1321.4 435.9C1317.1 428.4 1307.4 430.7 1307.3 430.8C1306.5 431 1305.7 430.5 1305.5 429.7C1305.3 428.9 1305.8 428.1 1306.6 427.9C1310.7 426.9 1319.7 426.9 1324 434.5C1329.7 444.4 1326.4 455.4 1326.2 455.9C1325.9 456.5 1325.4 456.9 1324.7 456.9Z" fill="#9A3B82"/>
<path d="M1313.5 445.2C1314.49 445.2 1315.3 443.454 1315.3 441.3C1315.3 439.146 1314.49 437.4 1313.5 437.4C1312.51 437.4 1311.7 439.146 1311.7 441.3C1311.7 443.454 1312.51 445.2 1313.5 445.2Z" fill="#9A3B82"/>
<path d="M1344.6 446C1345.76 446 1346.7 443.896 1346.7 441.3C1346.7 438.704 1345.76 436.6 1344.6 436.6C1343.44 436.6 1342.5 438.704 1342.5 441.3C1342.5 443.896 1343.44 446 1344.6 446Z" fill="#9A3B82"/>
<path d="M1380.7 455.9C1379.9 455.9 1379.2 455.2 1379.2 454.4C1379.2 447.9 1384.5 442.6 1391 442.6C1391.8 442.6 1392.5 443.3 1392.5 444.1C1392.5 444.9 1391.8 445.6 1391 445.6C1386.1 445.6 1382.2 449.5 1382.2 454.4C1382.2 455.2 1381.6 455.9 1380.7 455.9Z" fill="#9A3B82"/>
<path d="M1895.5 2342.4C1892.8 2341.6 1891.3 2341.2 1891.3 2341.2L1858.6 2448.3L1735.5 2416C1734.5 2415.1 1734 2414.6 1734 2414.6C1734 2414.6 1235.5 2023.9 1209.3 1836.4C1183.2 1648.9 1392 1471 1392 1471C1392 1471 1837.3 2312.7 1892.4 2340.2C1893.5 2340.8 1894.6 2341.5 1895.5 2342.4Z" fill="#A0505A"/>
<path d="M1497.4 1667.9C1481.8 1751.4 1427 1920.5 1370.3 2084.1C1286.3 1993.6 1218.5 1902.3 1209.3 1836.3C1192.7 1717.5 1270.6 1602.4 1329.8 1534.2C1351.5 1516.8 1374.9 1500.8 1400.2 1486.5C1415.7 1515.6 1451.6 1583 1497.4 1667.9Z" fill="#73325A"/>
<path d="M2175.3 2414.5L1992.2 2532L1939.1 2524L1890.2 2555L1906 2587.4L1825.5 2639.1C1718.8 2542 1733.9 2415.7 1733.9 2415.7L1858.5 2448.4L1891.2 2341.3C1891.2 2341.3 2003.1 2374 2085.7 2371.2C2168.5 2368.4 2175.3 2414.5 2175.3 2414.5Z" fill="white" stroke="#FE5244" stroke-width="6" stroke-miterlimit="10"/>
<path d="M1967.2 2355.6C1967.2 2355.6 1959.5 2274.2 1940.2 2279.3C1920.9 2284.5 1945.1 2365.7 1966.8 2356.8C1988.5 2347.9 2010.2 2290.2 2010.2 2290.2" stroke="#FE5244" stroke-width="6" stroke-miterlimit="10"/>
<path d="M1753 2531.9L1875.7 2533.8L1936.6 2497.4L1994.4 2506.7L2167.7 2398.5" stroke="#FE5244" stroke-width="6" stroke-miterlimit="10"/>
<path d="M1941.8 2351L1930.4 2404.1" stroke="#FE5244" stroke-width="6" stroke-miterlimit="10"/>
<path d="M1966.6 2357L1955.2 2410.1" stroke="#FE5244" stroke-width="6" stroke-miterlimit="10"/>
<path d="M1992.5 2361.3L1981.1 2414.4" stroke="#FE5244" stroke-width="6" stroke-miterlimit="10"/>
<path d="M1349.7 1430.1C1349.7 1430.1 1423 1464.3 1423 1589.7C1423 1710.9 1143.2 2453.1 1143.2 2453.1L1057.1 2526.1L969.699 2430.4C1012.4 2389.8 889.799 1655.8 1349.7 1430.1Z" fill="#A0505A"/>
<path d="M1341.9 2668.3L1124.3 2668.5L1083.9 2633.1L1026 2632.8L1021.8 2668.6L936.499 2668.7C890.099 2524.3 970.099 2430.3 970.099 2430.3L1056.9 2525.9L1143.6 2453C1143.6 2453 1218.8 2541.2 1289.8 2583.4C1361 2625.7 1341.9 2668.3 1341.9 2668.3Z" fill="white" stroke="#FE5244" stroke-width="6" stroke-miterlimit="10"/>
<path d="M1193.2 2504.4C1193.2 2504.4 1278.6 2449.3 1254.3 2428.2C1230 2407.1 1181.1 2498.7 1194.4 2506C1207.7 2513.3 1299.8 2485.6 1299.8 2485.6" stroke="#FE5244" stroke-width="6" stroke-miterlimit="10"/>
<path d="M925 2541L1027.1 2605.4H1098L1142.9 2643.1H1343.6" stroke="#FE5244" stroke-width="6" stroke-miterlimit="10"/>
<path d="M1174.2 2483.6L1135.8 2522" stroke="#FE5244" stroke-width="6" stroke-miterlimit="10"/>
<path d="M1191.8 2502.1L1153.4 2540.5" stroke="#FE5244" stroke-width="6" stroke-miterlimit="10"/>
<path d="M1211.2 2519.7L1172.8 2558.1" stroke="#FE5244" stroke-width="6" stroke-miterlimit="10"/>
<path d="M1349.7 1430.1C1176.8 1514.9 1086.2 1671.7 1038.3 1836.4H513.6C379.3 1836.4 279.2 1712.5 307.5 1581.2L346 1402.4H1258.3C1292.1 1402.4 1323.5 1412.6 1349.7 1430.1Z" fill="#90CDD6"/>
<path d="M960.1 1601.5L1149 1601.1L1121 1647L960.1 1601.5Z" fill="#A0505A"/>
<path d="M1350.7 1429.1C1264.7 1471.3 1199.1 1531.3 1148.9 1601.2H670.2C583.9 1601.2 519.5 1521.9 537.1 1437.4L544.4 1402.4" stroke="white" stroke-width="6" stroke-miterlimit="10" stroke-linecap="round"/>
<path d="M1039 1836.3C1058.1 1770.6 1083.9 1706.1 1119 1647L960.1 1601.4" stroke="white" stroke-width="6" stroke-miterlimit="10" stroke-linecap="round"/>
<path d="M223.399 922.1L319.499 1299.1H140.199C35.7994 1299.1 -31.4006 1188.2 16.9994 1095.7L154.699 832.4C193.699 757.9 270.799 711.2 354.899 711.2H387.399C276.999 711.1 196.099 815.1 223.399 922.1Z" fill="#3FB1B5"/>
<path d="M1330 824.3C1386.5 824.3 1433.5 816.8 1444.9 806.3L1269.6 1186.3C1237.9 1255.1 1169 1299.1 1093.3 1299.1C1071.1 1299.1 1049.3 1295.3 1028.7 1288C1008.1 1280.7 988.699 1270 971.399 1256L860.899 1166.8C860.899 1166.8 849.899 1231.5 771.399 1248V1402.2H345.899L223.399 922C196.099 815 276.999 710.9 387.399 710.9H685.299C711.599 710.9 737.499 714.2 762.499 720.6C830.899 738 892.298 778.2 935.698 835.8L1081.3 1029L1212.1 800.4C1212.1 800.6 1212 800.9 1212 801.1C1212.1 814.4 1265 824.3 1330 824.3Z" fill="#3FB1B5"/>
<path d="M222.398 922.1L316.498 1302.1" stroke="white" stroke-width="6" stroke-miterlimit="10" stroke-linecap="round"/>
<path d="M861.899 1171.9L778.299 1082.9" stroke="white" stroke-width="6" stroke-miterlimit="10" stroke-linecap="round"/>
<path d="M1447.5 800.7L1444.9 806.3C1433.5 816.9 1386.5 824.3 1330 824.3C1265 824.3 1212.1 814.4 1212.1 801.3C1212.1 801.1 1212.1 800.8 1212.2 800.6C1214 787.8 1266.2 776.8 1330.1 776.8C1393.9 776.8 1445.7 787.8 1447.5 800.7C1447.5 800.6 1447.5 800.6 1447.5 800.7Z" fill="#FE5244"/>
<path d="M1499.9 608.7C1499.9 614.4 1498.5 620 1495.9 624.9C1493.3 629.8 1489.5 634.1 1484.8 637.4L1482.5 639L1464.6 734.5C1461.7 750 1452.5 763.7 1439.2 772.2L1414.7 787.8L1395.3 800.2L1386.3 821.7C1369.6 823.4 1350.5 824.4 1330.1 824.4C1309.5 824.4 1290.1 823.4 1273.2 821.6V673.5C1273.2 667.1 1274.6 660.8 1277.3 655L1309.9 584.8C1309.9 584.8 1345.5 593.6 1329.1 637.3C1314.2 677 1348.2 666.8 1367.3 659.7C1384.4 653.3 1459.1 615.3 1488.3 601.4C1493.7 598.8 1499.9 602.8 1499.9 608.7Z" fill="#A0505A"/>
<path d="M1468.7 698.2C1465.8 713.7 1456.6 727.3 1443.3 735.8L1399.4 763.8" stroke="#73325A" stroke-width="5" stroke-miterlimit="10" stroke-linecap="round"/>
<path d="M1475.9 657.7C1473 673.2 1463.8 686.8 1450.5 695.3L1406.6 723.3" stroke="#73325A" stroke-width="5" stroke-miterlimit="10" stroke-linecap="round"/>
<path d="M1479.3 640.1L1408.7 684.9" stroke="#73325A" stroke-width="5" stroke-miterlimit="10" stroke-linecap="round"/>
<path d="M1418.5 785.3L1414.6 787.8L1395.2 800.2L1386.2 821.7C1369.5 823.4 1350.4 824.4 1330 824.4C1309.4 824.4 1290 823.4 1273.1 821.6V780C1290 778 1309.4 776.9 1330 776.9C1365.3 776.8 1396.9 780.1 1418.5 785.3Z" fill="#73325A"/>
<path d="M753.2 718.3C738.7 737.8 684.7 783.7 502.9 783.7C269 783.7 418.7 711.3 418.7 711.3L517.9 545.6L624.3 610.9V663.4C624.3 689.9 645.8 711.3 672.2 711.3H679.1C703.9 711.2 729.5 712.3 753.2 718.3Z" fill="#A0505A"/>
<path d="M624.2 610.8V624.2L418.6 711.2L517.8 545.5L624.2 610.8Z" fill="#73325A"/>
<path d="M629.799 617.3H652.399C673.199 617.3 690.099 600.4 690.099 579.6V453.7H555.199V542.7C555.199 583.9 588.599 617.3 629.799 617.3Z" fill="#A0505A"/>
<path d="M687.198 572.3C672.698 572.3 666.898 562.3 666.898 562.3" stroke="#73325A" stroke-width="5" stroke-miterlimit="10" stroke-linecap="round"/>
<path d="M674.099 532C676.75 532 678.899 527.836 678.899 522.7C678.899 517.564 676.75 513.4 674.099 513.4C671.448 513.4 669.299 517.564 669.299 522.7C669.299 527.836 671.448 532 674.099 532Z" fill="#73325A"/>
<path d="M580.9 466.8C580.9 466.8 692.2 534 728.4 475.5C760.2 424.2 619.3 397.8 570.1 397.6C516.6 397.4 445.7 421.1 446.9 499.8C447.9 564.6 450.6 659.4 412.2 642.9C275.6 584.3 154.2 645.5 153.8 762.1C153.4 878.7 288.7 889.6 292.1 859.5C295.6 829.5 208.1 836.4 219.9 914.3C231.6 992.2 283.8 1089.6 403 1089.6C547 1089.7 638.7 900.1 549.6 880.8C481.3 866 619.2 997.8 660.1 860.8C704.1 713.3 545.1 665 541.2 575.9C537.3 486.8 580.9 466.8 580.9 466.8Z" fill="#FFCF2D" stroke="white" stroke-width="5" stroke-miterlimit="10"/>
<path d="M573.1 520.3H652.7" stroke="#FE5244" stroke-width="6" stroke-miterlimit="10"/>
<path d="M677.2 552.3C689.681 552.3 699.8 539.316 699.8 523.3C699.8 507.284 689.681 494.3 677.2 494.3C664.718 494.3 654.6 507.284 654.6 523.3C654.6 539.316 664.718 552.3 677.2 552.3Z" stroke="#FE5244" stroke-width="6" stroke-miterlimit="10"/>
<path d="M495.3 1893.3V1948.4C495.3 1975 473.7 1996.6 447.1 1996.6H323.5" stroke="#66B0F0" stroke-width="6" stroke-miterlimit="10"/>
<path d="M541.4 1893.9V2399.4" stroke="#66B0F0" stroke-width="6" stroke-miterlimit="10"/>
<path d="M317.6 2561.5C317.6 2472 406.5 2399.4 516.1 2399.4H565.9C675.5 2399.4 764.4 2472 764.4 2561.5" stroke="#66B0F0" stroke-width="6" stroke-miterlimit="10"/>
<path d="M1022.3 1901.6H296.3C259.9 1901.6 230.5 1872.1 230.5 1835.8H1039.5L1022.3 1901.6Z" fill="#FFCF2D"/>
<path d="M313.2 2668.7C342.802 2668.7 366.8 2644.7 366.8 2615.1C366.8 2585.5 342.802 2561.5 313.2 2561.5C283.597 2561.5 259.6 2585.5 259.6 2615.1C259.6 2644.7 283.597 2668.7 313.2 2668.7Z" fill="#FFCF2D"/>
<path d="M285.9 2010.3H393.5C402.3 2010.3 409.4 2003.2 409.4 1994.4V1993.2C409.4 1984.4 402.3 1977.3 393.5 1977.3H285.9C277.1 1977.3 270 1984.4 270 1993.2V1994.4C270 2003.2 277.1 2010.3 285.9 2010.3Z" fill="#FFCF2D"/>
<path d="M230.5 1837.8H745.6L573.3 1355C561.3 1321.5 529.6 1299.1 494 1299.1H115.3C77.6999 1299.1 51.4999 1336.3 64.0999 1371.7L230.5 1837.8Z" stroke="#FFCF2D" stroke-width="6" stroke-miterlimit="10"/>
<path d="M256.001 1837.8H703.801L537.301 1371C525.701 1338.6 495.101 1317 460.701 1317H77.3008" stroke="#FFCF2D" stroke-width="6" stroke-miterlimit="10"/>
<path d="M763.5 2668.7C793.103 2668.7 817.1 2644.7 817.1 2615.1C817.1 2585.5 793.103 2561.5 763.5 2561.5C733.898 2561.5 709.9 2585.5 709.9 2615.1C709.9 2644.7 733.898 2668.7 763.5 2668.7Z" fill="#FFCF2D"/>
</svg>
