<svg width="33" height="23" viewBox="0 0 33 23" fill="none" xmlns="http://www.w3.org/2000/svg">
<path fill-rule="evenodd" clip-rule="evenodd" d="M0 21.2636V13.39C0 13.0111 0.307123 12.7038 0.685978 12.7038H0.685998V11.2307C0.685998 10.9636 0.792137 10.7073 0.981058 10.5185C1.14727 10.3523 1.36556 10.2501 1.59755 10.228V10.2234H3.15721V10.228C3.38921 10.2501 3.6075 10.3523 3.77371 10.5185C3.96263 10.7073 4.06877 10.9636 4.06877 11.2307V12.7038H4.06879C4.44764 12.7038 4.75477 13.0111 4.75477 13.39V21.2636H0Z" fill="#FFD274"/>
<path d="M4.06637 12.3596H0.683594V12.7028H4.06637V12.3596Z" fill="white"/>
<path fill-rule="evenodd" clip-rule="evenodd" d="M3.08451 21.2611C3.0376 20.8607 2.94639 20.4425 2.7835 20.0898C2.59015 19.6713 2.29474 19.3453 1.83912 19.2776C1.83872 19.3281 1.83598 19.3794 1.83078 19.4315C1.80585 19.6821 1.7278 19.9932 1.52789 20.166C1.4185 20.2604 1.31085 20.2921 1.21517 20.2857C1.07092 20.2762 0.945166 20.1773 0.870404 20.0316C0.756788 19.8104 0.765591 19.4872 0.983764 19.293C1.15269 19.1426 1.37725 19.0646 1.60309 19.0494C1.48488 18.2999 0.75181 17.8243 0 17.7337V17.5139C0.864218 17.6116 1.70845 18.1777 1.82543 19.0543L1.83603 19.0556C2.38791 19.123 2.75219 19.4983 2.98288 19.9978C3.1585 20.3781 3.25574 20.8307 3.30458 21.2611H3.08451ZM1.61956 19.2681C1.4409 19.2793 1.26316 19.3382 1.12979 19.457C0.990042 19.5814 0.993006 19.7897 1.06577 19.9313C1.10287 20.0036 1.15805 20.0618 1.22959 20.0666C1.27774 20.0697 1.32926 20.0474 1.38431 19.9998C1.54348 19.8622 1.59238 19.6092 1.61224 19.4098C1.61703 19.3616 1.61945 19.3144 1.61956 19.2681ZM4.75474 13.7769V14.0029C4.71404 14.0139 4.67995 14.024 4.66541 14.0269C3.91997 14.181 3.12761 14.7956 3.22153 15.6301C3.3447 15.5567 3.48667 15.5042 3.62001 15.4872C3.80629 15.4634 3.97314 15.5093 4.06814 15.6321C4.13084 15.7134 4.16661 15.832 4.14574 15.9987C4.11875 16.2149 4.02395 16.3269 3.91203 16.375C3.80189 16.4222 3.66339 16.4077 3.52623 16.3426C3.37708 16.2716 3.2305 16.1413 3.13151 15.9974C3.12807 16.0029 3.12485 16.0084 3.12183 16.0141C2.79408 16.621 2.93363 17.3289 3.32274 17.8192C3.65786 18.2412 4.18077 18.5024 4.75474 18.3926V18.616C4.11179 18.7236 3.52737 18.4301 3.15072 17.9557C2.70982 17.4002 2.5572 16.5974 2.9286 15.9098C2.95244 15.8655 2.98553 15.8225 3.02552 15.7815C3.02031 15.7632 3.01619 15.7449 3.01326 15.7269C2.85259 14.7423 3.75219 13.9916 4.62094 13.8119C4.64074 13.8076 4.69532 13.7917 4.75474 13.7769ZM3.28894 15.8428C3.36297 15.967 3.49245 16.0833 3.62051 16.1442C3.6938 16.179 3.7665 16.1984 3.82534 16.1731C3.88249 16.1486 3.91403 16.0818 3.92783 15.9716C3.93937 15.879 3.92914 15.8115 3.89437 15.7665C3.84313 15.7002 3.74831 15.6922 3.64781 15.705C3.52669 15.7205 3.39423 15.7718 3.28894 15.8428ZM0 15.1546C0.59405 14.9456 1.11268 14.5414 1.38623 13.9522C1.52196 13.6598 1.59826 13.34 1.60488 13.0176C1.60706 12.9105 1.60662 12.8003 1.58905 12.6944L1.8112 12.6949C1.82573 12.8029 1.82666 12.914 1.82445 13.022C1.81722 13.3748 1.73393 13.7247 1.58543 14.0447C1.2754 14.7125 0.678841 15.166 0 15.3862V15.1546ZM4.06856 11.3097C3.87058 11.5267 3.61136 11.7037 3.3432 11.8003C3.04009 11.9096 2.72735 11.916 2.47609 11.7776C2.38338 11.7266 2.29831 11.6559 2.2251 11.5624C1.62417 11.675 1.08838 11.2251 0.883508 10.7348C0.874193 10.7127 0.865572 10.6902 0.857666 10.6678C0.910777 10.5946 0.971264 10.5242 1.025 10.4747C1.03779 10.5317 1.06224 10.593 1.08614 10.6501C1.24568 11.0318 1.64086 11.3962 2.10162 11.3578C2.09002 11.3327 2.07908 11.3066 2.06877 11.2795C2.03901 11.2011 2.03889 11.0966 2.06734 10.9874C2.10527 10.8417 2.19245 10.687 2.29877 10.5871C2.44608 10.4486 2.62507 10.4083 2.78407 10.5496C2.932 10.6812 2.9344 10.871 2.84013 11.0582C2.75788 11.2216 2.59975 11.3798 2.44007 11.4753C2.48325 11.5207 2.53083 11.5571 2.58202 11.5853C2.78094 11.6947 3.02874 11.6803 3.26875 11.5937C3.5714 11.4846 3.86406 11.2601 4.04117 10.9934C4.0634 11.0855 4.06979 11.1916 4.06856 11.3097ZM2.31606 11.2969C2.44505 11.2257 2.57668 11.0932 2.64397 10.9594C2.68925 10.8695 2.70922 10.7769 2.63815 10.7138C2.57549 10.6579 2.50728 10.6925 2.44921 10.7471C2.37088 10.8208 2.30781 10.9354 2.27986 11.0426C2.2644 11.1021 2.25788 11.1589 2.27408 11.2015C2.28693 11.2354 2.30095 11.267 2.31606 11.2969Z" fill="white"/>
<path fill-rule="evenodd" clip-rule="evenodd" d="M22.1795 19.8085C22.1962 19.1875 22.7125 18.6875 23.3468 18.6875C23.9813 18.6875 24.4974 19.1875 24.5141 19.8085H24.2945C24.2778 19.3078 23.8591 18.9071 23.3468 18.9071C22.8345 18.9071 22.4158 19.3078 22.3993 19.8085H22.1795ZM25.9103 18.8678C25.7352 18.9714 25.5302 19.0309 25.3111 19.0309C24.6662 19.0309 24.1435 18.5144 24.1435 17.8791C24.1435 17.2439 24.6662 16.7274 25.3111 16.7274C25.6702 16.7274 25.9914 16.8874 26.2057 17.139L26.1526 17.4494C25.9943 17.1509 25.6766 16.947 25.3111 16.947C24.7884 16.947 24.3631 17.3641 24.3631 17.8791C24.3631 18.3941 24.7884 18.8112 25.3111 18.8112C25.5639 18.8112 25.7937 18.7139 25.9638 18.555L25.9103 18.8678ZM20.6418 16.3436C20.8484 16.1615 21.1208 16.0506 21.4195 16.0506C22.0644 16.0506 22.5873 16.5673 22.5873 17.2025C22.5873 17.8376 22.0644 18.3542 21.4195 18.3542C21.2555 18.3542 21.0994 18.3208 20.9577 18.2605L20.9132 17.9906C21.0598 18.0817 21.2335 18.1346 21.4195 18.1346C21.9423 18.1346 22.3677 17.7173 22.3677 17.2025C22.3677 16.6875 21.9423 16.2702 21.4195 16.2702C21.1243 16.2702 20.86 16.4035 20.6861 16.6119L20.6418 16.3436ZM26.364 16.2117C25.8033 16.1273 25.3735 15.6491 25.3735 15.0731C25.3735 14.4379 25.8962 13.9214 26.5412 13.9214C26.6131 13.9214 26.6836 13.9278 26.752 13.9401L26.715 14.1566C26.6587 14.1463 26.6007 14.141 26.5412 14.141C26.0183 14.141 25.5931 14.5581 25.5931 15.0731C25.5931 15.5411 25.9444 15.9284 26.401 15.9952L26.364 16.2117ZM20.1254 12.8676C20.1707 12.8623 20.217 12.8595 20.2639 12.8595C20.9087 12.8595 21.4315 13.376 21.4315 14.0113C21.4315 14.5858 21.0038 15.0632 20.4451 15.1493L20.4094 14.9326C20.8633 14.8636 21.2119 14.4776 21.2119 14.0113C21.2119 13.4964 20.7866 13.0792 20.2639 13.0792C20.2101 13.0792 20.1574 13.0836 20.1061 13.092L20.0928 13.0116C20.103 12.9624 20.1138 12.9145 20.1254 12.8676ZM25.0646 10.898C25.1537 10.9291 25.2385 10.9615 25.3194 10.995C25.0251 11.1531 24.8252 11.4602 24.8252 11.8132C24.8252 12.3282 25.2505 12.7453 25.7732 12.7453C26.1993 12.7453 26.5606 12.4684 26.6797 12.087C26.7311 12.1791 26.7712 12.2697 26.8025 12.3573C26.6056 12.7188 26.2185 12.965 25.7732 12.965C25.1283 12.965 24.6056 12.4485 24.6056 11.8132C24.6056 11.4406 24.7855 11.1086 25.0646 10.898ZM22.2864 10.1271C22.9185 10.1416 23.4264 10.6524 23.4264 11.2785C23.4264 11.9137 22.9037 12.4304 22.2588 12.4304C21.6162 12.4304 21.0948 11.9174 21.0911 11.2854C21.1676 11.2285 21.2449 11.1785 21.3219 11.135C21.3146 11.1817 21.3107 11.2296 21.3107 11.2785C21.3107 11.7935 21.7359 12.2108 22.2588 12.2108C22.7816 12.2108 23.2068 11.7935 23.2068 11.2785C23.2068 10.801 22.8411 10.4075 22.371 10.3528L22.2864 10.1271ZM23.4326 8.70361C23.4167 8.77133 23.4083 8.84179 23.4083 8.91426C23.4083 9.42909 23.8334 9.84637 24.3563 9.84637C24.5483 9.84637 24.7271 9.79018 24.8766 9.69336L24.7526 9.9979C24.6287 10.042 24.4954 10.066 24.3563 10.066C23.7114 10.066 23.1887 9.54951 23.1887 8.91426C23.1887 8.84234 23.1953 8.77188 23.2081 8.70361H23.4326Z" fill="#88C9D3"/>
<path fill-rule="evenodd" clip-rule="evenodd" d="M23.5104 13.7024C24.0279 13.7024 24.4493 14.1109 24.4493 14.6156C24.4493 15.1204 24.0279 15.5288 23.5104 15.5288C23.4499 15.5288 23.4006 15.5781 23.4006 15.6387C23.4006 15.6994 23.4499 15.7484 23.5104 15.7484C24.1506 15.7484 24.6688 15.2401 24.6688 14.6156C24.6688 13.9911 24.1506 13.4827 23.5104 13.4827C23.4499 13.4827 23.4006 13.5319 23.4006 13.5926C23.4006 13.6532 23.4499 13.7024 23.5104 13.7024Z" fill="#88C9D3"/>
<path fill-rule="evenodd" clip-rule="evenodd" d="M23.5092 15.5288C22.9919 15.5288 22.5704 15.1204 22.5704 14.6156C22.5704 14.1109 22.9919 13.7024 23.5092 13.7024C23.5699 13.7024 23.619 13.6532 23.619 13.5926C23.619 13.5319 23.5699 13.4827 23.5092 13.4827C22.8691 13.4827 22.3508 13.9911 22.3508 14.6156C22.3508 15.2401 22.8691 15.7484 23.5092 15.7484C23.5699 15.7484 23.619 15.6994 23.619 15.6387C23.619 15.5781 23.5699 15.5288 23.5092 15.5288Z" fill="#88C9D3"/>
<path fill-rule="evenodd" clip-rule="evenodd" d="M25.1603 8.81339H23.0223C22.9617 8.81339 22.9124 8.76408 22.9124 8.70347C22.9124 8.64287 22.9617 8.59375 23.0223 8.59375H25.3267C25.3636 8.59375 25.398 8.61219 25.4183 8.64306C25.4386 8.67374 25.442 8.7127 25.4275 8.74657L24.5814 10.7267H24.6493C25.3374 10.7267 25.9903 11.0301 26.4339 11.5559C26.8775 12.0818 27.0666 12.7765 26.9509 13.4546C26.4982 16.1039 25.8623 19.8269 25.8623 19.8269C25.8533 19.8796 25.8075 19.9181 25.7541 19.9181H23.0223C22.9617 19.9181 22.9124 19.869 22.9124 19.8084C22.9124 19.7478 22.9617 19.6985 23.0223 19.6985H25.6615L26.7343 13.4175C26.8393 12.8032 26.668 12.1738 26.266 11.6975C25.8642 11.2211 25.2726 10.9463 24.6493 10.9463H24.415C24.3781 10.9463 24.3437 10.9277 24.3233 10.897C24.303 10.8662 24.2996 10.8272 24.3141 10.7933L25.1603 8.81339Z" fill="#3968BE"/>
<path fill-rule="evenodd" clip-rule="evenodd" d="M22.3908 10.7267L21.5446 8.74657C21.5301 8.7127 21.5335 8.67374 21.5538 8.64306C21.5742 8.61219 21.6086 8.59375 21.6455 8.59375H23.9499C24.0105 8.59375 24.0598 8.64287 24.0598 8.70347C24.0598 8.76408 24.0105 8.81339 23.9499 8.81339H21.8119L22.6581 10.7933C22.6725 10.8272 22.6692 10.8662 22.6488 10.897C22.6285 10.9277 22.5941 10.9463 22.5572 10.9463H22.3229C21.6995 10.9463 21.108 11.2211 20.7062 11.6975C20.3042 12.1738 20.1329 12.8032 20.2379 13.4175L21.3107 19.6985H23.9499C24.0105 19.6985 24.0598 19.7478 24.0598 19.8084C24.0598 19.869 24.0105 19.9181 23.9499 19.9181H21.2181C21.1646 19.9181 21.1189 19.8796 21.1099 19.8269C21.1099 19.8269 20.4739 16.1039 20.0213 13.4546C19.9055 12.7765 20.0947 12.0818 20.5383 11.5559C20.9819 11.0301 21.6348 10.7267 22.3229 10.7267H22.3908Z" fill="#3968BE"/>
<path fill-rule="evenodd" clip-rule="evenodd" d="M23.5718 8.60175C23.5791 8.56452 23.5871 8.5274 23.5954 8.49045C23.6382 8.30134 23.6856 8.11251 23.7477 7.92832C23.8478 7.63079 23.854 7.62395 23.936 7.41106C23.981 7.29378 24.0355 7.18039 24.0906 7.06767C24.7771 5.66262 26.0156 4.63774 27.4816 4.12069C27.5773 4.08692 28.3366 3.86507 28.6715 3.81337C28.7579 3.80003 28.8227 3.79992 28.8542 3.80786C28.8846 3.81553 28.905 3.82982 28.9188 3.84375C28.9446 3.87012 28.9671 3.91428 28.942 3.97631C28.932 4.00145 28.8999 4.0462 28.8549 4.09402C28.7782 4.17563 28.6626 4.27874 28.649 4.29248C28.3295 4.61496 28.0562 4.98203 27.7151 5.28295C27.3935 5.56661 27.0306 5.80116 26.6463 5.99033C26.2001 6.20985 25.3234 6.51496 24.6845 6.96941C24.4614 7.12814 24.2667 7.30444 24.1355 7.50321C24.072 7.65738 24.0149 7.81432 23.9638 7.97325C23.9632 7.9798 23.8436 8.38939 23.8097 8.53893C23.8049 8.55982 23.8004 8.58075 23.796 8.60175H23.5718Z" fill="#EF7B58"/>
<path fill-rule="evenodd" clip-rule="evenodd" d="M24.1378 7.50807C24.0743 7.66224 24.6737 5.91927 26.6486 5.3053C27.8596 4.92882 29.0895 3.77474 28.9211 3.8486C28.8872 3.86345 28.9694 3.91914 28.9443 3.98116C28.9343 4.00631 28.9022 4.05106 28.8572 4.09888C28.7805 4.18049 28.6649 4.2836 28.6513 4.29734C28.3318 4.61982 28.0585 4.98689 27.7174 5.28781C27.3958 5.57146 27.0329 5.80602 26.6486 5.99518C26.2024 6.21471 25.3257 6.51982 24.6868 6.97426C24.4637 7.13299 24.269 7.30929 24.1378 7.50807Z" fill="#F24D46"/>
<path fill-rule="evenodd" clip-rule="evenodd" d="M26.3555 8.69799C26.0824 8.58397 25.0167 8.42127 24.7067 8.46592C24.6468 8.47452 24.6108 8.39326 24.6245 8.33415C24.6311 8.30542 24.6481 8.27449 24.6882 8.25308C24.7151 8.23862 24.7845 8.22544 24.8847 8.22782C25.2552 8.23715 26.1801 8.38668 26.44 8.49539C27.1616 8.797 27.5066 9.40296 27.8128 10.0737C27.8194 10.0796 27.8254 10.0863 27.8308 10.094C28.0559 10.4246 28.4331 10.6363 28.8337 10.8124C29.2566 10.9979 29.7065 11.1427 30.0526 11.3261C30.3059 11.4602 30.5447 11.6224 30.7632 11.808C31.0376 12.0408 31.2812 12.3265 31.4325 12.6555C31.4964 12.7943 31.4797 12.8922 31.4323 12.9557C31.401 12.9976 31.3525 13.0298 31.2857 13.0464C31.218 13.0635 31.1256 13.0649 31.0156 13.0503C30.3955 12.9681 29.136 12.3799 28.938 12.226C28.2672 11.7049 27.9687 10.9571 27.6558 10.2591C27.3613 9.60282 27.0559 8.99063 26.3555 8.69799ZM24.837 8.38942L24.8368 8.39034L24.837 8.3896V8.38942Z" fill="#EF7B58"/>
<path fill-rule="evenodd" clip-rule="evenodd" d="M27.6489 10.26C29.2952 13.116 30.2662 11.3318 31.2789 13.0473C31.2789 13.0473 31.1187 13.0658 31.0087 13.0512C30.7715 13.0197 30.441 12.9143 30.1121 12.7876C29.5807 12.5827 29.0534 12.3219 28.9311 12.2269C28.2604 11.7058 27.6489 10.26 27.6489 10.26Z" fill="#F24D46"/>
<path fill-rule="evenodd" clip-rule="evenodd" d="M21.9679 8.60551C21.9401 8.53948 21.9108 8.47403 21.8799 8.4093C21.7662 8.17134 21.6284 7.95191 21.4685 7.75196C21.4619 7.74706 21.4556 7.74129 21.4502 7.7347C20.969 7.16358 20.409 7.13507 19.8295 7.24978C19.2064 7.37317 18.5603 7.65386 17.9535 7.6761C17.8109 7.68132 16.9525 7.57336 16.605 7.43853C16.5259 7.40784 16.4694 7.37257 16.4395 7.34038C16.4112 7.30979 16.398 7.27735 16.3947 7.24651C16.3923 7.22379 16.3964 7.2013 16.4073 7.17998C16.4183 7.1587 16.4459 7.13503 16.4606 7.1257C16.7327 6.95112 17.0761 6.83668 17.3735 6.71598C18.4452 6.28106 19.5492 6.12171 20.5975 6.72632C21.2488 7.10203 21.7551 7.63816 22.0781 8.31464C22.1238 8.41023 22.1659 8.5073 22.2053 8.60551H21.9679Z" fill="#EF7B58"/>
<path fill-rule="evenodd" clip-rule="evenodd" d="M16.4429 7.34072C17.0014 7.3487 17.3186 7.44287 18.0131 7.20802C19.625 6.66294 20.219 6.49005 20.5256 7.20802C20.5256 7.20802 20.0684 7.20354 19.8329 7.25013C19.2097 7.37352 18.5637 7.65421 17.9568 7.67645C17.8142 7.68167 16.9559 7.5737 16.6083 7.43888C16.5293 7.40819 16.4429 7.34072 16.4429 7.34072Z" fill="#F24D46"/>
<path fill-rule="evenodd" clip-rule="evenodd" d="M24.1699 8.60268C24.1736 8.57559 24.221 8.54982 24.244 8.53146C24.5484 8.28959 24.869 8.08734 25.2041 7.92636C25.2828 7.8886 25.3936 7.8391 25.494 7.79881C26.3035 7.47466 27.1908 7.38166 28.1311 7.54018C28.4928 7.60114 28.852 7.68778 29.1983 7.80895C29.402 7.88024 29.6092 7.96483 29.7914 8.08218C29.8174 8.09894 29.913 8.15136 29.9521 8.20134C30.0017 8.26487 30.0032 8.33027 29.9578 8.388C29.8648 8.5063 29.6985 8.58406 29.5078 8.62802C29.2537 8.68648 28.9573 8.68977 28.7821 8.69032C28.3182 8.69215 27.8489 8.6136 27.4007 8.49673C27.1152 8.42228 26.5887 8.20066 26.1064 8.08329C25.9067 8.03469 25.7153 8.00174 25.5565 8.01106C25.1906 8.15939 24.8414 8.35727 24.5116 8.60268H24.1699Z" fill="#EF7B58"/>
<path fill-rule="evenodd" clip-rule="evenodd" d="M25.5615 8.01272C26.8996 7.13677 27.9757 9.0873 29.9629 8.38966C30.1049 8.3398 29.7035 8.58572 29.5128 8.62968C29.2588 8.68814 28.9623 8.69143 28.7872 8.69198C28.3232 8.69381 27.854 8.61526 27.4058 8.49839C27.1203 8.42394 26.5937 8.20232 26.1115 8.08495C25.9118 8.03635 25.7204 8.0034 25.5615 8.01272Z" fill="#F24D46"/>
<path fill-rule="evenodd" clip-rule="evenodd" d="M22.4352 8.60437L21.6436 0.639475C21.6376 0.579171 21.6817 0.525346 21.7419 0.519343C21.8023 0.513358 21.8561 0.557447 21.8621 0.617769L22.6559 8.60437H22.4352ZM23.0356 8.60437V2.11156C23.0356 2.05097 23.0849 2.00176 23.1455 2.00176C23.206 2.00176 23.2553 2.05097 23.2553 2.11156V8.60437H23.0356Z" fill="#EF7B58"/>
<path d="M21.7505 1.0205C22.0323 1.0205 22.2607 0.792052 22.2607 0.510249C22.2607 0.228446 22.0323 0 21.7505 0C21.4687 0 21.2402 0.228446 21.2402 0.510249C21.2402 0.792052 21.4687 1.0205 21.7505 1.0205Z" fill="#FFD274"/>
<path d="M23.2185 2.18978C23.5001 2.17867 23.7194 1.9414 23.7083 1.65981C23.6972 1.37823 23.4599 1.15896 23.1783 1.17007C22.8967 1.18118 22.6775 1.41845 22.6886 1.70004C22.6997 1.98162 22.937 2.20089 23.2185 2.18978Z" fill="#FFD274"/>
<path fill-rule="evenodd" clip-rule="evenodd" d="M3.55518 7.60498L2.97852 8.14413L4.87932 22.0135L16.9786 22.5109L32.72 22.0135V20.2462L16.9786 20.6233L5.79447 20.2462L3.55518 7.60498Z" fill="#3968BE"/>
<path fill-rule="evenodd" clip-rule="evenodd" d="M3.55225 7.60498L21.2092 8.87987L23.9975 19.3831L32.7171 20.2462L16.9757 20.7342L5.79154 20.2462L3.55225 7.60498Z" fill="#628DDF"/>
<path fill-rule="evenodd" clip-rule="evenodd" d="M24.0158 19.387L8.37948 20.227L16.9753 20.6022L32.7171 20.2347V20.5025L17.0842 20.8669V22.5063L16.9757 22.5109L16.8646 22.5065V20.8654L5.78433 20.3819C5.72137 20.3791 5.66885 20.3328 5.65819 20.2708L3.55225 7.60498L3.81603 7.62403L5.90389 20.1191L6.04584 20.1253L23.9406 19.1708C23.9667 19.2702 23.9955 19.3784 23.9975 19.3831C23.9978 19.3841 24.0042 19.3853 24.0158 19.387Z" fill="white"/>
<path fill-rule="evenodd" clip-rule="evenodd" d="M4.52881 8.5022L6.5748 19.3851L23.12 18.7256L20.6093 9.37928L4.52881 8.5022Z" fill="white"/>
<path fill-rule="evenodd" clip-rule="evenodd" d="M7.46336 21.7778C7.46073 21.7677 7.45948 21.7571 7.45983 21.7461L7.48994 20.8217C7.49019 20.814 7.49127 20.8063 7.49307 20.799L7.70813 20.8079C7.70923 20.8147 7.70969 20.8217 7.70945 20.829L7.67934 21.7534C7.67894 21.7659 7.67649 21.7776 7.67231 21.7887L7.46336 21.7778ZM7.06454 21.7569C7.06313 21.7492 7.0625 21.7413 7.06278 21.7333L7.09288 20.8089C7.09318 20.7997 7.09455 20.7911 7.09689 20.7827L7.31045 20.7915C7.31197 20.7993 7.31265 20.8076 7.31238 20.816L7.28227 21.7404C7.28196 21.7499 7.28044 21.7593 7.27784 21.768L7.06454 21.7569ZM6.66631 21.7358C6.66574 21.7309 6.66554 21.7256 6.66571 21.7203L6.69581 20.7959C6.69614 20.7856 6.6979 20.7757 6.70085 20.7664L6.91265 20.775C6.9147 20.784 6.91563 20.7935 6.91532 20.803L6.88522 21.7274C6.885 21.7342 6.88415 21.7408 6.88276 21.7474L6.66631 21.7358ZM6.26867 21.7152C6.26856 21.7126 6.26856 21.71 6.26865 21.7075L6.29876 20.7831C6.29913 20.7713 6.30127 20.7604 6.30493 20.7501L6.51474 20.7587C6.51737 20.7688 6.51862 20.7792 6.51825 20.7902L6.48815 21.7146C6.48802 21.7186 6.48767 21.7227 6.4871 21.7265L6.26867 21.7152ZM5.87158 21.6943L5.90169 20.7701C5.90211 20.7573 5.90471 20.745 5.9091 20.7336L6.1167 20.7422C6.11999 20.7532 6.12158 20.7651 6.1212 20.7772L6.09109 21.7016C6.09104 21.7031 6.09096 21.7044 6.09087 21.7058L5.87158 21.6943Z" fill="#628DDF"/>
<path fill-rule="evenodd" clip-rule="evenodd" d="M15.5497 15.9247C15.5497 15.9247 15.3097 13.7241 15.2011 12.7285C15.171 12.4519 15.345 12.1939 15.6127 12.1183C15.8182 12.0601 16.0144 12.0046 16.0144 12.0046C16.0144 12.0046 15.9151 11.0506 16.644 11.0936C16.7741 11.1011 16.8968 11.1573 16.9872 11.2512C17.0353 11.3004 17.0799 11.365 17.1061 11.4468C17.1061 11.4468 17.2593 10.8655 17.8911 11.0844C17.8911 11.0844 18.1083 11.1207 18.1372 11.4029C18.1372 11.4029 18.245 10.968 18.769 11.1774C18.769 11.1774 18.9764 11.2513 19.0336 11.6058C19.0336 11.6058 19.0358 11.2739 19.4271 11.2786C19.5598 11.2803 19.7359 11.3326 19.7952 12.137L20.0752 15.7825L15.5497 15.9247Z" fill="#DE7861"/>
<path fill-rule="evenodd" clip-rule="evenodd" d="M18.0201 13.0786C18.0278 12.9586 18.0253 12.7823 18.0181 12.5825C18.0011 12.1048 17.9528 11.4964 17.9246 11.165C17.9221 11.1363 17.9147 11.0962 17.9147 11.0962C18.0255 11.1346 18.0939 11.2216 18.1237 11.3526C18.1237 11.3526 18.1265 11.3854 18.1278 11.402C18.155 11.7428 18.1876 12.1996 18.201 12.5759C18.2083 12.7781 18.209 12.9576 18.2013 13.0867C18.2308 13.2066 18.28 13.2851 18.341 13.3341C18.4339 13.4091 18.5498 13.4143 18.6397 13.4093C18.8677 13.3965 18.9305 13.1952 18.942 13.1484L18.824 11.3213L18.8174 11.2016C18.9188 11.2675 18.9909 11.4194 19.0247 11.5581L19.0295 11.6242L19.1254 13.1482C19.1259 13.154 19.1257 13.1597 19.125 13.1654C19.1669 13.1952 19.2401 13.2443 19.3258 13.2744C19.3895 13.297 19.4612 13.31 19.53 13.2869C19.5868 13.268 19.6311 13.2181 19.686 13.1465C19.8251 12.9653 19.8434 12.7516 19.8434 12.7516L19.8677 13.1934C19.8677 13.1934 19.7725 13.378 19.651 13.4333C19.5507 13.4789 19.4504 13.4911 19.3529 13.4716C19.2354 13.4481 19.1274 13.3868 19.0577 13.3409C18.9934 13.4523 18.8721 13.5795 18.6497 13.592C18.5216 13.5991 18.3589 13.5836 18.226 13.4767C18.1915 13.4487 18.1583 13.4145 18.1287 13.3722C18.0044 13.5858 17.7356 13.6959 17.5099 13.6057C17.4098 13.5654 17.3146 13.4851 17.2469 13.3522C17.2403 13.3817 17.2317 13.4084 17.2216 13.4329C17.2348 13.4417 17.2493 13.4512 17.2524 13.4536C17.3077 13.499 17.3617 13.546 17.4162 13.5923C17.6236 13.7686 17.8313 13.9566 18.0004 14.1709C18.0386 14.2194 18.0745 14.2701 18.1076 14.3226C18.1539 14.2818 18.2024 14.2433 18.2528 14.2076C18.4215 14.0881 18.6071 14.0054 18.8057 13.9505C18.8545 13.937 18.9048 13.9657 18.9184 14.0144C18.9318 14.0631 18.9032 14.1134 18.8545 14.1269C18.6763 14.176 18.5099 14.2497 18.3587 14.357C18.3033 14.3963 18.2504 14.4393 18.2002 14.4855C18.2099 14.5043 18.2191 14.5232 18.2282 14.5424C18.2753 14.6425 18.3143 14.7474 18.3391 14.8553C18.3576 14.935 18.3697 15.0177 18.3596 15.0993C18.3474 15.1978 18.311 15.3041 18.2312 15.3693C18.0701 15.5007 17.8185 15.4267 17.7174 15.2591C17.6364 15.1247 17.6651 14.9516 17.7235 14.8173C17.7705 14.7095 17.8371 14.6107 17.9129 14.5212C17.9325 14.4981 17.9526 14.4754 17.9733 14.4533C17.938 14.3945 17.899 14.3378 17.8567 14.2842C17.6951 14.0794 17.496 13.9004 17.2976 13.732C17.2447 13.687 17.1924 13.6412 17.1387 13.5973C17.1354 13.5951 17.1274 13.5898 17.1179 13.5832C17.0229 13.6694 16.9023 13.6937 16.8221 13.6978C16.4065 13.7184 16.3232 13.3473 16.3232 13.3473C16.3117 13.2981 16.3424 13.2488 16.3915 13.2373C16.4407 13.2258 16.49 13.2563 16.5015 13.3056C16.5015 13.3056 16.5571 13.5277 16.813 13.5149C16.8642 13.5124 16.9438 13.4996 17.0026 13.4401C17.0666 13.3751 17.0996 13.26 17.0675 13.0625C17.0595 13.0127 17.0934 12.9657 17.1433 12.9576C17.1494 12.9565 17.1554 12.9564 17.1613 12.9566C17.1742 12.9273 17.2022 12.9059 17.2363 12.9026C17.2866 12.8978 17.3313 12.935 17.336 12.9851C17.3602 13.2439 17.4548 13.3865 17.578 13.4357C17.7487 13.5041 17.9546 13.3866 18.0042 13.1992C18.0104 13.1754 18.015 13.1427 18.0183 13.1024C18.0178 13.0944 18.0185 13.0863 18.0201 13.0786ZM18.0648 14.6251L18.0525 14.6396C17.9883 14.7153 17.9312 14.799 17.8913 14.8903C17.8551 14.9739 17.8238 15.0812 17.8741 15.1646C17.9221 15.2443 18.039 15.2898 18.1155 15.2274C18.1591 15.1919 18.1713 15.1306 18.1779 15.0768C18.1854 15.0164 18.1744 14.9555 18.1609 14.8965C18.1393 14.8028 18.1054 14.7122 18.0648 14.6251ZM17.0818 11.387C17.0308 11.2862 16.9682 11.2184 16.89 11.1721L16.8887 11.2367L16.9393 12.0221C16.9424 12.0724 16.9859 12.1108 17.0364 12.1075C17.0868 12.1042 17.125 12.0607 17.1219 12.0104L17.0818 11.387Z" fill="#8F3536"/>
<path fill-rule="evenodd" clip-rule="evenodd" d="M17.588 12.4904C17.5971 12.5434 17.6875 13.1675 16.0301 13.5193C15.9807 13.5297 15.9317 13.4999 15.9203 13.4507C15.909 13.4014 15.9397 13.3522 15.989 13.3409C16.5085 13.2208 17.0481 12.9964 17.2153 12.8533C17.4264 12.6727 17.4077 12.522 17.4077 12.522L17.4064 12.5142C17.3936 12.3952 17.3284 12.307 17.2349 12.2402C17.1286 12.1646 16.9879 12.1157 16.8374 12.083C16.579 12.0268 16.2918 12.0195 16.0827 12.0246C16.0612 12.0251 16.0118 12.0272 16.0118 12.0272L16.0052 11.8447C16.0052 11.8447 16.0481 11.8429 16.0656 11.8425C16.2876 11.8366 16.5978 11.8436 16.8762 11.9042C17.2441 11.984 17.5503 12.1626 17.588 12.4904Z" fill="#8F3536"/>
<path fill-rule="evenodd" clip-rule="evenodd" d="M7.68833 16.1261C7.68833 16.1261 7.44838 13.9255 7.33981 12.9299C7.30965 12.6533 7.48363 12.3953 7.7514 12.3197C7.95691 12.2615 8.1531 12.2061 8.1531 12.2061C8.1531 12.2061 8.05372 11.252 8.78268 11.295C8.9128 11.3025 9.03542 11.3587 9.12583 11.4526C9.17397 11.5018 9.21862 11.5664 9.24479 11.6482C9.24479 11.6482 9.39798 11.067 10.0297 11.2858C10.0297 11.2858 10.247 11.3221 10.2759 11.6043C10.2759 11.6043 10.3837 11.1695 10.9077 11.3788C10.9077 11.3788 11.115 11.4528 11.1723 11.8073C11.1723 11.8073 11.1745 11.4753 11.5658 11.48C11.6985 11.4817 11.8746 11.534 11.9338 12.3384L12.2139 15.9839L7.68833 16.1261Z" fill="#AB494A"/>
<path fill-rule="evenodd" clip-rule="evenodd" d="M10.1588 13.28C10.1665 13.16 10.1639 12.9837 10.1568 12.7839C10.1398 12.3062 10.0915 11.6979 10.0633 11.3664C10.0607 11.3377 10.0534 11.2976 10.0534 11.2976C10.1641 11.336 10.2326 11.423 10.2624 11.554C10.2624 11.554 10.2652 11.5868 10.2664 11.6034C10.2937 11.9442 10.3263 12.401 10.3396 12.7773C10.347 12.9795 10.3477 13.1591 10.34 13.2881C10.3695 13.408 10.4187 13.4865 10.4796 13.5355C10.5726 13.6106 10.6885 13.6157 10.7783 13.6107C11.0064 13.5979 11.0691 13.3966 11.0807 13.3498L10.9626 11.5227L10.956 11.403C11.0574 11.4689 11.1295 11.6208 11.1634 11.7595L11.1682 11.8256L11.2641 13.3496C11.2646 13.3554 11.2644 13.3611 11.2637 13.3668C11.3056 13.3966 11.3788 13.4457 11.4645 13.4759C11.5281 13.4984 11.5999 13.5114 11.6687 13.4883C11.7254 13.4695 11.7697 13.4195 11.8246 13.3479C11.9637 13.1668 11.982 12.953 11.982 12.953L12.0064 13.3948C12.0064 13.3948 11.9112 13.5795 11.7897 13.6347C11.6894 13.6803 11.5891 13.6926 11.4915 13.673C11.374 13.6495 11.2661 13.5882 11.1963 13.5423C11.1321 13.6538 11.0108 13.781 10.7884 13.7934C10.6603 13.8005 10.4976 13.785 10.3647 13.6781C10.3301 13.6501 10.297 13.6159 10.2673 13.5736C10.1431 13.7872 9.87423 13.8974 9.64857 13.8071C9.54846 13.7669 9.45329 13.6865 9.38558 13.5536C9.37899 13.5831 9.37039 13.6098 9.36032 13.6344C9.3735 13.6431 9.38796 13.6527 9.39107 13.655C9.44634 13.7004 9.50033 13.7475 9.55487 13.7938C9.76223 13.97 9.96995 14.158 10.1391 14.3723C10.1773 14.4208 10.2132 14.4715 10.2463 14.524C10.2926 14.4832 10.3411 14.4448 10.3914 14.4091C10.5602 14.2896 10.7458 14.2068 10.9443 14.1519C10.9932 14.1384 11.0435 14.1671 11.0571 14.2158C11.0704 14.2645 11.0419 14.3148 10.9932 14.3284C10.8149 14.3774 10.6486 14.4512 10.4974 14.5584C10.4419 14.5978 10.3891 14.6408 10.3389 14.6869C10.3486 14.7057 10.3578 14.7246 10.3669 14.7438C10.4139 14.8439 10.4529 14.9488 10.4778 15.0568C10.4963 15.1364 10.5084 15.2191 10.4983 15.3007C10.4861 15.3992 10.4496 15.5055 10.3698 15.5707C10.2088 15.7021 9.95714 15.6281 9.85611 15.4605C9.77504 15.3262 9.80377 15.153 9.86215 15.0187C9.90919 14.9109 9.97581 14.8121 10.0516 14.7226C10.0712 14.6995 10.0913 14.6768 10.112 14.6547C10.0766 14.5959 10.0377 14.5392 9.99539 14.4856C9.83378 14.2808 9.63466 14.1018 9.43627 13.9334C9.38338 13.8884 9.33104 13.8426 9.27741 13.7987C9.27412 13.7965 9.26607 13.7912 9.25655 13.7846C9.16157 13.8708 9.04096 13.8952 8.9608 13.8992C8.54517 13.9199 8.4619 13.5487 8.4619 13.5487C8.45037 13.4995 8.48111 13.4502 8.53016 13.4387C8.57939 13.4272 8.62862 13.4577 8.64015 13.507C8.64015 13.507 8.69579 13.7292 8.95165 13.7163C9.00289 13.7138 9.0825 13.701 9.14125 13.6415C9.20531 13.5765 9.23825 13.4614 9.20622 13.2639C9.19817 13.2142 9.23203 13.1671 9.28199 13.1591C9.28803 13.158 9.29407 13.1578 9.29993 13.158C9.31292 13.1287 9.34092 13.1073 9.37496 13.104C9.42529 13.0992 9.46995 13.1364 9.47471 13.1865C9.49886 13.4453 9.59348 13.5879 9.71665 13.6371C9.88741 13.7055 10.0933 13.5881 10.1429 13.4006C10.1491 13.3769 10.1537 13.3441 10.157 13.3038C10.1564 13.2958 10.1572 13.2877 10.1588 13.28ZM10.2035 14.8265L10.1912 14.841C10.127 14.9168 10.0699 15.0004 10.03 15.0917C9.99374 15.1754 9.96245 15.2826 10.0128 15.3661C10.0607 15.4457 10.1777 15.4912 10.2542 15.4288C10.2977 15.3933 10.31 15.332 10.3166 15.2782C10.3241 15.2178 10.3131 15.1569 10.2996 15.0979C10.278 15.0042 10.2441 14.9136 10.2035 14.8265ZM9.2205 11.5884C9.16944 11.4876 9.10684 11.4199 9.0287 11.3736L9.02741 11.4382L9.07793 12.2235C9.08104 12.2738 9.1246 12.3122 9.17511 12.309C9.22544 12.3057 9.26369 12.2621 9.26058 12.2118L9.2205 11.5884Z" fill="#4B0000"/>
<path fill-rule="evenodd" clip-rule="evenodd" d="M9.72664 12.6918C9.73579 12.7449 9.8262 13.369 8.16881 13.7207C8.11939 13.7311 8.07034 13.7013 8.059 13.6521C8.04765 13.6028 8.0784 13.5536 8.12763 13.5423C8.64721 13.4222 9.18674 13.1978 9.35402 13.0547C9.56503 12.8741 9.54637 12.7235 9.54637 12.7235L9.54509 12.7156C9.53227 12.5966 9.46712 12.5084 9.3736 12.4416C9.26727 12.366 9.12653 12.3172 8.97609 12.2844C8.71767 12.2282 8.43052 12.2209 8.22133 12.226C8.19992 12.2266 8.1505 12.2286 8.1505 12.2286L8.14391 12.0461C8.14391 12.0461 8.18674 12.0443 8.20431 12.0439C8.42631 12.0381 8.73652 12.045 9.01489 12.1056C9.38275 12.1854 9.68894 12.364 9.72664 12.6918Z" fill="#4B0000"/>
<path fill-rule="evenodd" clip-rule="evenodd" d="M12.1317 17.4627C12.1317 17.4627 11.8917 15.2622 11.7832 14.2666C11.753 13.99 11.927 13.732 12.1948 13.6564C12.4003 13.5982 12.5965 13.5427 12.5965 13.5427C12.5965 13.5427 12.4971 12.5887 13.226 12.6317C13.3562 12.6392 13.4788 12.6954 13.5692 12.7892C13.6173 12.8385 13.662 12.9031 13.6882 12.9849C13.6882 12.9849 13.8413 12.4036 14.4731 12.6225C14.4731 12.6225 14.6903 12.6588 14.7193 12.941C14.7193 12.941 14.8271 12.5061 15.351 12.7155C15.351 12.7155 15.5584 12.7894 15.6157 13.1439C15.6157 13.1439 15.6179 12.8119 16.0092 12.8167C16.1418 12.8183 16.3571 12.9058 16.4585 13.6545L16.7839 17.3083L12.1317 17.4627Z" fill="#4B0000"/>
<path fill-rule="evenodd" clip-rule="evenodd" d="M14.6022 14.6167C14.6099 14.4967 14.6073 14.3204 14.6002 14.1206C14.5831 13.6429 14.5348 13.0345 14.5066 12.7031C14.5041 12.6744 14.4968 12.6343 14.4968 12.6343C14.6075 12.6727 14.6759 12.7596 14.7058 12.8907C14.7058 12.8907 14.7085 12.9234 14.7098 12.9401C14.7371 13.2809 14.7696 13.7377 14.783 14.114C14.7903 14.3162 14.7911 14.4957 14.7834 14.6248C14.8128 14.7446 14.8621 14.8232 14.923 14.8722C15.016 14.9472 15.1318 14.9524 15.2217 14.9474C15.4497 14.9346 15.5125 14.7333 15.524 14.6864L15.406 12.8594L15.3994 12.7397C15.5008 12.8056 15.5729 12.9575 15.6068 13.0962L15.6115 13.1623L15.7074 14.6863C15.708 14.6921 15.7078 14.6978 15.707 14.7035C15.749 14.7333 15.8222 14.7823 15.9078 14.8125C15.9715 14.835 16.0432 14.848 16.1121 14.825C16.1688 14.8061 16.2376 14.7574 16.2962 14.6888C16.434 14.5274 16.5149 14.3169 16.5149 14.3169L16.5442 14.6442C16.5442 14.6442 16.4528 14.9004 16.233 14.9714C16.1282 15.0053 16.0324 15.0292 15.9349 15.0096C15.8174 14.9862 15.7094 14.9249 15.6397 14.879C15.5755 14.9904 15.4541 15.1176 15.2318 15.1301C15.1036 15.1372 14.9409 15.1217 14.8081 15.0148C14.7735 14.9868 14.7404 14.9525 14.7107 14.9103C14.5864 15.1238 14.3176 15.234 14.0919 15.1438C13.9918 15.1035 13.8967 15.0232 13.8289 14.8903C13.8223 14.9198 13.8137 14.9465 13.8037 14.971C13.8169 14.9798 13.8313 14.9893 13.8344 14.9917C13.8897 15.0371 13.9437 15.0841 13.9982 15.1304C14.2056 15.3067 14.4133 15.4946 14.5824 15.7089C14.6207 15.7574 14.6565 15.8081 14.6897 15.8607C14.736 15.8199 14.7845 15.7814 14.8348 15.7457C15.0035 15.6262 15.1891 15.5435 15.3877 15.4886C15.4365 15.4751 15.4869 15.5038 15.5004 15.5525C15.5138 15.6012 15.4852 15.6515 15.4365 15.665C15.2583 15.7141 15.0919 15.7878 14.9408 15.8951C14.8853 15.9344 14.8324 15.9774 14.7823 16.0236C14.792 16.0424 14.8011 16.0613 14.8103 16.0805C14.8573 16.1806 14.8963 16.2854 14.9212 16.3934C14.9397 16.473 14.9517 16.5558 14.9417 16.6374C14.9294 16.7359 14.893 16.8422 14.8132 16.9073C14.6521 17.0387 14.4005 16.9648 14.2995 16.7972C14.2184 16.6628 14.2471 16.4897 14.3055 16.3554C14.3525 16.2476 14.4192 16.1487 14.4949 16.0592C14.5145 16.0362 14.5346 16.0135 14.5553 15.9913C14.52 15.9326 14.481 15.8759 14.4387 15.8222C14.2771 15.6174 14.078 15.4385 13.8796 15.2701C13.8267 15.2251 13.7744 15.1793 13.7208 15.1354C13.7175 15.1332 13.7094 15.1279 13.6999 15.1213C13.6049 15.2075 13.4843 15.2318 13.4042 15.2359C12.9885 15.2565 12.9053 14.8854 12.9053 14.8854C12.8937 14.8361 12.9245 14.7869 12.9735 14.7754C13.0228 14.7639 13.072 14.7944 13.0835 14.8436C13.0835 14.8436 13.1391 15.0658 13.395 15.053C13.4463 15.0505 13.5259 15.0376 13.5846 14.9782C13.6487 14.9132 13.6816 14.7981 13.6496 14.6006C13.6415 14.5508 13.6754 14.5038 13.7253 14.4957C13.7314 14.4946 13.7374 14.4945 13.7433 14.4946C13.7563 14.4654 13.7843 14.4439 13.8183 14.4406C13.8686 14.4359 13.9133 14.473 13.9181 14.5232C13.9422 14.782 14.0368 14.9245 14.16 14.9738C14.3308 15.0422 14.5367 14.9247 14.5863 14.7373C14.5925 14.7135 14.5971 14.6808 14.6003 14.6405C14.5998 14.6324 14.6005 14.6244 14.6022 14.6167ZM14.6468 16.1632L14.6346 16.1777C14.5703 16.2534 14.5132 16.3371 14.4733 16.4284C14.4371 16.512 14.4058 16.6193 14.4561 16.7027C14.5041 16.7823 14.621 16.8279 14.6975 16.7655C14.7411 16.73 14.7534 16.6687 14.7599 16.6149C14.7674 16.5545 14.7565 16.4935 14.7429 16.4346C14.7213 16.3409 14.6875 16.2503 14.6468 16.1632ZM13.6639 12.9251C13.6128 12.8242 13.5502 12.7565 13.4721 12.7102L13.4708 12.7748L13.5213 13.5602C13.5244 13.6105 13.568 13.6489 13.6185 13.6456C13.6688 13.6423 13.707 13.5988 13.7039 13.5484L13.6639 12.9251Z" fill="#AB494A"/>
<path fill-rule="evenodd" clip-rule="evenodd" d="M14.17 14.0285C14.1791 14.0815 14.2696 14.7056 12.6122 15.0574C12.5628 15.0678 12.5137 15.038 12.5024 14.9887C12.491 14.9395 12.5218 14.8903 12.571 14.8789C13.0906 14.7589 13.6301 14.5345 13.7974 14.3914C14.0084 14.2107 13.9897 14.0601 13.9897 14.0601L13.9884 14.0523C13.9756 13.9333 13.9105 13.8451 13.817 13.7783C13.7106 13.7027 13.5699 13.6538 13.4194 13.6211C13.161 13.5649 12.8739 13.5576 12.6647 13.5627C12.6433 13.5632 12.5939 13.5652 12.5939 13.5652L12.5873 13.3828C12.5873 13.3828 12.6301 13.381 12.6477 13.3806C12.8697 13.3747 13.1799 13.3817 13.4582 13.4423C13.8261 13.5221 14.1323 13.7007 14.17 14.0285Z" fill="#AB494A"/>
<path fill-rule="evenodd" clip-rule="evenodd" d="M15.0989 10.6006L14.6792 11.4586C14.6525 11.5129 14.675 11.5788 14.7295 11.6055C14.7839 11.6321 14.8498 11.6096 14.8763 11.555L15.2961 10.6971C15.3229 10.6427 15.3004 10.5768 15.2458 10.5503C15.1915 10.5236 15.1256 10.5461 15.0989 10.6006ZM12.4382 10.6672L12.8701 11.5431C12.8968 11.5975 12.9629 11.6198 13.0172 11.5929C13.0716 11.5662 13.0939 11.5003 13.067 11.446L12.6351 10.57C12.6082 10.5157 12.5423 10.4934 12.4879 10.5203C12.4336 10.547 12.4113 10.6129 12.4382 10.6672ZM13.8692 10.331L13.8499 11.32C13.8489 11.3806 13.897 11.4308 13.9576 11.4319C14.0181 11.4331 14.0683 11.3848 14.0696 11.3242L14.0886 10.3354C14.0899 10.2748 14.0416 10.2247 13.981 10.2234C13.9204 10.2223 13.8703 10.2704 13.8692 10.331Z" fill="#FFD275"/>
<path fill-rule="evenodd" clip-rule="evenodd" d="M9.40837 17.2174L9.3192 18.103C9.31313 18.1634 9.35716 18.2172 9.41746 18.2235C9.47777 18.2295 9.53165 18.1854 9.53772 18.1252L9.62689 17.2394C9.63295 17.1792 9.58893 17.1252 9.52863 17.1191C9.46833 17.1131 9.41444 17.1572 9.40837 17.2174ZM10.5165 17.2972L10.5771 17.9978C10.5823 18.0582 10.6356 18.1029 10.696 18.0977C10.7564 18.0924 10.8011 18.0392 10.7959 17.9789L10.7353 17.2784C10.7301 17.218 10.6769 17.1731 10.6165 17.1784C10.5561 17.1836 10.5113 17.2368 10.5165 17.2972ZM8.24944 17.0496L7.7236 17.7734C7.68798 17.8225 7.69885 17.8911 7.74788 17.9268C7.79691 17.9623 7.86565 17.9515 7.90127 17.9024L8.42711 17.1788C8.46274 17.1298 8.45185 17.0609 8.40282 17.0254C8.35379 16.9897 8.28507 17.0005 8.24944 17.0496Z" fill="#FFD275"/>
<path fill-rule="evenodd" clip-rule="evenodd" d="M18.1766 17.0361L18.2357 17.7855C18.2405 17.8459 18.2934 17.8911 18.3538 17.8863C18.4142 17.8816 18.4594 17.8287 18.4546 17.7683L18.3957 17.0189C18.3909 16.9585 18.3379 16.9133 18.2775 16.918C18.2171 16.9228 18.1719 16.9757 18.1766 17.0361ZM19.248 17.0386L19.5582 17.7773C19.5816 17.8331 19.6461 17.8594 19.7019 17.836C19.7579 17.8124 19.784 17.748 19.7606 17.6922L19.4504 16.9537C19.427 16.8977 19.3626 16.8715 19.3067 16.895C19.2509 16.9184 19.2246 16.9828 19.248 17.0386ZM20.1019 16.7632L20.802 17.3805C20.8474 17.4206 20.9169 17.4164 20.957 17.3708C20.9971 17.3254 20.9927 17.2559 20.9473 17.2158L20.2473 16.5985C20.2017 16.5584 20.1323 16.5628 20.0922 16.6082C20.0522 16.6536 20.0566 16.7231 20.1019 16.7632Z" fill="#FFD275"/>
<path fill-rule="evenodd" clip-rule="evenodd" d="M2.76763 6.22364L3.46316 4.72068C3.4815 4.68104 3.52158 4.65606 3.56523 4.65701C3.6089 4.65798 3.64784 4.68472 3.66441 4.72513L4.2283 6.10004L4.86867 5.18893C4.89471 5.1519 4.9408 5.13463 4.98476 5.14544C5.0287 5.15626 5.06152 5.19295 5.06739 5.23783L5.27381 6.81579C5.28168 6.8759 5.23928 6.93106 5.17918 6.93893C5.11909 6.9468 5.06391 6.90437 5.05606 6.84429L4.8862 5.54592L4.29265 6.39041C4.26957 6.42322 4.23044 6.44085 4.19056 6.43638C4.1507 6.43192 4.11644 6.40606 4.10121 6.36892L3.55674 5.04138L2.91604 6.42586C2.90302 6.45399 2.87872 6.47529 2.84914 6.48455C2.81955 6.4938 2.78743 6.4901 2.76071 6.47438L1.70831 5.85538V7.13686C1.70831 7.16998 1.69336 7.20133 1.66763 7.22218C1.64188 7.24304 1.60811 7.25115 1.5757 7.24427L0.815158 7.08281L1.68597 8.23025C1.72261 8.27853 1.71316 8.34747 1.66488 8.38411C1.6166 8.42075 1.54768 8.41129 1.51104 8.36303L0.461791 6.98049C0.434064 6.94396 0.431959 6.89401 0.456538 6.85529C0.481117 6.81654 0.527201 6.79716 0.572077 6.8067L1.48869 7.00128V5.6634C1.48869 5.62401 1.5098 5.58763 1.54398 5.56808C1.57817 5.54852 1.62023 5.54877 1.65418 5.56874L2.76763 6.22364Z" fill="#EF7B58"/>
<path fill-rule="evenodd" clip-rule="evenodd" d="M14.1602 5.60416L13.7851 6.96832L13.2983 6.9546L13.4221 5.4477L14.1602 5.60416ZM10.4451 5.60416L10.89 6.74942L10.4451 6.96832L9.86124 5.85306L10.4451 5.60416ZM12.3485 5.08423L12.3502 6.62189H11.8402L11.6548 5.1837L12.3485 5.08423Z" fill="#FFD376"/>
</svg>
